<svg width="16" height="17" viewBox="0 0 16 17" fill="none" xmlns="http://www.w3.org/2000/svg">
<g clip-path="url(#clip0_706_23163)">
<path d="M13 5.25H11.25V4C11.25 3.13805 10.9076 2.3114 10.2981 1.7019C9.6886 1.09241 8.86195 0.75 8 0.75C7.13805 0.75 6.3114 1.09241 5.7019 1.7019C5.09241 2.3114 4.75 3.13805 4.75 4V5.25H3C2.66848 5.25 2.35054 5.3817 2.11612 5.61612C1.8817 5.85054 1.75 6.16848 1.75 6.5V13.5C1.75 13.8315 1.8817 14.1495 2.11612 14.3839C2.35054 14.6183 2.66848 14.75 3 14.75H13C13.3315 14.75 13.6495 14.6183 13.8839 14.3839C14.1183 14.1495 14.25 13.8315 14.25 13.5V6.5C14.25 6.16848 14.1183 5.85054 13.8839 5.61612C13.6495 5.3817 13.3315 5.25 13 5.25ZM6.25 4C6.25 3.53587 6.43437 3.09075 6.76256 2.76256C7.09075 2.43437 7.53587 2.25 8 2.25C8.46413 2.25 8.90925 2.43437 9.23744 2.76256C9.56563 3.09075 9.75 3.53587 9.75 4V5.25H6.25V4ZM12.75 13.25H3.25V6.75H12.75V13.25Z" fill="#C2C2C2"/>
</g>
<defs>
<clipPath id="clip0_706_23163">
<rect width="16" height="16" fill="white" transform="translate(0 0.5)"/>
</clipPath>
</defs>
</svg>
