<svg width="17" height="17" viewBox="0 0 17 17" fill="none" xmlns="http://www.w3.org/2000/svg">
<path d="M13.583 1.75H5.08301C4.48627 1.75 3.91397 1.98705 3.49202 2.40901C3.07006 2.83097 2.83301 3.40326 2.83301 4V14.5C2.83301 14.6989 2.91203 14.8897 3.05268 15.0303C3.19333 15.171 3.3841 15.25 3.58301 15.25H12.583C12.7819 15.25 12.9727 15.171 13.1133 15.0303C13.254 14.8897 13.333 14.6989 13.333 14.5C13.333 14.3011 13.254 14.1103 13.1133 13.9697C12.9727 13.829 12.7819 13.75 12.583 13.75H4.33301V13.5C4.33301 13.3011 4.41203 13.1103 4.55268 12.9697C4.69333 12.829 4.8841 12.75 5.08301 12.75H13.583C13.7819 12.75 13.9727 12.671 14.1133 12.5303C14.254 12.3897 14.333 12.1989 14.333 12V2.5C14.333 2.30109 14.254 2.11032 14.1133 1.96967C13.9727 1.82902 13.7819 1.75 13.583 1.75ZM12.833 11.25H5.08301C4.82747 11.2495 4.57376 11.2931 4.33301 11.3787V4C4.33301 3.80109 4.41203 3.61032 4.55268 3.46967C4.69333 3.32902 4.8841 3.25 5.08301 3.25H12.833V11.25Z" fill="white"/>
</svg>
