<svg width="16" height="16" viewBox="0 0 16 16" fill="none" xmlns="http://www.w3.org/2000/svg">
<g id="CaretLeft">
<path id="Vector" d="M10.5306 12.4694C10.6715 12.6103 10.7507 12.8014 10.7507 13.0007C10.7507 13.1999 10.6715 13.391 10.5306 13.5319C10.3898 13.6728 10.1987 13.752 9.9994 13.752C9.80014 13.752 9.60905 13.6728 9.46815 13.5319L4.46815 8.53191C4.39823 8.46223 4.34275 8.37944 4.3049 8.28827C4.26704 8.19711 4.24756 8.09937 4.24756 8.00066C4.24756 7.90195 4.26704 7.80421 4.3049 7.71305C4.34275 7.62188 4.39823 7.53909 4.46815 7.46941L9.46815 2.46941C9.60905 2.32851 9.80014 2.24936 9.9994 2.24936C10.1987 2.24936 10.3898 2.32851 10.5306 2.46941C10.6715 2.61031 10.7507 2.8014 10.7507 3.00066C10.7507 3.19992 10.6715 3.39101 10.5306 3.53191L6.06252 8.00004L10.5306 12.4694Z" fill="black"/>
</g>
</svg>
