<svg width="21" height="20" viewBox="0 0 21 20" fill="none" xmlns="http://www.w3.org/2000/svg">
<g id="google-icon-logo-svgrepo-com 1" clip-path="url(#clip0_10_22029)">
<path id="Vector" d="M20.2617 10.1872C20.2617 9.3678 20.1952 8.76986 20.0513 8.14978H10.6947V11.8481H16.1868C16.0762 12.7672 15.4782 14.1513 14.1494 15.0814L14.1308 15.2052L17.0892 17.497L17.2942 17.5175C19.1765 15.779 20.2617 13.2212 20.2617 10.1872Z" fill="#4285F4"/>
<path id="Vector_2" d="M10.6947 19.9312C13.3854 19.9312 15.6442 19.0453 17.2941 17.5173L14.1494 15.0812C13.3079 15.6681 12.1784 16.0777 10.6947 16.0777C8.05932 16.0777 5.8226 14.3393 5.02527 11.9365L4.9084 11.9464L1.83222 14.3271L1.79199 14.439C3.43077 17.6944 6.79695 19.9312 10.6947 19.9312Z" fill="#34A853"/>
<path id="Vector_3" d="M5.02526 11.9367C4.81488 11.3166 4.69313 10.6522 4.69313 9.96571C4.69313 9.27915 4.81488 8.61479 5.01419 7.99472L5.00862 7.86266L1.89389 5.44373L1.79198 5.4922C1.11656 6.84312 0.729004 8.36014 0.729004 9.96571C0.729004 11.5713 1.11656 13.0882 1.79198 14.4391L5.02526 11.9367Z" fill="#FBBC05"/>
<path id="Vector_4" d="M10.6947 3.85336C12.566 3.85336 13.8283 4.66168 14.548 5.33717L17.3605 2.59107C15.6332 0.985496 13.3854 0 10.6947 0C6.79695 0 3.43077 2.23672 1.79199 5.49214L5.01421 7.99466C5.8226 5.59183 8.05932 3.85336 10.6947 3.85336Z" fill="#EB4335"/>
</g>
<defs>
<clipPath id="clip0_10_22029">
<rect width="20" height="20" fill="white" transform="translate(0.5)"/>
</clipPath>
</defs>
</svg>
