<svg width="14" height="14" viewBox="0 0 14 14" fill="none" xmlns="http://www.w3.org/2000/svg">
<path d="M6.75 0.5C5.46442 0.5 4.20772 0.881218 3.1388 1.59545C2.06988 2.30968 1.23676 3.32484 0.744786 4.51256C0.252816 5.70028 0.124095 7.00721 0.374899 8.26809C0.625703 9.52896 1.24477 10.6872 2.15381 11.5962C3.06285 12.5052 4.22104 13.1243 5.48192 13.3751C6.74279 13.6259 8.04973 13.4972 9.23744 13.0052C10.4252 12.5132 11.4403 11.6801 12.1546 10.6112C12.8688 9.54229 13.25 8.28558 13.25 7C13.2482 5.27665 12.5628 3.62441 11.3442 2.40582C10.1256 1.18722 8.47335 0.50182 6.75 0.5ZM6.5 3.5C6.64834 3.5 6.79334 3.54399 6.91668 3.6264C7.04002 3.70881 7.13615 3.82594 7.19291 3.96299C7.24968 4.10003 7.26453 4.25083 7.23559 4.39632C7.20665 4.5418 7.13522 4.67544 7.03033 4.78033C6.92544 4.88522 6.79181 4.95665 6.64632 4.98559C6.50083 5.01453 6.35003 4.99968 6.21299 4.94291C6.07595 4.88614 5.95881 4.79001 5.8764 4.66668C5.79399 4.54334 5.75 4.39834 5.75 4.25C5.75 4.05109 5.82902 3.86032 5.96967 3.71967C6.11032 3.57902 6.30109 3.5 6.5 3.5ZM7.25 10.5C6.98479 10.5 6.73043 10.3946 6.5429 10.2071C6.35536 10.0196 6.25 9.76522 6.25 9.5V7C6.11739 7 5.99022 6.94732 5.89645 6.85355C5.80268 6.75979 5.75 6.63261 5.75 6.5C5.75 6.36739 5.80268 6.24021 5.89645 6.14645C5.99022 6.05268 6.11739 6 6.25 6C6.51522 6 6.76957 6.10536 6.95711 6.29289C7.14465 6.48043 7.25 6.73478 7.25 7V9.5C7.38261 9.5 7.50979 9.55268 7.60356 9.64645C7.69732 9.74021 7.75 9.86739 7.75 10C7.75 10.1326 7.69732 10.2598 7.60356 10.3536C7.50979 10.4473 7.38261 10.5 7.25 10.5Z" fill="#9CA3AF"/>
</svg>
