<svg width="13" height="17" viewBox="0 0 13 17" fill="none" xmlns="http://www.w3.org/2000/svg">
<g clip-path="url(#clip0_741_64352)">
<path d="M11.3721 2.91467C11.3721 2.91467 8.936 0.351737 5.91269 0.648994C5.02736 0.732546 4.16734 0.990498 3.38217 1.40797C2.597 1.82545 1.90219 2.39419 1.33784 3.08143" stroke="white" stroke-width="0.739515" stroke-miterlimit="10" stroke-linecap="round"/>
<path d="M12.21 8.20438C12.1934 7.13043 11.9104 6.07741 11.3866 5.13975C10.8627 4.2021 10.1143 3.40914 9.20843 2.83203" stroke="white" stroke-width="0.739515" stroke-miterlimit="10" stroke-linecap="round"/>
<path d="M7.71777 2.30712C7.71777 2.30712 1.0005 1.36097 0.369739 8.10724" stroke="white" stroke-width="0.739515" stroke-miterlimit="10" stroke-linecap="round"/>
<path d="M11.876 11.5379C11.876 11.5379 10.8392 10.4504 10.5093 7.27843C10.1686 4.01586 5.91273 2.05107 2.95104 5.17226" stroke="white" stroke-width="0.739515" stroke-miterlimit="10" stroke-linecap="round"/>
<path d="M10.8896 13.1821C10.3161 12.5755 9.87133 11.859 9.58224 11.0759C9.29315 10.2927 9.16572 9.4591 9.20761 8.62534C9.35624 5.79053 7.27541 4.81539 5.86888 5.1779C4.46236 5.54041 3.58149 6.33792 3.45462 7.80608C3.32774 9.27423 3.60323 12.3012 2.21845 14.2333" stroke="white" stroke-width="0.739515" stroke-miterlimit="10" stroke-linecap="round"/>
<path d="M2.32324 6.69141C2.12835 7.67096 2.04321 8.66918 2.06946 9.66759C2.06946 11.5418 1.34445 12.4661 1.34445 12.4661" stroke="white" stroke-width="0.739515" stroke-miterlimit="10" stroke-linecap="round"/>
<path d="M10.4258 14.3348C10.4258 14.3348 8.09484 12.2358 8.09484 9.6693C8.09484 6.90336 6.3222 5.97173 5.49206 6.79824C4.29578 7.99452 5.22018 13.6025 7.71786 16.2452" stroke="white" stroke-width="0.739515" stroke-miterlimit="10" stroke-linecap="round"/>
<path d="M6.35526 8.60156C6.35526 8.60156 5.91297 11.8351 8.76953 15.4058" stroke="white" stroke-width="0.739515" stroke-miterlimit="10" stroke-linecap="round"/>
<path d="M3.6255 15.5116L4.31789 13.4961L5.87305 16.3708" stroke="white" stroke-width="0.739515" stroke-miterlimit="10" stroke-linecap="round"/>
</g>
<defs>
<clipPath id="clip0_741_64352">
<rect width="12.5826" height="16.4905" fill="white" transform="matrix(-1 0 0 1 12.583 0.253906)"/>
</clipPath>
</defs>
</svg>
