<svg width="182" height="39" viewBox="0 0 182 39" fill="none" xmlns="http://www.w3.org/2000/svg">
<g clip-path="url(#clip0_706_23173)">
<path d="M2.90527 6.0358C2.90527 6.0358 8.74457 -0.139281 15.9919 0.568175C23.2392 1.27563 26.9703 6.45269 26.9703 6.45269" stroke="#EA5A00" stroke-width="2.06026" stroke-miterlimit="10" stroke-linecap="round"/>
<path d="M0.882518 18.7931C0.882518 18.7931 0.581704 10.6447 8.0818 5.83398" stroke="#EA5A00" stroke-width="2.06026" stroke-miterlimit="10" stroke-linecap="round"/>
<path d="M11.666 4.56597C11.666 4.56597 27.7734 2.292 29.285 18.5231" stroke="#EA5A00" stroke-width="2.06026" stroke-miterlimit="10" stroke-linecap="round"/>
<path d="M1.69922 26.8417C1.69922 26.8417 4.18156 24.209 4.97024 16.5659C5.78673 8.67019 15.9941 3.96056 23.0923 11.4899" stroke="#EA5A00" stroke-width="2.06026" stroke-miterlimit="10" stroke-linecap="round"/>
<path d="M4.06445 30.7911C5.44075 29.325 6.50681 27.5964 7.19875 25.7087C7.89068 23.821 8.19427 21.8131 8.0913 19.8053C7.73993 12.9708 12.7223 10.6185 16.0944 11.4902C19.4666 12.3619 21.5824 14.2846 21.8832 17.8219C22.184 21.3592 21.5318 28.6536 24.8534 33.3127" stroke="#EA5A00" stroke-width="2.06026" stroke-miterlimit="10" stroke-linecap="round"/>
<path d="M24.6035 15.1484C24.6035 15.1484 25.2077 17.5538 25.2077 22.319C25.2077 26.8417 26.9772 29.0702 26.9772 29.0702" stroke="#EA5A00" stroke-width="2.06026" stroke-miterlimit="10" stroke-linecap="round"/>
<path d="M5.17969 33.5741C5.17969 33.5741 10.7662 28.5208 10.7662 22.3179C10.7662 15.6527 15.0206 13.4015 17.01 15.4C19.8791 18.2855 17.6647 31.8029 11.6737 38.1801" stroke="#EA5A00" stroke-width="2.06026" stroke-miterlimit="10" stroke-linecap="round"/>
<path d="M14.9372 19.7539C14.9372 19.7539 15.9938 27.5511 9.14844 36.1568" stroke="#EA5A00" stroke-width="2.06026" stroke-miterlimit="10" stroke-linecap="round"/>
<path d="M21.4815 36.4095L19.8208 31.5508L16.0947 38.4864" stroke="#EA5A00" stroke-width="2.06026" stroke-miterlimit="10" stroke-linecap="round"/>
<path d="M65.777 12.19C64.6597 13.3902 63.6486 14.4842 63.5273 14.6055C63.3326 14.8025 63.4236 14.8329 64.3741 14.8783L65.4307 14.9238L65.5066 19.1281C65.5824 22.8953 65.6127 23.4108 65.8832 24.0172C66.7882 26.0688 69.4222 26.8116 71.8767 25.6873L72.5719 25.3841V22.9863L71.7857 23.3779C71.2326 23.681 70.6055 23.8228 69.9758 23.7872C68.0723 23.7872 67.8473 23.1808 67.9206 18.2463L67.9661 14.9819L69.9758 14.9365L71.9677 14.891V12.6448L69.9758 12.5993L67.9661 12.5538L67.8903 11.2779L67.817 10.002L65.777 12.19Z" fill="white"/>
<path d="M138.32 10.6896C138.017 11.0559 137.006 12.1323 136.07 13.0898L134.395 14.8357L135.527 14.9116L136.659 14.9873L136.735 19.3155C136.826 24.2045 136.857 24.3687 137.999 25.296C138.904 26.0262 139.516 26.2233 140.805 26.1929C141.501 26.2235 142.195 26.0875 142.827 25.7963L143.687 25.4021V22.9892L142.896 23.3808C142.346 23.6822 141.724 23.824 141.098 23.7901C139.21 23.7901 139.031 23.2848 139.119 18.3553L139.18 14.909H143.075V12.6351L141.083 12.5896L139.076 12.5441V11.2808C139.076 10.5961 139.031 10.0352 138.985 10.0352C138.734 10.2209 138.51 10.4412 138.32 10.6896Z" fill="white"/>
<path d="M94.691 12.5277C93.9388 12.8194 93.2472 13.2477 92.6511 13.7911L92.1227 14.309L92.0772 13.4727L92.0317 12.6389H89.6328V25.9997H92.0469V16.156L92.6965 15.5925C93.9605 14.4707 95.1283 14.2433 96.2911 14.8346C97.2719 15.3399 97.4817 16.5653 97.4817 22.0001V25.9947H99.8984V16.2621L100.594 15.5925C102.027 14.1978 104.079 14.3292 104.835 15.8679C105.242 16.6866 105.318 17.6366 105.341 22.2275V25.9947H107.773L107.727 21.0147C107.682 16.2318 107.666 16.0196 107.32 15.1378C106.85 13.9376 105.702 12.7703 104.691 12.4949C103.174 12.0704 101.658 12.5732 100.209 13.9679C99.7543 14.4101 99.3625 14.6981 99.3321 14.6223C99.1687 14.3421 98.9871 14.0729 98.7886 13.8163C97.8457 12.5884 96.0029 12.0098 94.691 12.5277Z" fill="white"/>
<path d="M114.586 12.6177C112.021 13.497 110.63 15.8189 110.615 19.1869C110.615 22.2669 111.854 24.5914 114.088 25.6677C114.799 26.0038 115.16 26.0796 116.535 26.1099C118.376 26.1705 119.359 25.9583 120.777 25.1826L121.637 24.6975V23.4342C121.637 22.4614 121.591 22.2037 121.457 22.2795C121.323 22.3553 121.02 22.5322 120.732 22.7217C119.599 23.4039 118.755 23.6313 117.258 23.6313C115.539 23.6313 114.983 23.419 114.104 22.3856C113.5 21.7186 113.032 20.5639 113.032 19.8059V19.4573H121.788V18.7119C121.788 17.0115 121.123 15.0988 120.112 13.9442C118.889 12.5267 116.52 11.9481 114.586 12.6177ZM118.029 15.1443C118.679 15.5688 119.162 16.4076 119.314 17.3299L119.417 17.9539H113.032L113.123 17.5295C113.439 16.1929 114.45 15.023 115.494 14.7502C116.358 14.5576 117.262 14.6956 118.029 15.1367V15.1443Z" fill="white"/>
<path d="M122.394 12.6941C122.394 12.7244 122.667 13.3611 123.013 14.1039C123.359 14.8468 123.771 15.7437 123.933 16.1252C124.095 16.5068 124.613 17.5831 125.05 18.5382C125.488 19.4932 125.867 20.2841 125.867 20.3068C125.867 20.3295 126.137 20.946 126.471 21.6585C126.713 22.1418 126.915 22.6447 127.073 23.1619C127.073 23.3438 126.259 25.2868 125.384 27.2045C125.217 27.586 124.78 28.5714 124.431 29.4077C124.082 30.244 123.602 31.3204 123.39 31.7903C123.243 32.0975 123.112 32.4121 122.998 32.7328C122.998 32.7782 123.602 32.8237 124.325 32.8237H125.67L126.092 31.8661C126.319 31.3608 126.741 30.3779 127.03 29.7261C127.558 28.4804 127.616 28.3288 128.417 26.5526C128.67 25.9765 128.885 25.4889 128.885 25.4586C128.885 25.4283 129.097 24.9533 129.353 24.3671C129.858 23.2124 130.033 22.8334 130.617 21.512C130.829 21.0067 131.069 20.4634 131.145 20.2967C131.221 20.1299 131.446 19.6145 131.65 19.1572C132.421 17.4113 132.692 16.7897 132.889 16.3501C133.508 14.968 133.84 14.1949 133.915 13.9953C133.961 13.874 134.097 13.5102 134.231 13.1918L134.484 12.6309H131.825L131.357 13.6416C130.753 14.9933 130.374 15.8271 129.891 16.9818C129.681 17.5149 129.332 18.288 129.133 18.7277C128.933 19.1673 128.738 19.6701 128.68 19.8368L128.574 20.14L128.392 19.8368C128.301 19.6701 127.833 18.6822 127.366 17.6361C126.898 16.5901 126.415 15.4936 126.279 15.2055C126.142 14.9175 125.842 14.2201 125.584 13.6416L125.131 12.6309H123.771C123.311 12.6135 122.85 12.6346 122.394 12.6941Z" fill="white"/>
<path d="M158.584 6.80859H156.36L148.485 25.6294H151.165L153.619 20.0709H161.708L164.163 25.6294H167.017L158.584 6.80859ZM154.792 17.6731L157.588 10.6415L160.783 17.6731H154.792Z" fill="white"/>
<path d="M171.936 6.66406H169.168V25.7729H171.936V6.66406Z" fill="white"/>
<path d="M49.9554 6.17188C47.6206 6.17187 45.3382 6.86389 43.3969 8.16042C41.4556 9.45695 39.9425 11.2998 39.049 13.4558C38.1555 15.6119 37.9217 17.9843 38.3772 20.2732C38.8327 22.562 39.957 24.6644 41.608 26.3146C43.259 27.9648 45.3624 29.0886 47.6524 29.5439C49.9423 29.9991 52.3159 29.7655 54.473 28.8724C56.63 27.9793 58.4737 26.467 59.7709 24.5266C61.068 22.5862 61.7604 20.3049 61.7604 17.9712C61.7604 14.8418 60.5167 11.8406 58.3028 9.62782C56.0889 7.41501 53.0863 6.17188 49.9554 6.17188ZM51.9777 26.1828C50.3528 26.1828 48.7644 25.7012 47.4134 24.7989C46.0624 23.8966 45.0094 22.6141 44.3876 21.1136C43.7657 19.6132 43.6031 17.9621 43.9201 16.3692C44.237 14.7763 45.0195 13.3132 46.1684 12.1648C47.3174 11.0164 48.7813 10.2343 50.3749 9.91746C51.9685 9.60062 53.6204 9.76323 55.1216 10.3847C56.6228 11.0063 57.9058 12.0588 58.8086 13.4091C59.7113 14.7595 60.1931 16.3471 60.1931 17.9712C60.1931 19.05 59.9805 20.1182 59.5673 21.1148C59.1541 22.1114 58.5485 23.0169 57.7851 23.7794C57.0217 24.542 56.1154 25.1468 55.1181 25.5591C54.1207 25.9715 53.0519 26.1834 51.9726 26.1828H51.9777Z" fill="white"/>
<path d="M46.0391 17.7082C46.0386 19.0356 46.4319 20.3333 47.1693 21.4372C47.9068 22.5411 48.9552 23.4016 50.1819 23.9099C51.4087 24.4182 52.7587 24.5515 54.0613 24.2928C55.3638 24.0342 56.5604 23.3952 57.4996 22.4568C58.4388 21.5184 59.0785 20.3227 59.3377 19.0208C59.597 17.719 59.4642 16.3696 58.9561 15.1432C58.448 13.9168 57.5875 12.8686 56.4833 12.1311C55.3792 11.3936 54.081 11 52.753 11C50.9728 11 49.2655 11.7067 48.0064 12.9646C46.7474 14.2226 46.0397 15.9288 46.0391 17.7082ZM46.9314 17.7082C46.9294 16.7838 47.2018 15.8796 47.7142 15.11C48.2265 14.3404 48.9558 13.74 49.8097 13.3849C50.6636 13.0297 51.6037 12.9358 52.511 13.1149C53.4183 13.294 54.2521 13.7382 54.9068 14.3911C55.5614 15.044 56.0076 15.8765 56.1888 16.783C56.3699 17.6895 56.278 18.6293 55.9245 19.4835C55.571 20.3378 54.972 21.068 54.2031 21.5818C53.4343 22.0956 52.5302 22.3698 51.6054 22.3698C50.3675 22.3698 49.1802 21.879 48.3039 21.0051C47.4277 20.1311 46.9341 18.9455 46.9314 17.7082Z" fill="white"/>
<path d="M74.1348 19.2674C74.1348 20.5946 74.5285 21.8921 75.2663 22.9956C76.004 24.0992 77.0526 24.9593 78.2794 25.4673C79.5062 25.9752 80.8562 26.1081 82.1585 25.8491C83.4609 25.5902 84.6572 24.9511 85.5962 24.0126C86.5351 23.074 87.1746 21.8783 87.4336 20.5766C87.6927 19.2748 87.5597 17.9255 87.0516 16.6993C86.5434 15.4731 85.6829 14.425 84.5788 13.6876C83.4747 12.9502 82.1766 12.5566 80.8487 12.5566C79.0681 12.5566 77.3603 13.2637 76.1012 14.5222C74.8421 15.7807 74.1348 17.4876 74.1348 19.2674ZM75.0296 19.2674C75.0296 18.3433 75.3038 17.4399 75.8175 16.6716C76.3312 15.9033 77.0613 15.3045 77.9155 14.951C78.7697 14.5975 79.7096 14.5051 80.6164 14.6856C81.5231 14.866 82.3559 15.3112 83.0095 15.9648C83.663 16.6184 84.108 17.4511 84.2881 18.3575C84.4681 19.2639 84.3752 20.2033 84.021 21.0569C83.6669 21.9105 83.0674 22.64 82.2985 23.153C81.5295 23.666 80.6256 23.9396 79.7011 23.9391C79.0874 23.9391 78.4797 23.8182 77.9128 23.5834C77.3459 23.3486 76.8308 23.0045 76.397 22.5706C75.9631 22.1368 75.6191 21.6217 75.3845 21.055C75.1499 20.4882 75.0293 19.8807 75.0296 19.2674Z" fill="white"/>
<path d="M75.0137 19.1678C75.0137 22.8743 77.8221 25.8785 81.2878 25.8785C84.7534 25.8785 87.5619 22.8768 87.5619 19.1678C87.5619 15.4587 84.7534 12.457 81.2878 12.457C77.8221 12.457 75.0137 15.4612 75.0137 19.1678ZM75.8479 19.1678C75.8479 16.5881 77.8044 14.4985 80.216 14.4985C82.6275 14.4985 84.5815 16.5881 84.5815 19.1678C84.5815 21.7474 82.6275 23.8395 80.216 23.8395C77.8044 23.8395 75.8479 21.7474 75.8479 19.1678Z" fill="white"/>
</g>
<defs>
<clipPath id="clip0_706_23173">
<rect width="182" height="39" fill="white"/>
</clipPath>
</defs>
</svg>
