<svg width="16" height="16" viewBox="0 0 16 16" fill="none" xmlns="http://www.w3.org/2000/svg">
<path d="M8 1.67188C6.74842 1.67188 5.52494 2.04301 4.48428 2.73836C3.44363 3.4337 2.63254 4.42202 2.15358 5.57833C1.67462 6.73464 1.5493 8.00702 1.79347 9.23456C2.03764 10.4621 2.64034 11.5897 3.52534 12.4747C4.41035 13.3597 5.53791 13.9624 6.76545 14.2065C7.99298 14.4507 9.26536 14.3254 10.4217 13.8464C11.578 13.3675 12.5663 12.5564 13.2616 11.5157C13.957 10.4751 14.3281 9.25158 14.3281 8C14.3263 6.32225 13.659 4.71375 12.4726 3.5274C11.2863 2.34104 9.67775 1.67374 8 1.67188ZM8.70313 3.1291C9.19058 3.19915 9.66467 3.34236 10.1094 3.55391V12.4461C9.66467 12.6576 9.19058 12.8008 8.70313 12.8709V3.1291ZM3.07813 8C3.07971 6.81695 3.50675 5.67393 4.28129 4.77967C5.05582 3.8854 6.12617 3.29955 7.29688 3.1291V12.8709C6.12617 12.7004 5.05582 12.1146 4.28129 11.2203C3.50675 10.3261 3.07971 9.18305 3.07813 8ZM11.5156 11.44V4.55996C12.4169 5.47815 12.9219 6.71338 12.9219 8C12.9219 9.28662 12.4169 10.5219 11.5156 11.44Z" fill="#A78BFA"/>
</svg>
