<svg width="20" height="21" viewBox="0 0 20 21" fill="none" xmlns="http://www.w3.org/2000/svg">
<path d="M10.9372 6.74965V9.96918L13.6068 11.5707C13.7147 11.6328 13.8092 11.7158 13.8847 11.8149C13.9603 11.9139 14.0153 12.027 14.0466 12.1475C14.078 12.268 14.085 12.3936 14.0672 12.5169C14.0495 12.6402 14.0074 12.7587 13.9433 12.8655C13.8793 12.9723 13.7946 13.0653 13.6942 13.139C13.5938 13.2127 13.4798 13.2657 13.3587 13.2948C13.2376 13.324 13.1119 13.3287 12.989 13.3087C12.8661 13.2888 12.7484 13.2445 12.6427 13.1786L9.51772 11.3036C9.37884 11.2203 9.26389 11.1025 9.18407 10.9616C9.10425 10.8207 9.06228 10.6616 9.06225 10.4996V6.74965C9.06225 6.50101 9.16102 6.26255 9.33684 6.08673C9.51265 5.91092 9.75111 5.81215 9.99975 5.81215C10.2484 5.81215 10.4868 5.91092 10.6627 6.08673C10.8385 6.26255 10.9372 6.50101 10.9372 6.74965ZM17.4997 4.56215C17.2511 4.56215 17.0127 4.66092 16.8368 4.83673C16.661 5.01255 16.5622 5.25101 16.5622 5.49965V6.07543C16.2333 5.71058 15.8919 5.34808 15.524 4.97543C14.4381 3.8897 13.0564 3.14804 11.5515 2.8431C10.0465 2.53817 8.48507 2.68348 7.06224 3.26089C5.63941 3.8383 4.41828 4.8222 3.55144 6.08965C2.68459 7.3571 2.21047 8.8519 2.18831 10.3873C2.16616 11.9226 2.59695 13.4305 3.42686 14.7224C4.25677 16.0144 5.44899 17.0331 6.85457 17.6513C8.26015 18.2696 9.81674 18.4599 11.3299 18.1985C12.843 17.9371 14.2455 17.2356 15.3622 16.1817C15.5431 16.0109 15.6488 15.7753 15.656 15.5267C15.6631 15.2781 15.5713 15.0368 15.4005 14.8559C15.2298 14.675 14.9942 14.5694 14.7456 14.5622C14.4969 14.555 14.2556 14.6469 14.0747 14.8176C13.2262 15.6184 12.1605 16.1515 11.0107 16.3502C9.86098 16.5489 8.67817 16.4045 7.61004 15.9349C6.54191 15.4653 5.6358 14.6915 5.0049 13.71C4.37399 12.7285 4.04626 11.5828 4.06262 10.4162C4.07899 9.24949 4.43874 8.1135 5.09693 7.15008C5.75512 6.18666 6.68258 5.43851 7.76346 4.9991C8.84434 4.55968 10.0307 4.44847 11.1745 4.67936C12.3182 4.91024 13.3685 5.47299 14.1943 6.2973C14.6568 6.76527 15.0779 7.2184 15.4865 7.68715H14.3747C14.1261 7.68715 13.8877 7.78592 13.7118 7.96173C13.536 8.13755 13.4372 8.37601 13.4372 8.62465C13.4372 8.87329 13.536 9.11174 13.7118 9.28756C13.8877 9.46338 14.1261 9.56215 14.3747 9.56215H17.4997C17.7484 9.56215 17.9868 9.46338 18.1627 9.28756C18.3385 9.11174 18.4372 8.87329 18.4372 8.62465V5.49965C18.4372 5.25101 18.3385 5.01255 18.1627 4.83673C17.9868 4.66092 17.7484 4.56215 17.4997 4.56215Z" fill="#D1D5DB"/>
</svg>
