<svg width="25" height="25" viewBox="0 0 25 25" fill="none" xmlns="http://www.w3.org/2000/svg">
<g clip-path="url(#clip0_741_61110)">
<path d="M7.21994 9.61462L3.75682 12.5002L7.21994 15.3859C7.3348 15.48 7.42988 15.5959 7.49971 15.727C7.56954 15.858 7.61273 16.0016 7.62679 16.1494C7.64086 16.2973 7.62552 16.4464 7.58166 16.5883C7.53781 16.7301 7.4663 16.8619 7.37126 16.976C7.27622 17.0901 7.15953 17.1843 7.02793 17.253C6.89632 17.3218 6.7524 17.3639 6.60447 17.3768C6.45653 17.3896 6.30751 17.3731 6.166 17.3281C6.02448 17.2831 5.89328 17.2106 5.77994 17.1146L1.27994 13.3646C1.1532 13.259 1.05123 13.1269 0.981254 12.9775C0.911275 12.8281 0.875 12.6652 0.875 12.5002C0.875 12.3353 0.911275 12.1724 0.981254 12.023C1.05123 11.8736 1.1532 11.7414 1.27994 11.6359L5.77994 7.88587C6.00951 7.69773 6.30413 7.60794 6.5996 7.63606C6.89508 7.66417 7.16747 7.80792 7.35744 8.03597C7.5474 8.26403 7.63955 8.55792 7.61379 8.85361C7.58804 9.1493 7.44648 9.42284 7.21994 9.61462ZM23.7199 11.6359L19.2199 7.88587C19.1066 7.78992 18.9754 7.71736 18.8339 7.67237C18.6924 7.62738 18.5434 7.61085 18.3954 7.62373C18.2475 7.63662 18.1036 7.67866 17.972 7.74744C17.8404 7.81622 17.7237 7.91037 17.6286 8.02447C17.5336 8.13856 17.4621 8.27034 17.4182 8.41221C17.3744 8.55408 17.359 8.70323 17.3731 8.85106C17.3872 8.99888 17.4304 9.14246 17.5002 9.27351C17.57 9.40456 17.6651 9.52049 17.7799 9.61462L21.2431 12.5002L17.7799 15.3859C17.6651 15.48 17.57 15.5959 17.5002 15.727C17.4304 15.858 17.3872 16.0016 17.3731 16.1494C17.359 16.2973 17.3744 16.4464 17.4182 16.5883C17.4621 16.7301 17.5336 16.8619 17.6286 16.976C17.7237 17.0901 17.8404 17.1843 17.972 17.253C18.1036 17.3218 18.2475 17.3639 18.3954 17.3768C18.5434 17.3896 18.6924 17.3731 18.8339 17.3281C18.9754 17.2831 19.1066 17.2106 19.2199 17.1146L23.7199 13.3646C23.8467 13.259 23.9487 13.1269 24.0186 12.9775C24.0886 12.8281 24.1249 12.6652 24.1249 12.5002C24.1249 12.3353 24.0886 12.1724 24.0186 12.023C23.9487 11.8736 23.8467 11.7414 23.7199 11.6359ZM15.8843 3.19274C15.7455 3.14224 15.598 3.11959 15.4504 3.12609C15.3027 3.13259 15.1578 3.1681 15.0239 3.23061C14.89 3.29312 14.7698 3.38139 14.67 3.49039C14.5702 3.59939 14.4929 3.72698 14.4424 3.86587L8.44244 20.3659C8.34074 20.6462 8.35451 20.9555 8.48073 21.2257C8.60696 21.4959 8.8353 21.7049 9.11557 21.8068C9.23862 21.8522 9.36877 21.8754 9.49994 21.8752C9.73092 21.8753 9.95632 21.8042 10.1455 21.6717C10.3347 21.5392 10.4785 21.3517 10.5574 21.1346L16.5574 4.63462C16.6079 4.49575 16.6306 4.34829 16.6241 4.20066C16.6176 4.05303 16.5821 3.90813 16.5196 3.77424C16.4571 3.64034 16.3688 3.52007 16.2598 3.4203C16.1508 3.32052 16.0232 3.2432 15.8843 3.19274Z" fill="white"/>
</g>
<defs>
<clipPath id="clip0_741_61110">
<rect width="24" height="24" fill="white" transform="translate(0.5 0.5)"/>
</clipPath>
</defs>
</svg>
