<svg width="21" height="21" viewBox="0 0 21 21" fill="none" xmlns="http://www.w3.org/2000/svg">
<path d="M16.2891 7.60344H8.01805C7.79059 7.60344 7.60449 7.41734 7.60449 7.18988V6.36277C7.60449 6.13532 7.79059 5.94922 8.01805 5.94922H16.2891C16.5166 5.94922 16.7027 6.13532 16.7027 6.36277V7.18988C16.7027 7.41734 16.5166 7.60344 16.2891 7.60344Z" fill="white"/>
<path d="M16.2891 11.3261H8.01805C7.79059 11.3261 7.60449 11.14 7.60449 10.9125V10.0854C7.60449 9.85797 7.79059 9.67188 8.01805 9.67188H16.2891C16.5166 9.67188 16.7027 9.85797 16.7027 10.0854V10.9125C16.7027 11.14 16.5166 11.3261 16.2891 11.3261Z" fill="white"/>
<path d="M5.53656 11.3261H4.70945C4.482 11.3261 4.2959 11.14 4.2959 10.9125V10.0854C4.2959 9.85797 4.482 9.67188 4.70945 9.67188H5.53656C5.76402 9.67188 5.95012 9.85797 5.95012 10.0854V10.9125C5.95012 11.14 5.76402 11.3261 5.53656 11.3261Z" fill="white"/>
<path d="M5.53656 7.60344H4.70945C4.482 7.60344 4.2959 7.41734 4.2959 7.18988V6.36277C4.2959 6.13532 4.482 5.94922 4.70945 5.94922H5.53656C5.76402 5.94922 5.95012 6.13532 5.95012 6.36277V7.18988C5.95012 7.41734 5.76402 7.60344 5.53656 7.60344Z" fill="white"/>
<path d="M5.53656 15.0488H4.70945C4.482 15.0488 4.2959 14.8627 4.2959 14.6352V13.8081C4.2959 13.5806 4.482 13.3945 4.70945 13.3945H5.53656C5.76402 13.3945 5.95012 13.5806 5.95012 13.8081V14.6352C5.95012 14.8627 5.76402 15.0488 5.53656 15.0488Z" fill="white"/>
<path d="M16.2891 15.0488H8.01805C7.79059 15.0488 7.60449 14.8627 7.60449 14.6352V13.8081C7.60449 13.5806 7.79059 13.3945 8.01805 13.3945H16.2891C16.5166 13.3945 16.7027 13.5806 16.7027 13.8081V14.6352C16.7027 14.8627 16.5166 15.0488 16.2891 15.0488Z" fill="white"/>
</svg>
