<svg width="18" height="18" viewBox="0 0 18 18" fill="none" xmlns="http://www.w3.org/2000/svg">
<path d="M7.34689 2.77783L12.9719 8.40283C13.0506 8.48122 13.113 8.57436 13.1556 8.67692C13.1981 8.77948 13.2201 8.88944 13.2201 9.00049C13.2201 9.11154 13.1981 9.2215 13.1556 9.32406C13.113 9.42661 13.0506 9.51976 12.9719 9.59815L7.34689 15.2231C7.18838 15.3817 6.9734 15.4707 6.74924 15.4707C6.52507 15.4707 6.31009 15.3817 6.15158 15.2231C5.99307 15.0646 5.90402 14.8497 5.90402 14.6255C5.90402 14.4013 5.99307 14.1863 6.15158 14.0278L11.1796 8.99979L6.15088 3.97174C5.99237 3.81323 5.90332 3.59825 5.90332 3.37408C5.90332 3.14992 5.99237 2.93494 6.15088 2.77643C6.30939 2.61792 6.52437 2.52887 6.74853 2.52887C6.9727 2.52887 7.18768 2.61792 7.34619 2.77643L7.34689 2.77783Z" fill="#5D6076"/>
</svg>
