<svg width="18" height="18" viewBox="0 0 18 18" fill="none" xmlns="http://www.w3.org/2000/svg">
<path d="M16.5938 9C16.5938 9.22378 16.5049 9.43839 16.3466 9.59662C16.1884 9.75485 15.9738 9.84375 15.75 9.84375H7.66406L11.2866 13.4655C11.4451 13.6241 11.5341 13.839 11.5341 14.0632C11.5341 14.2874 11.4451 14.5024 11.2866 14.6609C11.1281 14.8194 10.9131 14.9084 10.6889 14.9084C10.4647 14.9084 10.2498 14.8194 10.0913 14.6609L5.02875 9.59836C4.95009 9.51997 4.88768 9.42683 4.84509 9.32427C4.80251 9.22171 4.78058 9.11175 4.78058 9.0007C4.78058 8.88965 4.80251 8.7797 4.84509 8.67714C4.88768 8.57458 4.95009 8.48143 5.02875 8.40305L10.0913 3.34055C10.1697 3.26206 10.2629 3.1998 10.3655 3.15733C10.468 3.11485 10.5779 3.09299 10.6889 3.09299C10.7999 3.09299 10.9098 3.11485 11.0124 3.15733C11.1149 3.1998 11.2081 3.26206 11.2866 3.34055C11.365 3.41903 11.4273 3.51221 11.4698 3.61475C11.5123 3.7173 11.5341 3.82721 11.5341 3.9382C11.5341 4.0492 11.5123 4.15911 11.4698 4.26165C11.4273 4.3642 11.365 4.45737 11.2866 4.53586L7.66406 8.15625H15.75C15.9738 8.15625 16.1884 8.24514 16.3466 8.40338C16.5049 8.56161 16.5938 8.77622 16.5938 9ZM2.8125 1.96875C2.58872 1.96875 2.37411 2.05764 2.21588 2.21588C2.05764 2.37411 1.96875 2.58872 1.96875 2.8125V15.1875C1.96875 15.4113 2.05764 15.6259 2.21588 15.7841C2.37411 15.9424 2.58872 16.0312 2.8125 16.0312C3.03628 16.0312 3.25089 15.9424 3.40912 15.7841C3.56736 15.6259 3.65625 15.4113 3.65625 15.1875V2.8125C3.65625 2.58872 3.56736 2.37411 3.40912 2.21588C3.25089 2.05764 3.03628 1.96875 2.8125 1.96875Z" fill="#5D6076"/>
</svg>
