<svg width="24" height="24" viewBox="0 0 24 24" fill="none" xmlns="http://www.w3.org/2000/svg">
<path fill-rule="evenodd" clip-rule="evenodd" d="M12 6.00045C11.5404 6.00045 11.0852 6.09098 10.6606 6.26687C10.236 6.44277 9.85013 6.70057 9.52513 7.02558C9.20012 7.35058 8.94231 7.73642 8.76642 8.16106C8.59053 8.5857 8.5 9.04083 8.5 9.50045C8.5 9.96008 8.59053 10.4152 8.76642 10.8398C8.94231 11.2645 9.20012 11.6503 9.52513 11.9753C9.85013 12.3003 10.236 12.5581 10.6606 12.734C11.0852 12.9099 11.5404 13.0005 12 13.0005C12.9283 13.0005 13.8185 12.6317 14.4749 11.9753C15.1313 11.319 15.5 10.4287 15.5 9.50045C15.5 8.5722 15.1313 7.68196 14.4749 7.02558C13.8185 6.3692 12.9283 6.00045 12 6.00045ZM10.5 14.0005C9.43913 14.0005 8.42172 14.4219 7.67157 15.172C6.92143 15.9222 6.5 16.9396 6.5 18.0005C6.5 19.1005 7.4 20.0005 8.5 20.0005H15.5C16.0304 20.0005 16.5391 19.7897 16.9142 19.4147C17.2893 19.0396 17.5 18.5309 17.5 18.0005C17.5 16.9396 17.0786 15.9222 16.3284 15.172C15.5783 14.4219 14.5609 14.0005 13.5 14.0005H10.5ZM17.3 10.9005C17.6213 9.68847 17.5188 8.40308 17.0096 7.25729C16.5004 6.11151 15.6149 5.17411 14.5 4.60045C15.1 4.20045 15.8 4.00045 16.5 4.00045C17.3532 4.0078 18.1744 4.32658 18.8091 4.89686C19.4438 5.46714 19.8483 6.24964 19.9466 7.09723C20.0448 7.94481 19.8301 8.79911 19.3427 9.49949C18.8554 10.1999 18.1289 10.6981 17.3 10.9005ZM19.5 18.0005H20C20.5304 18.0005 21.0391 17.7897 21.4142 17.4147C21.7893 17.0396 22 16.5309 22 16.0005C22 14.9396 21.5786 13.9222 20.8284 13.172C20.0783 12.4219 19.0609 12.0005 18 12.0005H16.9L16.4 12.8005C18.3 13.8005 19.5 15.8005 19.5 18.0005ZM4 7.50045C3.9949 6.85859 4.16641 6.22768 4.49578 5.67674C4.82514 5.1258 5.29967 4.67605 5.86746 4.37667C6.43525 4.07728 7.07443 3.93981 7.7151 3.97928C8.35577 4.01875 8.97325 4.23364 9.5 4.60045C8.36423 5.17781 7.46414 6.13157 6.95346 7.29884C6.44278 8.46611 6.35319 9.77447 6.7 11.0005C5.91602 10.8167 5.21938 10.3682 4.72754 9.73063C4.2357 9.09307 3.97875 8.30541 4 7.50045ZM7.1 12.0005H6C4.93913 12.0005 3.92172 12.4219 3.17157 13.172C2.42143 13.9222 2 14.9396 2 16.0005C2 17.1005 2.9 18.0005 4 18.0005H4.5C4.49932 16.9466 4.77624 15.9111 5.30289 14.9983C5.82953 14.0854 6.58732 13.3274 7.5 12.8005L7.1 12.0005Z" fill="#5D6076"/>
</svg>
