<svg width="182" height="39" viewBox="0 0 182 39" fill="none" xmlns="http://www.w3.org/2000/svg">
<g clip-path="url(#clip0_609_52169)">
<path d="M2.90491 6.0358C2.90491 6.0358 8.74421 -0.139281 15.9915 0.568175C23.2388 1.27563 26.9699 6.45269 26.9699 6.45269" stroke="#EA5A00" stroke-width="2.06026" stroke-miterlimit="10" stroke-linecap="round"/>
<path d="M0.882884 18.7931C0.882884 18.7931 0.58207 10.6447 8.08216 5.83398" stroke="#EA5A00" stroke-width="2.06026" stroke-miterlimit="10" stroke-linecap="round"/>
<path d="M11.6665 4.56597C11.6665 4.56597 27.7739 2.292 29.2855 18.5231" stroke="#EA5A00" stroke-width="2.06026" stroke-miterlimit="10" stroke-linecap="round"/>
<path d="M1.69934 26.8417C1.69934 26.8417 4.18168 24.209 4.97036 16.5659C5.78685 8.67019 15.9943 3.96056 23.0924 11.4899" stroke="#EA5A00" stroke-width="2.06026" stroke-miterlimit="10" stroke-linecap="round"/>
<path d="M4.06494 30.7911C5.44124 29.325 6.5073 27.5964 7.19923 25.7087C7.89117 23.821 8.19475 21.8131 8.09179 19.8053C7.74042 12.9708 12.7228 10.6185 16.0949 11.4902C19.4671 12.3619 21.5828 14.2846 21.8837 17.8219C22.1845 21.3592 21.5323 28.6536 24.8539 33.3127" stroke="#EA5A00" stroke-width="2.06026" stroke-miterlimit="10" stroke-linecap="round"/>
<path d="M24.604 15.1484C24.604 15.1484 25.2082 17.5538 25.2082 22.319C25.2082 26.8417 26.9776 29.0702 26.9776 29.0702" stroke="#EA5A00" stroke-width="2.06026" stroke-miterlimit="10" stroke-linecap="round"/>
<path d="M5.17969 33.5741C5.17969 33.5741 10.7662 28.5208 10.7662 22.3179C10.7662 15.6527 15.0206 13.4015 17.01 15.4C19.8791 18.2855 17.6647 31.8029 11.6737 38.1801" stroke="#EA5A00" stroke-width="2.06026" stroke-miterlimit="10" stroke-linecap="round"/>
<path d="M14.9377 19.7539C14.9377 19.7539 15.9943 27.5511 9.14893 36.1568" stroke="#EA5A00" stroke-width="2.06026" stroke-miterlimit="10" stroke-linecap="round"/>
<path d="M21.4819 36.4095L19.8211 31.5508L16.0951 38.4864" stroke="#EA5A00" stroke-width="2.06026" stroke-miterlimit="10" stroke-linecap="round"/>
<path d="M65.777 12.19C64.6597 13.3902 63.6486 14.4842 63.5273 14.6055C63.3326 14.8025 63.4236 14.8329 64.3741 14.8783L65.4307 14.9238L65.5066 19.1281C65.5824 22.8953 65.6127 23.4108 65.8832 24.0172C66.7882 26.0688 69.4222 26.8116 71.8767 25.6873L72.5719 25.3841V22.9863L71.7857 23.3779C71.2326 23.681 70.6055 23.8228 69.9758 23.7872C68.0723 23.7872 67.8473 23.1808 67.9206 18.2463L67.9661 14.9819L69.9758 14.9365L71.9677 14.891V12.6448L69.9758 12.5993L67.9661 12.5538L67.8903 11.2779L67.817 10.002L65.777 12.19Z" fill="white"/>
<path d="M138.321 10.6896C138.017 11.0559 137.006 12.1323 136.071 13.0898L134.395 14.8357L135.528 14.9116L136.66 14.9873L136.736 19.3155C136.827 24.2045 136.857 24.3687 138 25.296C138.905 26.0262 139.516 26.2233 140.806 26.1929C141.502 26.2235 142.195 26.0875 142.828 25.7963L143.687 25.4021V22.9892L142.896 23.3808C142.347 23.6822 141.724 23.824 141.099 23.7901C139.211 23.7901 139.031 23.2848 139.12 18.3553L139.18 14.909H143.076V12.6351L141.084 12.5896L139.077 12.5441V11.2808C139.077 10.5961 139.031 10.0352 138.986 10.0352C138.734 10.2209 138.51 10.4412 138.321 10.6896Z" fill="white"/>
<path d="M94.6908 12.5277C93.9386 12.8194 93.247 13.2477 92.6508 13.7911L92.1225 14.309L92.077 13.4727L92.0315 12.6389H89.6326V25.9997H92.0466V16.156L92.6963 15.5925C93.9602 14.4707 95.1281 14.2433 96.2909 14.8346C97.2717 15.3399 97.4815 16.5653 97.4815 22.0001V25.9947H99.8981V16.2621L100.593 15.5925C102.027 14.1978 104.079 14.3292 104.835 15.8679C105.242 16.6866 105.318 17.6366 105.341 22.2275V25.9947H107.772L107.727 21.0147C107.681 16.2318 107.666 16.0196 107.32 15.1378C106.85 13.9376 105.702 12.7703 104.691 12.4949C103.174 12.0704 101.657 12.5732 100.209 13.9679C99.754 14.4101 99.3622 14.6981 99.3319 14.6223C99.1685 14.3421 98.9869 14.0729 98.7884 13.8163C97.8455 12.5884 96.0027 12.0098 94.6908 12.5277Z" fill="white"/>
<path d="M114.587 12.6177C112.021 13.497 110.631 15.8189 110.616 19.1869C110.616 22.2669 111.854 24.5914 114.089 25.6677C114.799 26.0038 115.161 26.0796 116.536 26.1099C118.376 26.1705 119.36 25.9583 120.778 25.1826L121.637 24.6975V23.4342C121.637 22.4614 121.592 22.2037 121.458 22.2795C121.324 22.3553 121.02 22.5322 120.732 22.7217C119.6 23.4039 118.755 23.6313 117.259 23.6313C115.54 23.6313 114.984 23.419 114.104 22.3856C113.5 21.7186 113.032 20.5639 113.032 19.8059V19.4573H121.789V18.7119C121.789 17.0115 121.124 15.0988 120.113 13.9442C118.889 12.5267 116.521 11.9481 114.587 12.6177ZM118.03 15.1443C118.68 15.5688 119.162 16.4076 119.314 17.3299L119.418 17.9539H113.032L113.123 17.5295C113.439 16.1929 114.45 15.023 115.494 14.7502C116.358 14.5576 117.263 14.6956 118.03 15.1367V15.1443Z" fill="white"/>
<path d="M122.393 12.6941C122.393 12.7244 122.666 13.3611 123.013 14.1039C123.359 14.8468 123.771 15.7437 123.933 16.1252C124.095 16.5068 124.613 17.5831 125.05 18.5382C125.487 19.4932 125.867 20.2841 125.867 20.3068C125.867 20.3295 126.137 20.946 126.471 21.6585C126.713 22.1418 126.915 22.6447 127.072 23.1619C127.072 23.3438 126.258 25.2868 125.384 27.2045C125.217 27.586 124.78 28.5714 124.431 29.4077C124.082 30.244 123.602 31.3204 123.389 31.7903C123.243 32.0975 123.112 32.4121 122.997 32.7328C122.997 32.7782 123.602 32.8237 124.325 32.8237H125.669L126.092 31.8661C126.319 31.3608 126.741 30.3779 127.029 29.7261C127.558 28.4804 127.616 28.3288 128.417 26.5526C128.67 25.9765 128.885 25.4889 128.885 25.4586C128.885 25.4283 129.097 24.9533 129.352 24.3671C129.858 23.2124 130.032 22.8334 130.616 21.512C130.829 21.0067 131.069 20.4634 131.145 20.2967C131.221 20.1299 131.445 19.6145 131.65 19.1572C132.421 17.4113 132.692 16.7897 132.889 16.3501C133.508 14.968 133.839 14.1949 133.915 13.9953C133.961 13.874 134.097 13.5102 134.231 13.1918L134.484 12.6309H131.825L131.357 13.6416C130.753 14.9933 130.374 15.8271 129.891 16.9818C129.681 17.5149 129.332 18.288 129.133 18.7277C128.933 19.1673 128.738 19.6701 128.68 19.8368L128.574 20.14L128.392 19.8368C128.301 19.6701 127.833 18.6822 127.366 17.6361C126.898 16.5901 126.415 15.4936 126.279 15.2055C126.142 14.9175 125.841 14.2201 125.583 13.6416L125.131 12.6309H123.771C123.311 12.6135 122.85 12.6346 122.393 12.6941Z" fill="white"/>
<path d="M158.584 6.80859H156.36L148.486 25.6294H151.165L153.62 20.0709H161.709L164.163 25.6294H167.017L158.584 6.80859ZM154.793 17.6731L157.588 10.6415L160.784 17.6731H154.793Z" fill="white"/>
<path d="M171.936 6.66406H169.168V25.7729H171.936V6.66406Z" fill="white"/>
<path d="M49.9554 6.17188C47.6206 6.17187 45.3382 6.86389 43.3969 8.16042C41.4556 9.45695 39.9425 11.2998 39.049 13.4558C38.1555 15.6119 37.9217 17.9843 38.3772 20.2732C38.8327 22.562 39.957 24.6644 41.608 26.3146C43.259 27.9648 45.3624 29.0886 47.6524 29.5439C49.9423 29.9991 52.3159 29.7655 54.473 28.8724C56.63 27.9793 58.4737 26.467 59.7709 24.5266C61.068 22.5862 61.7604 20.3049 61.7604 17.9712C61.7604 14.8418 60.5167 11.8406 58.3028 9.62782C56.0889 7.41501 53.0863 6.17188 49.9554 6.17188ZM51.9777 26.1828C50.3528 26.1828 48.7644 25.7012 47.4134 24.7989C46.0624 23.8966 45.0094 22.6141 44.3876 21.1136C43.7657 19.6132 43.6031 17.9621 43.9201 16.3692C44.237 14.7763 45.0195 13.3132 46.1684 12.1648C47.3174 11.0164 48.7813 10.2343 50.3749 9.91746C51.9685 9.60062 53.6204 9.76323 55.1216 10.3847C56.6228 11.0063 57.9058 12.0588 58.8086 13.4091C59.7113 14.7595 60.1931 16.3471 60.1931 17.9712C60.1931 19.05 59.9805 20.1182 59.5673 21.1148C59.1541 22.1114 58.5485 23.0169 57.7851 23.7794C57.0217 24.542 56.1154 25.1468 55.1181 25.5591C54.1207 25.9715 53.0519 26.1834 51.9726 26.1828H51.9777Z" fill="white"/>
<path d="M46.0396 17.7082C46.0391 19.0356 46.4324 20.3333 47.1698 21.4372C47.9073 22.5411 48.9557 23.4016 50.1824 23.9099C51.4092 24.4182 52.7592 24.5515 54.0618 24.2928C55.3643 24.0342 56.5608 23.3952 57.5001 22.4568C58.4393 21.5184 59.079 20.3227 59.3382 19.0208C59.5975 17.719 59.4647 16.3696 58.9566 15.1432C58.4485 13.9168 57.588 12.8686 56.4838 12.1311C55.3796 11.3936 54.0815 11 52.7535 11C50.9733 11 49.2659 11.7067 48.0069 12.9646C46.7479 14.2226 46.0402 15.9288 46.0396 17.7082ZM46.9319 17.7082C46.9299 16.7838 47.2023 15.8796 47.7147 15.11C48.227 14.3404 48.9563 13.74 49.8102 13.3849C50.6641 13.0297 51.6042 12.9358 52.5115 13.1149C53.4188 13.294 54.2526 13.7382 54.9072 14.3911C55.5619 15.044 56.0081 15.8765 56.1893 16.783C56.3704 17.6895 56.2785 18.6293 55.925 19.4835C55.5715 20.3378 54.9725 21.068 54.2036 21.5818C53.4348 22.0956 52.5307 22.3698 51.6058 22.3698C50.368 22.3698 49.1807 21.879 48.3044 21.0051C47.4282 20.1311 46.9346 18.9455 46.9319 17.7082Z" fill="white"/>
<path d="M74.1343 19.2674C74.1343 20.5946 74.528 21.8921 75.2658 22.9956C76.0035 24.0992 77.0521 24.9593 78.2789 25.4673C79.5057 25.9752 80.8557 26.1081 82.158 25.8491C83.4604 25.5902 84.6567 24.9511 85.5957 24.0126C86.5346 23.074 87.1741 21.8783 87.4331 20.5766C87.6922 19.2748 87.5592 17.9255 87.0511 16.6993C86.5429 15.4731 85.6824 14.425 84.5783 13.6876C83.4742 12.9502 82.1761 12.5566 80.8482 12.5566C79.0676 12.5566 77.3599 13.2637 76.1007 14.5222C74.8416 15.7807 74.1343 17.4876 74.1343 19.2674ZM75.0291 19.2674C75.0291 18.3433 75.3033 17.4399 75.817 16.6716C76.3307 15.9033 77.0608 15.3045 77.915 14.951C78.7692 14.5975 79.7091 14.5051 80.6159 14.6856C81.5226 14.866 82.3554 15.3112 83.009 15.9648C83.6626 16.6184 84.1075 17.4511 84.2876 18.3575C84.4676 19.2639 84.3747 20.2033 84.0206 21.0569C83.6664 21.9105 83.0669 22.64 82.298 23.153C81.529 23.666 80.6251 23.9396 79.7006 23.9391C79.0869 23.9391 78.4792 23.8182 77.9123 23.5834C77.3454 23.3486 76.8303 23.0045 76.3965 22.5706C75.9627 22.1368 75.6186 21.6217 75.384 21.055C75.1494 20.4882 75.0288 19.8807 75.0291 19.2674Z" fill="white"/>
<path d="M75.014 19.1678C75.014 22.8743 77.8225 25.8785 81.2881 25.8785C84.7538 25.8785 87.5622 22.8768 87.5622 19.1678C87.5622 15.4587 84.7538 12.457 81.2881 12.457C77.8225 12.457 75.014 15.4612 75.014 19.1678ZM75.8482 19.1678C75.8482 16.5881 77.8048 14.4985 80.2163 14.4985C82.6279 14.4985 84.5819 16.5881 84.5819 19.1678C84.5819 21.7474 82.6279 23.8395 80.2163 23.8395C77.8048 23.8395 75.8482 21.7474 75.8482 19.1678Z" fill="white"/>
</g>
<defs>
<clipPath id="clip0_609_52169">
<rect width="182" height="39" fill="white"/>
</clipPath>
</defs>
</svg>
