<svg width="20" height="19" viewBox="0 0 20 19" fill="none" xmlns="http://www.w3.org/2000/svg">
<path d="M0.5 9.375C0.5 9.67337 0.618526 9.95952 0.829506 10.1705C1.04048 10.3815 1.32663 10.5 1.625 10.5H12.4062L7.57625 15.3291C7.36491 15.5404 7.24617 15.8271 7.24617 16.1259C7.24617 16.4248 7.36491 16.7115 7.57625 16.9228C7.78759 17.1342 8.07424 17.2529 8.37313 17.2529C8.67201 17.2529 8.95866 17.1342 9.17 16.9228L15.92 10.1728C16.0249 10.0683 16.1081 9.9441 16.1649 9.80736C16.2217 9.67061 16.2509 9.524 16.2509 9.37594C16.2509 9.22787 16.2217 9.08126 16.1649 8.94452C16.1081 8.80777 16.0249 8.68358 15.92 8.57906L9.17 1.82906C9.06535 1.72442 8.94112 1.6414 8.80439 1.58477C8.66766 1.52814 8.52112 1.49899 8.37313 1.49899C8.22513 1.49899 8.07859 1.52814 7.94186 1.58477C7.80513 1.6414 7.6809 1.72442 7.57625 1.82906C7.4716 1.93371 7.38859 2.05794 7.33196 2.19467C7.27532 2.3314 7.24617 2.47794 7.24617 2.62594C7.24617 2.77393 7.27532 2.92048 7.33196 3.0572C7.38859 3.19393 7.4716 3.31817 7.57625 3.42281L12.4062 8.25H1.625C1.32663 8.25 1.04048 8.36853 0.829506 8.5795C0.618526 8.79048 0.5 9.07663 0.5 9.375ZM18.875 0C19.1734 0 19.4595 0.118526 19.6705 0.329505C19.8815 0.540483 20 0.826631 20 1.125V17.625C20 17.9234 19.8815 18.2095 19.6705 18.4205C19.4595 18.6315 19.1734 18.75 18.875 18.75C18.5766 18.75 18.2905 18.6315 18.0795 18.4205C17.8685 18.2095 17.75 17.9234 17.75 17.625V1.125C17.75 0.826631 17.8685 0.540483 18.0795 0.329505C18.2905 0.118526 18.5766 0 18.875 0Z" fill="#5D6076"/>
</svg>
