<svg width="24" height="25" viewBox="0 0 24 25" fill="none" xmlns="http://www.w3.org/2000/svg">
<g clip-path="url(#clip0_1521_12404)">
<path d="M12 4.625C10.22 4.625 8.47991 5.15284 6.99987 6.14177C5.51983 7.13071 4.36628 8.53631 3.68509 10.1809C3.0039 11.8254 2.82567 13.635 3.17294 15.3808C3.5202 17.1266 4.37737 18.7303 5.63604 19.989C6.89472 21.2476 8.49836 22.1048 10.2442 22.4521C11.99 22.7993 13.7996 22.6211 15.4442 21.9399C17.0887 21.2587 18.4943 20.1052 19.4832 18.6251C20.4722 17.1451 21 15.405 21 13.625C20.9973 11.2389 20.0482 8.95129 18.361 7.26405C16.6737 5.57682 14.3861 4.62773 12 4.625ZM12 20.375C10.665 20.375 9.35994 19.9791 8.2499 19.2374C7.13987 18.4957 6.27471 17.4415 5.76382 16.2081C5.25293 14.9747 5.11925 13.6175 5.3797 12.3081C5.64015 10.9988 6.28303 9.79603 7.22703 8.85203C8.17104 7.90803 9.37377 7.26515 10.6831 7.0047C11.9925 6.74425 13.3497 6.87792 14.5831 7.38881C15.8165 7.89971 16.8707 8.76487 17.6124 9.8749C18.3541 10.9849 18.75 12.29 18.75 13.625C18.748 15.4146 18.0362 17.1303 16.7708 18.3958C15.5053 19.6612 13.7896 20.373 12 20.375ZM15.4209 9.82906C15.5258 9.93358 15.609 10.0578 15.6658 10.1945C15.7226 10.3313 15.7518 10.4779 15.7518 10.6259C15.7518 10.774 15.7226 10.9206 15.6658 11.0574C15.609 11.1941 15.5258 11.3183 15.4209 11.4228L12.7959 14.0478C12.5846 14.2592 12.298 14.3779 11.9991 14.3779C11.7002 14.3779 11.4135 14.2592 11.2022 14.0478C10.9908 13.8365 10.8721 13.5498 10.8721 13.2509C10.8721 12.9521 10.9908 12.6654 11.2022 12.4541L13.8272 9.82906C13.9317 9.72418 14.0559 9.64097 14.1926 9.58419C14.3294 9.5274 14.476 9.49818 14.6241 9.49818C14.7721 9.49818 14.9187 9.5274 15.0555 9.58419C15.1922 9.64097 15.3164 9.72418 15.4209 9.82906ZM8.625 2C8.625 1.70163 8.74353 1.41548 8.95451 1.2045C9.16549 0.993526 9.45164 0.875 9.75 0.875H14.25C14.5484 0.875 14.8345 0.993526 15.0455 1.2045C15.2565 1.41548 15.375 1.70163 15.375 2C15.375 2.29837 15.2565 2.58452 15.0455 2.7955C14.8345 3.00647 14.5484 3.125 14.25 3.125H9.75C9.45164 3.125 9.16549 3.00647 8.95451 2.7955C8.74353 2.58452 8.625 2.29837 8.625 2Z" fill="white"/>
</g>
<defs>
<clipPath id="clip0_1521_12404">
<rect width="24" height="24" fill="white" transform="translate(0 0.5)"/>
</clipPath>
</defs>
</svg>
