<svg width="30" height="30" viewBox="0 0 30 30" fill="none" xmlns="http://www.w3.org/2000/svg">
<path d="M16.0676 17.8348C15.9356 17.6808 15.7718 17.5572 15.5875 17.4725C15.4032 17.3877 15.2028 17.3438 15 17.3438C14.7972 17.3438 14.5968 17.3877 14.4125 17.4725C14.2282 17.5572 14.0644 17.6808 13.9324 17.8348L8.30742 24.3973C8.13239 24.6015 8.01957 24.8515 7.98236 25.1179C7.94514 25.3843 7.98508 25.6557 8.09745 25.9C8.20981 26.1444 8.38989 26.3514 8.61632 26.4965C8.84276 26.6416 9.10606 26.7187 9.375 26.7188H20.625C20.8939 26.7187 21.1572 26.6416 21.3837 26.4965C21.6101 26.3514 21.7902 26.1444 21.9026 25.9C22.0149 25.6557 22.0549 25.3843 22.0176 25.1179C21.9804 24.8515 21.8676 24.6015 21.6926 24.3973L16.0676 17.8348ZM12.4348 23.9062L15 20.9109L17.5676 23.9062H12.4348ZM27.6562 7.5V20.625C27.6562 21.0559 27.5714 21.4826 27.4065 21.8807C27.2416 22.2788 26.9999 22.6405 26.6952 22.9452C26.3905 23.2499 26.0288 23.4916 25.6307 23.6565C25.2326 23.8214 24.8059 23.9062 24.375 23.9062H23.9062C23.5333 23.9062 23.1756 23.7581 22.9119 23.4944C22.6482 23.2306 22.5 22.873 22.5 22.5C22.5 22.127 22.6482 21.7694 22.9119 21.5056C23.1756 21.2419 23.5333 21.0938 23.9062 21.0938H24.375C24.4993 21.0938 24.6185 21.0444 24.7065 20.9565C24.7944 20.8685 24.8438 20.7493 24.8438 20.625V7.5C24.8438 7.37568 24.7944 7.25645 24.7065 7.16854C24.6185 7.08064 24.4993 7.03125 24.375 7.03125H5.625C5.50068 7.03125 5.38145 7.08064 5.29354 7.16854C5.20564 7.25645 5.15625 7.37568 5.15625 7.5V20.625C5.15625 20.7493 5.20564 20.8685 5.29354 20.9565C5.38145 21.0444 5.50068 21.0938 5.625 21.0938H6.09375C6.46671 21.0938 6.8244 21.2419 7.08812 21.5056C7.35184 21.7694 7.5 22.127 7.5 22.5C7.5 22.873 7.35184 23.2306 7.08812 23.4944C6.8244 23.7581 6.46671 23.9062 6.09375 23.9062H5.625C4.75476 23.9062 3.92016 23.5605 3.30481 22.9452C2.68945 22.3298 2.34375 21.4952 2.34375 20.625V7.5C2.34375 6.62976 2.68945 5.79516 3.30481 5.17981C3.92016 4.56445 4.75476 4.21875 5.625 4.21875H24.375C24.8059 4.21875 25.2326 4.30362 25.6307 4.46852C26.0288 4.63342 26.3905 4.87511 26.6952 5.17981C26.9999 5.4845 27.2416 5.84622 27.4065 6.24432C27.5714 6.64242 27.6562 7.0691 27.6562 7.5Z" fill="#2563EB"/>
</svg>
