<svg width="47" height="48" viewBox="0 0 47 48" fill="none" xmlns="http://www.w3.org/2000/svg">
<mask id="mask0_783_44071" style="mask-type:alpha" maskUnits="userSpaceOnUse" x="0" y="0" width="47" height="48">
<rect x="0.25" y="0.75" width="46.5" height="46.5" fill="#D9D9D9"/>
</mask>
<g mask="url(#mask0_783_44071)">
<path d="M20.7875 32.9125L34.4469 19.2531L31.7344 16.5406L20.7875 27.4875L15.2656 21.9656L12.5531 24.6781L20.7875 32.9125ZM23.5 43.375C20.8198 43.375 18.301 42.8661 15.9438 41.8483C13.5865 40.8317 11.5359 39.4516 9.79219 37.7078C8.04844 35.9641 6.66829 33.9135 5.65175 31.5562C4.63392 29.199 4.125 26.6802 4.125 24C4.125 21.3198 4.63392 18.801 5.65175 16.4438C6.66829 14.0865 8.04844 12.0359 9.79219 10.2922C11.5359 8.54844 13.5865 7.16765 15.9438 6.14981C18.301 5.13327 20.8198 4.625 23.5 4.625C26.1802 4.625 28.699 5.13327 31.0562 6.14981C33.4135 7.16765 35.4641 8.54844 37.2078 10.2922C38.9516 12.0359 40.3317 14.0865 41.3483 16.4438C42.3661 18.801 42.875 21.3198 42.875 24C42.875 26.6802 42.3661 29.199 41.3483 31.5562C40.3317 33.9135 38.9516 35.9641 37.2078 37.7078C35.4641 39.4516 33.4135 40.8317 31.0562 41.8483C28.699 42.8661 26.1802 43.375 23.5 43.375Z" fill="#00DF80"/>
</g>
</svg>
