<svg width="18" height="17" viewBox="0 0 18 17" fill="none" xmlns="http://www.w3.org/2000/svg">
<path d="M17.4375 9.20308C17.2996 10.8063 16.7066 12.3367 15.7285 13.6143C14.7503 14.892 13.4276 15.8637 11.9159 16.4151C10.4043 16.9666 8.76656 17.0748 7.19548 16.7271C5.6244 16.3794 4.18531 15.5902 3.04751 14.4524C1.9097 13.3146 1.12053 11.8755 0.772825 10.3044C0.425122 8.73336 0.533358 7.09566 1.0848 5.584C1.63624 4.07235 2.60794 2.74963 3.88559 1.77146C5.16323 0.793293 6.69367 0.200373 8.29684 0.0624561C8.54548 0.041736 8.79217 0.120637 8.98264 0.281801C9.17311 0.442965 9.29175 0.673191 9.31247 0.921831C9.33319 1.17047 9.25429 1.41716 9.09312 1.60763C8.93196 1.79809 8.70173 1.91674 8.45309 1.93746C7.20572 2.04443 6.01486 2.50547 5.02064 3.26633C4.02642 4.02719 3.27022 5.0562 2.84102 6.23228C2.41182 7.40836 2.32748 8.68257 2.59792 9.90496C2.86837 11.1273 3.48235 12.2471 4.36761 13.1323C5.25287 14.0176 6.37258 14.6316 7.59497 14.902C8.81736 15.1724 10.0916 15.0881 11.2676 14.6589C12.4437 14.2297 13.4727 13.4735 14.2336 12.4793C14.9945 11.4851 15.4555 10.2942 15.5625 9.04683C15.5727 8.92372 15.6071 8.80383 15.6637 8.69401C15.7203 8.5842 15.798 8.4866 15.8923 8.4068C15.9866 8.327 16.0957 8.26656 16.2134 8.22892C16.3311 8.19129 16.455 8.1772 16.5781 8.18746C16.7012 8.19772 16.8211 8.23212 16.9309 8.28872C17.0407 8.34531 17.1383 8.42298 17.2181 8.51729C17.2979 8.6116 17.3584 8.7207 17.396 8.83837C17.4336 8.95604 17.4477 9.07997 17.4375 9.20308ZM8.06247 4.43746V8.49996C8.06247 8.7486 8.16124 8.98705 8.33706 9.16287C8.51287 9.33868 8.75133 9.43746 8.99997 9.43746H13.0625C13.3111 9.43746 13.5496 9.33868 13.7254 9.16287C13.9012 8.98705 14 8.7486 14 8.49996C14 8.25132 13.9012 8.01286 13.7254 7.83704C13.5496 7.66123 13.3111 7.56246 13.0625 7.56246H9.93747V4.43746C9.93747 4.18882 9.8387 3.95036 9.66288 3.77454C9.48707 3.59873 9.24861 3.49996 8.99997 3.49996C8.75133 3.49996 8.51287 3.59873 8.33706 3.77454C8.16124 3.95036 8.06247 4.18882 8.06247 4.43746ZM15.25 5.99996C15.4972 5.99996 15.7389 5.92664 15.9444 5.78929C16.15 5.65194 16.3102 5.45672 16.4048 5.22831C16.4994 4.9999 16.5242 4.74857 16.476 4.50609C16.4277 4.26362 16.3087 4.04089 16.1339 3.86607C15.959 3.69126 15.7363 3.57221 15.4938 3.52397C15.2514 3.47574 15 3.5005 14.7716 3.59511C14.5432 3.68972 14.348 3.84993 14.2106 4.05549C14.0733 4.26105 14 4.50273 14 4.74996C14 5.08148 14.1317 5.39942 14.3661 5.63384C14.6005 5.86826 14.9184 5.99996 15.25 5.99996ZM12.75 3.49996C12.9972 3.49996 13.2389 3.42664 13.4444 3.28929C13.65 3.15194 13.8102 2.95672 13.9048 2.72831C13.9994 2.4999 14.0242 2.24857 13.976 2.00609C13.9277 1.76362 13.8087 1.54089 13.6339 1.36607C13.459 1.19126 13.2363 1.07221 12.9938 1.02397C12.7514 0.975743 12.5 1.0005 12.2716 1.09511C12.0432 1.18972 11.848 1.34993 11.7106 1.55549C11.5733 1.76105 11.5 2.00273 11.5 2.24996C11.5 2.58148 11.6317 2.89942 11.8661 3.13384C12.1005 3.36826 12.4184 3.49996 12.75 3.49996Z" fill="white"/>
</svg>
