<svg width="18" height="16" viewBox="0 0 18 16" fill="none" xmlns="http://www.w3.org/2000/svg">
<path d="M17.4375 1.75V4.875C17.4375 5.12364 17.3387 5.3621 17.1629 5.53791C16.9871 5.71373 16.7486 5.8125 16.5 5.8125C16.2514 5.8125 16.0129 5.71373 15.8371 5.53791C15.6613 5.3621 15.5625 5.12364 15.5625 4.875V2.6875H13.375C13.1264 2.6875 12.8879 2.58873 12.7121 2.41291C12.5363 2.2371 12.4375 1.99864 12.4375 1.75C12.4375 1.50136 12.5363 1.2629 12.7121 1.08709C12.8879 0.911272 13.1264 0.8125 13.375 0.8125H16.5C16.7486 0.8125 16.9871 0.911272 17.1629 1.08709C17.3387 1.2629 17.4375 1.50136 17.4375 1.75ZM4.625 13.3125H2.4375V11.125C2.4375 10.8764 2.33873 10.6379 2.16291 10.4621C1.9871 10.2863 1.74864 10.1875 1.5 10.1875C1.25136 10.1875 1.0129 10.2863 0.837087 10.4621C0.661272 10.6379 0.5625 10.8764 0.5625 11.125V14.25C0.5625 14.4986 0.661272 14.7371 0.837087 14.9129C1.0129 15.0887 1.25136 15.1875 1.5 15.1875H4.625C4.87364 15.1875 5.1121 15.0887 5.28791 14.9129C5.46373 14.7371 5.5625 14.4986 5.5625 14.25C5.5625 14.0014 5.46373 13.7629 5.28791 13.5871C5.1121 13.4113 4.87364 13.3125 4.625 13.3125ZM16.5 10.1875C16.2514 10.1875 16.0129 10.2863 15.8371 10.4621C15.6613 10.6379 15.5625 10.8764 15.5625 11.125V13.3125H13.375C13.1264 13.3125 12.8879 13.4113 12.7121 13.5871C12.5363 13.7629 12.4375 14.0014 12.4375 14.25C12.4375 14.4986 12.5363 14.7371 12.7121 14.9129C12.8879 15.0887 13.1264 15.1875 13.375 15.1875H16.5C16.7486 15.1875 16.9871 15.0887 17.1629 14.9129C17.3387 14.7371 17.4375 14.4986 17.4375 14.25V11.125C17.4375 10.8764 17.3387 10.6379 17.1629 10.4621C16.9871 10.2863 16.7486 10.1875 16.5 10.1875ZM1.5 5.8125C1.74864 5.8125 1.9871 5.71373 2.16291 5.53791C2.33873 5.3621 2.4375 5.12364 2.4375 4.875V2.6875H4.625C4.87364 2.6875 5.1121 2.58873 5.28791 2.41291C5.46373 2.2371 5.5625 1.99864 5.5625 1.75C5.5625 1.50136 5.46373 1.2629 5.28791 1.08709C5.1121 0.911272 4.87364 0.8125 4.625 0.8125H1.5C1.25136 0.8125 1.0129 0.911272 0.837087 1.08709C0.661272 1.2629 0.5625 1.50136 0.5625 1.75V4.875C0.5625 5.12364 0.661272 5.3621 0.837087 5.53791C1.0129 5.71373 1.25136 5.8125 1.5 5.8125ZM13.8438 11.3141L9.46875 13.8141C9.32716 13.8949 9.16694 13.9374 9.00391 13.9374C8.84087 13.9374 8.68065 13.8949 8.53906 13.8141L4.16406 11.3141C4.01977 11.2326 3.89965 11.1143 3.81594 10.9713C3.73222 10.8283 3.68791 10.6657 3.6875 10.5V5.5C3.68712 5.33507 3.73026 5.17295 3.81256 5.03002C3.89486 4.88709 4.01341 4.7684 4.15625 4.68594L8.53125 2.18594C8.67284 2.1051 8.83306 2.06258 8.99609 2.06258C9.15913 2.06258 9.31935 2.1051 9.46094 2.18594L13.8359 4.68594C13.9802 4.76741 14.1003 4.88566 14.1841 5.02867C14.2678 5.17167 14.3121 5.3343 14.3125 5.5V10.5C14.3129 10.6649 14.2697 10.827 14.1874 10.97C14.1051 11.1129 13.9866 11.2316 13.8438 11.3141ZM6.51484 5.5L9 6.92031L11.4852 5.5L9 4.07969L6.51484 5.5ZM5.5625 9.95312L8.0625 11.3813V8.54688L5.5625 7.11562V9.95312ZM12.4375 9.95312V7.11562L9.9375 8.54688V11.3875L12.4375 9.95312Z" fill="white"/>
</svg>
