<svg width="25" height="24" viewBox="0 0 25 24" fill="none" xmlns="http://www.w3.org/2000/svg">
<path d="M13.625 8.25C13.625 7.95163 13.7435 7.66548 13.9545 7.4545C14.1655 7.24353 14.4516 7.125 14.75 7.125H17.75C18.0484 7.125 18.3345 7.24353 18.5455 7.4545C18.7565 7.66548 18.875 7.95163 18.875 8.25V11.25C18.875 11.5484 18.7565 11.8345 18.5455 12.0455C18.3345 12.2565 18.0484 12.375 17.75 12.375C17.4516 12.375 17.1655 12.2565 16.9545 12.0455C16.7435 11.8345 16.625 11.5484 16.625 11.25V9.375H14.75C14.4516 9.375 14.1655 9.25647 13.9545 9.0455C13.7435 8.83452 13.625 8.54837 13.625 8.25ZM7.25 16.875H10.25C10.5484 16.875 10.8345 16.7565 11.0455 16.5455C11.2565 16.3345 11.375 16.0484 11.375 15.75C11.375 15.4516 11.2565 15.1655 11.0455 14.9545C10.8345 14.7435 10.5484 14.625 10.25 14.625H8.375V12.75C8.375 12.4516 8.25647 12.1655 8.0455 11.9545C7.83452 11.7435 7.54837 11.625 7.25 11.625C6.95163 11.625 6.66548 11.7435 6.4545 11.9545C6.24353 12.1655 6.125 12.4516 6.125 12.75V15.75C6.125 16.0484 6.24353 16.3345 6.4545 16.5455C6.66548 16.7565 6.95163 16.875 7.25 16.875ZM22.625 5.25V18.75C22.625 19.2473 22.4275 19.7242 22.0758 20.0758C21.7242 20.4275 21.2473 20.625 20.75 20.625H4.25C3.75272 20.625 3.27581 20.4275 2.92417 20.0758C2.57254 19.7242 2.375 19.2473 2.375 18.75V5.25C2.375 4.75272 2.57254 4.27581 2.92417 3.92417C3.27581 3.57254 3.75272 3.375 4.25 3.375H20.75C21.2473 3.375 21.7242 3.57254 22.0758 3.92417C22.4275 4.27581 22.625 4.75272 22.625 5.25ZM20.375 5.625H4.625V18.375H20.375V5.625Z" fill="white"/>
</svg>
