<svg width="20" height="20" viewBox="0 0 20 20" fill="none" xmlns="http://www.w3.org/2000/svg">
<path d="M9.99952 5.93749C9.19603 5.93749 8.41059 6.17575 7.74251 6.62215C7.07444 7.06854 6.55374 7.70302 6.24626 8.44534C5.93878 9.18767 5.85833 10.0045 6.01508 10.7925C6.17183 11.5806 6.55875 12.3045 7.1269 12.8726C7.69505 13.4408 8.41892 13.8277 9.20696 13.9844C9.99501 14.1412 10.8118 14.0607 11.5542 13.7533C12.2965 13.4458 12.931 12.9251 13.3774 12.257C13.8238 11.5889 14.062 10.8035 14.062 9.99999C14.0608 8.92293 13.6324 7.89034 12.8708 7.12874C12.1092 6.36714 11.0766 5.93873 9.99952 5.93749ZM9.99952 12.1875C9.56687 12.1875 9.14394 12.0592 8.78421 11.8188C8.42448 11.5785 8.1441 11.2368 7.97853 10.8371C7.81296 10.4374 7.76964 9.99757 7.85405 9.57323C7.93845 9.1489 8.14679 8.75912 8.45272 8.4532C8.75865 8.14727 9.14842 7.93893 9.57276 7.85452C9.99709 7.77012 10.4369 7.81344 10.8366 7.97901C11.2364 8.14457 11.578 8.42495 11.8184 8.78468C12.0587 9.14441 12.187 9.56735 12.187 9.99999C12.187 10.5802 11.9565 11.1366 11.5463 11.5468C11.1361 11.957 10.5797 12.1875 9.99952 12.1875ZM18.8948 8.31484C18.8684 8.18279 18.8138 8.05798 18.7348 7.94892C18.6558 7.83985 18.5542 7.74909 18.437 7.6828L16.2659 6.44452L16.2573 3.99843C16.2569 3.86271 16.2269 3.72872 16.1696 3.6057C16.1123 3.48268 16.0289 3.37358 15.9253 3.28593C15.0504 2.54568 14.043 1.97809 12.9565 1.61327C12.8326 1.57147 12.7013 1.55606 12.5711 1.56803C12.4408 1.58001 12.3145 1.6191 12.2003 1.68281L9.99952 2.91171L7.79874 1.68202C7.68436 1.61797 7.55782 1.57862 7.42729 1.56651C7.29676 1.5544 7.16513 1.5698 7.04092 1.61171C5.95417 1.97805 4.94677 2.54722 4.07217 3.28906C3.9689 3.37661 3.88581 3.48549 3.82863 3.60822C3.77145 3.73094 3.74153 3.8646 3.74092 3.99999L3.72999 6.44843L1.56202 7.68359C1.44476 7.75012 1.34323 7.84117 1.26436 7.95051C1.18549 8.05985 1.13113 8.18492 1.10499 8.31718C0.884275 9.42899 0.884275 10.5733 1.10499 11.6851C1.13134 11.8171 1.18579 11.9419 1.26465 12.0509C1.34352 12.16 1.44494 12.2508 1.56202 12.3172L3.73545 13.5555L3.74405 16.0016C3.74452 16.1373 3.77446 16.2713 3.83178 16.3943C3.88911 16.5173 3.97246 16.6264 4.07608 16.7141C4.951 17.4543 5.95839 18.0219 7.04483 18.3867C7.16876 18.4285 7.30007 18.4439 7.43031 18.4319C7.56055 18.42 7.68685 18.3809 7.80108 18.3172L9.99952 17.0883L12.198 18.318C12.3123 18.382 12.4389 18.4214 12.5694 18.4335C12.6999 18.4456 12.8316 18.4302 12.9558 18.3883C14.0425 18.0219 15.0499 17.4528 15.9245 16.7109C16.0278 16.6234 16.1109 16.5145 16.1681 16.3918C16.2252 16.269 16.2552 16.1354 16.2558 16L16.2667 13.5516L18.4394 12.3164C18.5566 12.2499 18.6581 12.1588 18.737 12.0495C18.8159 11.9401 18.8703 11.8151 18.8964 11.6828C19.1166 10.5709 19.1161 9.42654 18.8948 8.31484ZM17.1269 10.907L15.0269 12.1008C14.8777 12.1854 14.7547 12.3094 14.6714 12.4594C14.6292 12.5375 14.5847 12.6101 14.5386 12.6844C14.446 12.8322 14.3965 13.0029 14.3956 13.1773L14.3847 15.5469C13.8793 15.9272 13.3258 16.239 12.7386 16.4742L10.6175 15.2875C10.4776 15.2092 10.32 15.168 10.1597 15.168H10.137C10.048 15.168 9.95733 15.168 9.86827 15.168C9.70073 15.164 9.53517 15.2047 9.38858 15.2859L7.26514 16.4703C6.67698 16.2363 6.12221 15.9258 5.61514 15.5469L5.60655 13.1844C5.60582 13.0097 5.55631 12.8387 5.46358 12.6906C5.41827 12.6172 5.37295 12.5414 5.33077 12.4656C5.24743 12.3166 5.12473 12.1934 4.97608 12.1094L2.87452 10.9086C2.79288 10.3061 2.79288 9.69542 2.87452 9.09296L4.97452 7.89921C5.12347 7.81465 5.24641 7.6909 5.32999 7.5414C5.37217 7.46327 5.41671 7.38984 5.4628 7.31562C5.55539 7.16779 5.6049 6.99707 5.60577 6.82265L5.61436 4.45312C6.11995 4.07388 6.67344 3.76312 7.26046 3.5289L9.38155 4.71562C9.52806 4.79781 9.69408 4.83885 9.86202 4.83437C9.95108 4.83437 10.0417 4.83437 10.1308 4.83437C10.2983 4.83833 10.4639 4.79761 10.6105 4.7164L12.7339 3.52968C13.3221 3.76371 13.8768 4.07419 14.3839 4.45312L14.3925 6.81562C14.3932 6.99031 14.4427 7.16132 14.5355 7.30937C14.5808 7.3828 14.6261 7.45859 14.6683 7.53437C14.7516 7.68339 14.8743 7.80663 15.023 7.89062L17.1245 9.08827C17.2072 9.69165 17.208 10.3034 17.1269 10.907Z" fill="white"/>
</svg>
