<svg width="25" height="24" viewBox="0 0 25 24" fill="none" xmlns="http://www.w3.org/2000/svg">
<path d="M20 3.375H5C4.30381 3.375 3.63613 3.65156 3.14384 4.14384C2.65156 4.63613 2.375 5.30381 2.375 6V16.5C2.375 17.1962 2.65156 17.8639 3.14384 18.3562C3.63613 18.8484 4.30381 19.125 5 19.125H20C20.3447 19.125 20.6861 19.0571 21.0045 18.9252C21.323 18.7933 21.6124 18.5999 21.8562 18.3562C22.0999 18.1124 22.2933 17.823 22.4252 17.5045C22.5571 17.1861 22.625 16.8447 22.625 16.5V6C22.625 5.65528 22.5571 5.31394 22.4252 4.99546C22.2933 4.67698 22.0999 4.3876 21.8562 4.14384C21.6124 3.90009 21.323 3.70673 21.0045 3.57482C20.6861 3.4429 20.3447 3.375 20 3.375ZM20.375 16.5C20.375 16.5995 20.3355 16.6948 20.2652 16.7652C20.1948 16.8355 20.0995 16.875 20 16.875H5C4.90054 16.875 4.80516 16.8355 4.73484 16.7652C4.66451 16.6948 4.625 16.5995 4.625 16.5V6C4.625 5.90054 4.66451 5.80516 4.73484 5.73484C4.80516 5.66451 4.90054 5.625 5 5.625H20C20.0995 5.625 20.1948 5.66451 20.2652 5.73484C20.3355 5.80516 20.375 5.90054 20.375 6V16.5ZM16.625 21.375C16.625 21.6734 16.5065 21.9595 16.2955 22.1705C16.0845 22.3815 15.7984 22.5 15.5 22.5H9.5C9.20163 22.5 8.91548 22.3815 8.7045 22.1705C8.49353 21.9595 8.375 21.6734 8.375 21.375C8.375 21.0766 8.49353 20.7905 8.7045 20.5795C8.91548 20.3685 9.20163 20.25 9.5 20.25H15.5C15.7984 20.25 16.0845 20.3685 16.2955 20.5795C16.5065 20.7905 16.625 21.0766 16.625 21.375Z" fill="white"/>
</svg>
