<svg width="16" height="16" viewBox="0 0 16 16" fill="none" xmlns="http://www.w3.org/2000/svg">
<path d="M14.2883 3.03672L3.0383 14.2867C2.9511 14.3739 2.84757 14.4431 2.73363 14.4903C2.61969 14.5375 2.49757 14.5618 2.37424 14.5618C2.25091 14.5618 2.12879 14.5375 2.01485 14.4903C1.90091 14.4431 1.79738 14.3739 1.71018 14.2867C1.62297 14.1995 1.5538 14.096 1.5066 13.982C1.45941 13.8681 1.43511 13.746 1.43511 13.6227C1.43511 13.4993 1.45941 13.3772 1.5066 13.2633C1.5538 13.1493 1.62297 13.0458 1.71018 12.9586L12.9602 1.70859C13.1363 1.53247 13.3752 1.43353 13.6242 1.43353C13.8733 1.43353 14.1122 1.53247 14.2883 1.70859C14.4644 1.88471 14.5634 2.12358 14.5634 2.37266C14.5634 2.62173 14.4644 2.8606 14.2883 3.03672ZM1.72815 6.14609C1.21718 5.63461 0.89937 4.96179 0.828865 4.24225C0.75836 3.52272 0.939523 2.801 1.34149 2.20006C1.74345 1.59912 2.34134 1.15615 3.03329 0.946619C3.72524 0.737087 4.46844 0.773961 5.13625 1.05096C5.80407 1.32795 6.35517 1.82793 6.69568 2.46571C7.03618 3.10348 7.14502 3.83959 7.00363 4.54861C6.86225 5.25763 6.4794 5.8957 5.92032 6.35409C5.36123 6.81248 4.6605 7.06284 3.93752 7.0625C3.52694 7.06351 3.12024 6.98303 2.74099 6.82572C2.36174 6.66842 2.01748 6.43741 1.72815 6.14609ZM2.68752 3.9375C2.68739 4.2267 2.78754 4.507 2.9709 4.73064C3.15427 4.95428 3.40951 5.10741 3.69313 5.16396C3.97675 5.2205 4.2712 5.17695 4.52631 5.04072C4.78142 4.9045 4.9814 4.68403 5.09218 4.41689C5.20296 4.14975 5.21768 3.85246 5.13383 3.57568C5.04999 3.2989 4.87276 3.05975 4.63236 2.89899C4.39196 2.73824 4.10325 2.66581 3.81543 2.69406C3.52761 2.7223 3.25849 2.84948 3.05393 3.05391C2.93738 3.16959 2.84498 3.30726 2.78208 3.45895C2.71918 3.61063 2.68704 3.77329 2.68752 3.9375ZM15.1875 12.0625C15.1875 12.7855 14.9368 13.486 14.4782 14.0449C14.0195 14.6037 13.3813 14.9863 12.6722 15.1273C11.9631 15.2684 11.2271 15.1592 10.5895 14.8184C9.95189 14.4777 9.45217 13.9264 9.17547 13.2584C8.89876 12.5905 8.8622 11.8473 9.07201 11.1555C9.28182 10.4636 9.72502 9.86594 10.3261 9.46422C10.9272 9.06251 11.6489 8.88163 12.3684 8.9524C13.0879 9.02317 13.7606 9.34121 14.2719 9.85235C14.5632 10.1418 14.7941 10.4862 14.9513 10.8656C15.1085 11.245 15.1888 11.6518 15.1875 12.0625ZM13.3125 12.0625C13.3131 11.8982 13.281 11.7353 13.2181 11.5835C13.1552 11.4317 13.0628 11.2939 12.9461 11.1781C12.7416 10.9737 12.4725 10.8466 12.1847 10.8183C11.8969 10.79 11.6082 10.8624 11.3678 11.0231C11.1274 11.1838 10.9502 11.4229 10.8663 11.6996C10.7824 11.9763 10.797 12.2736 10.9077 12.5407C11.0184 12.8079 11.2183 13.0284 11.4733 13.1647C11.7283 13.301 12.0227 13.3447 12.3063 13.2883C12.59 13.2319 12.8452 13.0789 13.0287 12.8554C13.2122 12.6319 13.3125 12.3517 13.3125 12.0625Z" fill="white"/>
</svg>
