<svg width="16" height="16" viewBox="0 0 16 16" fill="none" xmlns="http://www.w3.org/2000/svg">
<path d="M14.241 2.93065C14.2224 2.62612 14.093 2.33892 13.8773 2.12318C13.6615 1.90744 13.3743 1.77805 13.0698 1.7594C12.2492 1.71127 10.1542 1.78565 8.4148 3.5244L8.18792 3.75002H4.64792C4.4837 3.74948 4.321 3.78157 4.16929 3.84444C4.01757 3.90732 3.87987 3.99972 3.76417 4.11627L1.6173 6.2619C1.45294 6.42618 1.33764 6.63301 1.28432 6.85919C1.23101 7.08537 1.24179 7.32193 1.31547 7.54232C1.38915 7.76271 1.5228 7.95819 1.70143 8.10683C1.88005 8.25547 2.09657 8.35137 2.32667 8.38377L4.64792 8.70752L7.29292 11.3525L7.6173 13.6763C7.64889 13.9067 7.74455 14.1237 7.89338 14.3025C8.04222 14.4813 8.23825 14.6147 8.45917 14.6875C8.58766 14.7296 8.72209 14.7507 8.8573 14.75C9.02111 14.7499 9.18329 14.7175 9.33452 14.6545C9.48575 14.5915 9.62306 14.4993 9.73855 14.3832L11.8848 12.2363C12.0012 12.1205 12.0934 11.9827 12.1562 11.831C12.219 11.6793 12.251 11.5167 12.2504 11.3525V7.81252L12.4754 7.58815C14.2148 5.84627 14.2892 3.75002 14.241 2.93065ZM4.75042 5.25002H6.68792L4.7348 7.20502L3.03292 6.96752L4.75042 5.25002ZM9.47542 4.58565C9.90339 4.15415 10.414 3.81345 10.9768 3.58395C11.5395 3.35446 12.1428 3.24088 12.7504 3.25002C12.7599 3.85789 12.6465 4.4614 12.4168 5.0243C12.1872 5.58721 11.8462 6.09788 11.4142 6.52565L8.00042 9.93752L6.06292 8.00002L9.47542 4.58565ZM10.7504 11.25L9.0323 12.9682L8.7948 11.2663L10.7504 9.31252V11.25ZM6.25042 12.625C5.70605 13.3657 4.61355 14.25 2.50042 14.25C2.30151 14.25 2.11074 14.171 1.97009 14.0304C1.82944 13.8897 1.75042 13.6989 1.75042 13.5C1.75042 11.385 2.63292 10.2925 3.37542 9.75002C3.45398 9.68403 3.54524 9.63485 3.64357 9.60553C3.74189 9.57621 3.84518 9.56738 3.94706 9.57958C4.04893 9.59178 4.14722 9.62476 4.23584 9.67647C4.32445 9.72817 4.40152 9.79751 4.46227 9.8802C4.52302 9.96288 4.56616 10.0571 4.58902 10.1572C4.61187 10.2572 4.61397 10.3608 4.59516 10.4617C4.57636 10.5626 4.53706 10.6585 4.4797 10.7436C4.42234 10.8286 4.34813 10.901 4.26167 10.9563C3.89417 11.2269 3.4698 11.7375 3.31292 12.6875C4.26355 12.5307 4.77355 12.1063 5.04417 11.7388C5.09941 11.6523 5.17181 11.5781 5.25688 11.5207C5.34194 11.4634 5.43788 11.4241 5.53874 11.4053C5.6396 11.3865 5.74325 11.3886 5.84328 11.4114C5.9433 11.4343 6.03757 11.4774 6.12025 11.5382C6.20293 11.5989 6.27227 11.676 6.32398 11.7646C6.37569 11.8532 6.40866 11.9515 6.42086 12.0534C6.43306 12.1553 6.42423 12.2586 6.39492 12.3569C6.3656 12.4552 6.31642 12.5465 6.25042 12.625Z" fill="white"/>
</svg>
