<svg width="25" height="24" viewBox="0 0 25 24" fill="none" xmlns="http://www.w3.org/2000/svg">
<path d="M21.875 3.75V6.375C21.875 6.67337 21.7565 6.95952 21.5455 7.1705C21.3345 7.38147 21.0484 7.5 20.75 7.5C20.4516 7.5 20.1655 7.38147 19.9545 7.1705C19.7435 6.95952 19.625 6.67337 19.625 6.375V4.875H18.125C17.8266 4.875 17.5405 4.75647 17.3295 4.5455C17.1185 4.33452 17 4.04837 17 3.75C17 3.45163 17.1185 3.16548 17.3295 2.9545C17.5405 2.74353 17.8266 2.625 18.125 2.625H20.75C21.0484 2.625 21.3345 2.74353 21.5455 2.9545C21.7565 3.16548 21.875 3.45163 21.875 3.75ZM20.75 16.5C20.4516 16.5 20.1655 16.6185 19.9545 16.8295C19.7435 17.0405 19.625 17.3266 19.625 17.625V19.125H18.125C17.8266 19.125 17.5405 19.2435 17.3295 19.4545C17.1185 19.6655 17 19.9516 17 20.25C17 20.5484 17.1185 20.8345 17.3295 21.0455C17.5405 21.2565 17.8266 21.375 18.125 21.375H20.75C21.0484 21.375 21.3345 21.2565 21.5455 21.0455C21.7565 20.8345 21.875 20.5484 21.875 20.25V17.625C21.875 17.3266 21.7565 17.0405 21.5455 16.8295C21.3345 16.6185 21.0484 16.5 20.75 16.5ZM6.875 19.125H5.375V17.625C5.375 17.3266 5.25647 17.0405 5.0455 16.8295C4.83452 16.6185 4.54837 16.5 4.25 16.5C3.95163 16.5 3.66548 16.6185 3.4545 16.8295C3.24353 17.0405 3.125 17.3266 3.125 17.625V20.25C3.125 20.5484 3.24353 20.8345 3.4545 21.0455C3.66548 21.2565 3.95163 21.375 4.25 21.375H6.875C7.17337 21.375 7.45952 21.2565 7.6705 21.0455C7.88147 20.8345 8 20.5484 8 20.25C8 19.9516 7.88147 19.6655 7.6705 19.4545C7.45952 19.2435 7.17337 19.125 6.875 19.125ZM4.25 7.5C4.54837 7.5 4.83452 7.38147 5.0455 7.1705C5.25647 6.95952 5.375 6.67337 5.375 6.375V4.875H6.875C7.17337 4.875 7.45952 4.75647 7.6705 4.5455C7.88147 4.33452 8 4.04837 8 3.75C8 3.45163 7.88147 3.16548 7.6705 2.9545C7.45952 2.74353 7.17337 2.625 6.875 2.625H4.25C3.95163 2.625 3.66548 2.74353 3.4545 2.9545C3.24353 3.16548 3.125 3.45163 3.125 3.75V6.375C3.125 6.67337 3.24353 6.95952 3.4545 7.1705C3.66548 7.38147 3.95163 7.5 4.25 7.5ZM12.5 19.5C11.0166 19.5 9.56659 19.0601 8.33322 18.236C7.09985 17.4119 6.13856 16.2406 5.5709 14.8701C5.00325 13.4997 4.85472 11.9917 5.14411 10.5368C5.4335 9.08197 6.14781 7.74559 7.1967 6.6967C8.24559 5.64781 9.58197 4.9335 11.0368 4.64411C12.4917 4.35472 13.9997 4.50325 15.3701 5.0709C16.7406 5.63856 17.9119 6.59985 18.736 7.83322C19.5601 9.06659 20 10.5166 20 12C19.9978 13.9884 19.2069 15.8948 17.8008 17.3008C16.3948 18.7069 14.4884 19.4978 12.5 19.5ZM17.75 12C17.75 10.9616 17.4421 9.94661 16.8652 9.08326C16.2883 8.2199 15.4684 7.54699 14.5091 7.14963C13.5498 6.75227 12.4942 6.6483 11.4758 6.85088C10.4574 7.05345 9.52192 7.55346 8.78769 8.28769C8.05346 9.02192 7.55345 9.95738 7.35088 10.9758C7.1483 11.9942 7.25227 13.0498 7.64963 14.0091C8.04699 14.9684 8.7199 15.7883 9.58326 16.3652C10.4466 16.9421 11.4616 17.25 12.5 17.25C13.8919 17.2485 15.2264 16.6949 16.2107 15.7107C17.1949 14.7264 17.7485 13.3919 17.75 12ZM10.25 9.75C9.95333 9.75 9.66332 9.83797 9.41665 10.0028C9.16997 10.1676 8.97771 10.4019 8.86418 10.676C8.75065 10.9501 8.72094 11.2517 8.77882 11.5426C8.8367 11.8336 8.97956 12.1009 9.18934 12.3107C9.39912 12.5204 9.66639 12.6633 9.95736 12.7212C10.2483 12.7791 10.5499 12.7494 10.824 12.6358C11.0981 12.5223 11.3324 12.33 11.4972 12.0834C11.662 11.8367 11.75 11.5467 11.75 11.25C11.75 10.8522 11.592 10.4706 11.3107 10.1893C11.0294 9.90804 10.6478 9.75 10.25 9.75ZM14.75 9.75C14.4533 9.75 14.1633 9.83797 13.9166 10.0028C13.67 10.1676 13.4777 10.4019 13.3642 10.676C13.2506 10.9501 13.2209 11.2517 13.2788 11.5426C13.3367 11.8336 13.4796 12.1009 13.6893 12.3107C13.8991 12.5204 14.1664 12.6633 14.4574 12.7212C14.7483 12.7791 15.0499 12.7494 15.324 12.6358C15.5981 12.5223 15.8324 12.33 15.9972 12.0834C16.162 11.8367 16.25 11.5467 16.25 11.25C16.25 10.8522 16.092 10.4706 15.8107 10.1893C15.5294 9.90804 15.1478 9.75 14.75 9.75Z" fill="white"/>
</svg>
