<svg width="24" height="24" viewBox="0 0 24 24" fill="none" xmlns="http://www.w3.org/2000/svg">
<path d="M15.2812 1.6875C15.2812 2.06046 15.1331 2.41815 14.8694 2.68187C14.6056 2.94559 14.248 3.09375 13.875 3.09375H10.125C9.75204 3.09375 9.39435 2.94559 9.13063 2.68187C8.86691 2.41815 8.71875 2.06046 8.71875 1.6875C8.71875 1.31454 8.86691 0.956854 9.13063 0.693131C9.39435 0.429408 9.75204 0.28125 10.125 0.28125H13.875C14.248 0.28125 14.6056 0.429408 14.8694 0.693131C15.1331 0.956854 15.2812 1.31454 15.2812 1.6875ZM13.875 20.9062H10.125C9.75204 20.9062 9.39435 21.0544 9.13063 21.3181C8.86691 21.5819 8.71875 21.9395 8.71875 22.3125C8.71875 22.6855 8.86691 23.0431 9.13063 23.3069C9.39435 23.5706 9.75204 23.7188 10.125 23.7188H13.875C14.248 23.7188 14.6056 23.5706 14.8694 23.3069C15.1331 23.0431 15.2812 22.6855 15.2812 22.3125C15.2812 21.9395 15.1331 21.5819 14.8694 21.3181C14.6056 21.0544 14.248 20.9062 13.875 20.9062ZM21.375 0.28125H18.5625C18.1895 0.28125 17.8319 0.429408 17.5681 0.693131C17.3044 0.956854 17.1562 1.31454 17.1562 1.6875C17.1562 2.06046 17.3044 2.41815 17.5681 2.68187C17.8319 2.94559 18.1895 3.09375 18.5625 3.09375H20.9062V5.4375C20.9062 5.81046 21.0544 6.16815 21.3181 6.43187C21.5819 6.69559 21.9395 6.84375 22.3125 6.84375C22.6855 6.84375 23.0431 6.69559 23.3069 6.43187C23.5706 6.16815 23.7188 5.81046 23.7188 5.4375V2.625C23.7188 2.0034 23.4718 1.40726 23.0323 0.967718C22.5927 0.52818 21.9966 0.28125 21.375 0.28125ZM22.3125 8.71875C21.9395 8.71875 21.5819 8.86691 21.3181 9.13063C21.0544 9.39435 20.9062 9.75204 20.9062 10.125V13.875C20.9062 14.248 21.0544 14.6056 21.3181 14.8694C21.5819 15.1331 21.9395 15.2812 22.3125 15.2812C22.6855 15.2812 23.0431 15.1331 23.3069 14.8694C23.5706 14.6056 23.7188 14.248 23.7188 13.875V10.125C23.7188 9.75204 23.5706 9.39435 23.3069 9.13063C23.0431 8.86691 22.6855 8.71875 22.3125 8.71875ZM22.3125 17.1562C21.9395 17.1562 21.5819 17.3044 21.3181 17.5681C21.0544 17.8319 20.9062 18.1895 20.9062 18.5625V20.9062H18.5625C18.1895 20.9062 17.8319 21.0544 17.5681 21.3181C17.3044 21.5819 17.1562 21.9395 17.1562 22.3125C17.1562 22.6855 17.3044 23.0431 17.5681 23.3069C17.8319 23.5706 18.1895 23.7188 18.5625 23.7188H21.375C21.9966 23.7188 22.5927 23.4718 23.0323 23.0323C23.4718 22.5927 23.7188 21.9966 23.7188 21.375V18.5625C23.7188 18.1895 23.5706 17.8319 23.3069 17.5681C23.0431 17.3044 22.6855 17.1562 22.3125 17.1562ZM1.6875 15.2812C2.06046 15.2812 2.41815 15.1331 2.68187 14.8694C2.94559 14.6056 3.09375 14.248 3.09375 13.875V10.125C3.09375 9.75204 2.94559 9.39435 2.68187 9.13063C2.41815 8.86691 2.06046 8.71875 1.6875 8.71875C1.31454 8.71875 0.956854 8.86691 0.693131 9.13063C0.429408 9.39435 0.28125 9.75204 0.28125 10.125V13.875C0.28125 14.248 0.429408 14.6056 0.693131 14.8694C0.956854 15.1331 1.31454 15.2812 1.6875 15.2812ZM5.4375 20.9062H3.09375V18.5625C3.09375 18.1895 2.94559 17.8319 2.68187 17.5681C2.41815 17.3044 2.06046 17.1562 1.6875 17.1562C1.31454 17.1562 0.956854 17.3044 0.693131 17.5681C0.429408 17.8319 0.28125 18.1895 0.28125 18.5625V21.375C0.28125 21.9966 0.52818 22.5927 0.967718 23.0323C1.40726 23.4718 2.0034 23.7188 2.625 23.7188H5.4375C5.81046 23.7188 6.16815 23.5706 6.43187 23.3069C6.69559 23.0431 6.84375 22.6855 6.84375 22.3125C6.84375 21.9395 6.69559 21.5819 6.43187 21.3181C6.16815 21.0544 5.81046 20.9062 5.4375 20.9062ZM5.4375 0.28125H2.625C2.0034 0.28125 1.40726 0.52818 0.967718 0.967718C0.52818 1.40726 0.28125 2.0034 0.28125 2.625V5.4375C0.28125 5.81046 0.429408 6.16815 0.693131 6.43187C0.956854 6.69559 1.31454 6.84375 1.6875 6.84375C2.06046 6.84375 2.41815 6.69559 2.68187 6.43187C2.94559 6.16815 3.09375 5.81046 3.09375 5.4375V3.09375H5.4375C5.81046 3.09375 6.16815 2.94559 6.43187 2.68187C6.69559 2.41815 6.84375 2.06046 6.84375 1.6875C6.84375 1.31454 6.69559 0.956854 6.43187 0.693131C6.16815 0.429408 5.81046 0.28125 5.4375 0.28125Z" fill="#16A34A"/>
</svg>
