<svg width="25" height="24" viewBox="0 0 25 24" fill="none" xmlns="http://www.w3.org/2000/svg">
<path d="M13.625 3V6C13.625 6.29837 13.5065 6.58452 13.2955 6.7955C13.0845 7.00647 12.7984 7.125 12.5 7.125C12.2016 7.125 11.9155 7.00647 11.7045 6.7955C11.4935 6.58452 11.375 6.29837 11.375 6V3C11.375 2.70163 11.4935 2.41548 11.7045 2.2045C11.9155 1.99353 12.2016 1.875 12.5 1.875C12.7984 1.875 13.0845 1.99353 13.2955 2.2045C13.5065 2.41548 13.625 2.70163 13.625 3ZM21.5 10.875H18.5C18.2016 10.875 17.9155 10.9935 17.7045 11.2045C17.4935 11.4155 17.375 11.7016 17.375 12C17.375 12.2984 17.4935 12.5845 17.7045 12.7955C17.9155 13.0065 18.2016 13.125 18.5 13.125H21.5C21.7984 13.125 22.0845 13.0065 22.2955 12.7955C22.5065 12.5845 22.625 12.2984 22.625 12C22.625 11.7016 22.5065 11.4155 22.2955 11.2045C22.0845 10.9935 21.7984 10.875 21.5 10.875ZM17.5381 15.4472C17.4335 15.3425 17.3092 15.2595 17.1725 15.2029C17.0358 15.1463 16.8892 15.1171 16.7413 15.1171C16.5933 15.1171 16.4467 15.1463 16.31 15.2029C16.1733 15.2595 16.049 15.3425 15.9444 15.4472C15.8397 15.5518 15.7567 15.6761 15.7001 15.8128C15.6434 15.9495 15.6143 16.0961 15.6143 16.2441C15.6143 16.3921 15.6434 16.5386 15.7001 16.6753C15.7567 16.8121 15.8397 16.9363 15.9444 17.0409L18.0659 19.1625C18.2773 19.3738 18.5639 19.4926 18.8628 19.4926C19.1617 19.4926 19.4483 19.3738 19.6597 19.1625C19.871 18.9512 19.9898 18.6645 19.9898 18.3656C19.9898 18.0667 19.871 17.7801 19.6597 17.5687L17.5381 15.4472ZM12.5 16.875C12.2016 16.875 11.9155 16.9935 11.7045 17.2045C11.4935 17.4155 11.375 17.7016 11.375 18V21C11.375 21.2984 11.4935 21.5845 11.7045 21.7955C11.9155 22.0065 12.2016 22.125 12.5 22.125C12.7984 22.125 13.0845 22.0065 13.2955 21.7955C13.5065 21.5845 13.625 21.2984 13.625 21V18C13.625 17.7016 13.5065 17.4155 13.2955 17.2045C13.0845 16.9935 12.7984 16.875 12.5 16.875ZM7.46187 15.4472L5.34031 17.5687C5.12897 17.7801 5.01024 18.0667 5.01024 18.3656C5.01024 18.6645 5.12897 18.9512 5.34031 19.1625C5.55166 19.3738 5.8383 19.4926 6.13719 19.4926C6.43607 19.4926 6.72272 19.3738 6.93406 19.1625L9.05562 17.0409C9.26697 16.8296 9.3857 16.5429 9.3857 16.2441C9.3857 15.9452 9.26697 15.6585 9.05562 15.4472C8.84428 15.2358 8.55764 15.1171 8.25875 15.1171C7.95986 15.1171 7.67322 15.2358 7.46187 15.4472ZM7.625 12C7.625 11.7016 7.50647 11.4155 7.2955 11.2045C7.08452 10.9935 6.79837 10.875 6.5 10.875H3.5C3.20163 10.875 2.91548 10.9935 2.7045 11.2045C2.49353 11.4155 2.375 11.7016 2.375 12C2.375 12.2984 2.49353 12.5845 2.7045 12.7955C2.91548 13.0065 3.20163 13.125 3.5 13.125H6.5C6.79837 13.125 7.08452 13.0065 7.2955 12.7955C7.50647 12.5845 7.625 12.2984 7.625 12ZM6.93125 4.84031C6.71991 4.62897 6.43326 4.51024 6.13437 4.51024C5.83549 4.51024 5.54884 4.62897 5.3375 4.84031C5.12616 5.05166 5.00742 5.3383 5.00742 5.63719C5.00742 5.93607 5.12616 6.22272 5.3375 6.43406L7.46187 8.55281C7.67322 8.76416 7.95986 8.88289 8.25875 8.88289C8.55764 8.88289 8.84428 8.76416 9.05562 8.55281C9.26697 8.34147 9.3857 8.05482 9.3857 7.75594C9.3857 7.45705 9.26697 7.17041 9.05562 6.95906L6.93125 4.84031Z" fill="white"/>
</svg>
