<svg width="16" height="19" viewBox="0 0 16 19" fill="none" xmlns="http://www.w3.org/2000/svg">
<path d="M8 3.9375C6.51664 3.9375 5.0666 4.37737 3.83323 5.20148C2.59986 6.02559 1.63856 7.19693 1.07091 8.56738C0.50325 9.93782 0.354725 11.4458 0.644114 12.9007C0.933503 14.3555 1.64781 15.6919 2.6967 16.7408C3.7456 17.7897 5.08197 18.504 6.53683 18.7934C7.99168 19.0828 9.49968 18.9343 10.8701 18.3666C12.2406 17.7989 13.4119 16.8376 14.236 15.6043C15.0601 14.3709 15.5 12.9209 15.5 11.4375C15.4977 9.44908 14.7068 7.54274 13.3008 6.13671C11.8948 4.73068 9.98843 3.93977 8 3.9375ZM8 17.0625C6.88748 17.0625 5.79995 16.7326 4.87492 16.1145C3.94989 15.4964 3.22892 14.6179 2.80318 13.5901C2.37744 12.5623 2.26604 11.4313 2.48309 10.3401C2.70013 9.24897 3.23586 8.2467 4.02253 7.46002C4.8092 6.67335 5.81148 6.13763 6.90262 5.92058C7.99376 5.70354 9.12476 5.81494 10.1526 6.24068C11.1804 6.66642 12.0589 7.38739 12.677 8.31242C13.2951 9.23744 13.625 10.325 13.625 11.4375C13.6233 12.9288 13.0302 14.3586 11.9757 15.4131C10.9211 16.4677 9.49134 17.0608 8 17.0625ZM10.8508 8.27422C10.9382 8.36132 11.0075 8.46481 11.0548 8.57876C11.1022 8.69272 11.1265 8.81489 11.1265 8.93828C11.1265 9.06167 11.1022 9.18384 11.0548 9.2978C11.0075 9.41175 10.9382 9.51525 10.8508 9.60234L8.66329 11.7898C8.48716 11.966 8.24829 12.0649 7.99922 12.0649C7.75015 12.0649 7.51128 11.966 7.33516 11.7898C7.15904 11.6137 7.0601 11.3749 7.0601 11.1258C7.0601 10.8767 7.15904 10.6378 7.33516 10.4617L9.52266 8.27422C9.60976 8.18682 9.71325 8.11747 9.82721 8.07015C9.94116 8.02284 10.0633 7.99848 10.1867 7.99848C10.3101 7.99848 10.4323 8.02284 10.5462 8.07015C10.6602 8.11747 10.7637 8.18682 10.8508 8.27422ZM5.1875 1.75C5.1875 1.50136 5.28628 1.2629 5.46209 1.08709C5.63791 0.911272 5.87636 0.8125 6.125 0.8125H9.875C10.1236 0.8125 10.3621 0.911272 10.5379 1.08709C10.7137 1.2629 10.8125 1.50136 10.8125 1.75C10.8125 1.99864 10.7137 2.2371 10.5379 2.41291C10.3621 2.58873 10.1236 2.6875 9.875 2.6875H6.125C5.87636 2.6875 5.63791 2.58873 5.46209 2.41291C5.28628 2.2371 5.1875 1.99864 5.1875 1.75Z" fill="white"/>
</svg>
