<svg width="30" height="30" viewBox="0 0 30 30" fill="none" xmlns="http://www.w3.org/2000/svg">
<path d="M26.7188 4.6875V8.90625C26.7188 9.27921 26.5706 9.6369 26.3069 9.90062C26.0431 10.1643 25.6855 10.3125 25.3125 10.3125C24.9395 10.3125 24.5819 10.1643 24.3181 9.90062C24.0544 9.6369 23.9062 9.27921 23.9062 8.90625V6.09375H21.0938C20.7208 6.09375 20.3631 5.94559 20.0994 5.68187C19.8357 5.41815 19.6875 5.06046 19.6875 4.6875C19.6875 4.31454 19.8357 3.95685 20.0994 3.69313C20.3631 3.42941 20.7208 3.28125 21.0938 3.28125H25.3125C25.6855 3.28125 26.0431 3.42941 26.3069 3.69313C26.5706 3.95685 26.7188 4.31454 26.7188 4.6875ZM25.3125 19.6875C24.9395 19.6875 24.5819 19.8357 24.3181 20.0994C24.0544 20.3631 23.9062 20.7208 23.9062 21.0938V23.9062H21.0938C20.7208 23.9062 20.3631 24.0544 20.0994 24.3181C19.8357 24.5819 19.6875 24.9395 19.6875 25.3125C19.6875 25.6855 19.8357 26.0431 20.0994 26.3069C20.3631 26.5706 20.7208 26.7188 21.0938 26.7188H25.3125C25.6855 26.7188 26.0431 26.5706 26.3069 26.3069C26.5706 26.0431 26.7188 25.6855 26.7188 25.3125V21.0938C26.7188 20.7208 26.5706 20.3631 26.3069 20.0994C26.0431 19.8357 25.6855 19.6875 25.3125 19.6875ZM8.90625 23.9062H6.09375V21.0938C6.09375 20.7208 5.94559 20.3631 5.68187 20.0994C5.41815 19.8357 5.06046 19.6875 4.6875 19.6875C4.31454 19.6875 3.95685 19.8357 3.69313 20.0994C3.42941 20.3631 3.28125 20.7208 3.28125 21.0938V25.3125C3.28125 25.6855 3.42941 26.0431 3.69313 26.3069C3.95685 26.5706 4.31454 26.7188 4.6875 26.7188H8.90625C9.27921 26.7188 9.6369 26.5706 9.90062 26.3069C10.1643 26.0431 10.3125 25.6855 10.3125 25.3125C10.3125 24.9395 10.1643 24.5819 9.90062 24.3181C9.6369 24.0544 9.27921 23.9062 8.90625 23.9062ZM4.6875 10.3125C5.06046 10.3125 5.41815 10.1643 5.68187 9.90062C5.94559 9.6369 6.09375 9.27921 6.09375 8.90625V6.09375H8.90625C9.27921 6.09375 9.6369 5.94559 9.90062 5.68187C10.1643 5.41815 10.3125 5.06046 10.3125 4.6875C10.3125 4.31454 10.1643 3.95685 9.90062 3.69313C9.6369 3.42941 9.27921 3.28125 8.90625 3.28125H4.6875C4.31454 3.28125 3.95685 3.42941 3.69313 3.69313C3.42941 3.95685 3.28125 4.31454 3.28125 4.6875V8.90625C3.28125 9.27921 3.42941 9.6369 3.69313 9.90062C3.95685 10.1643 4.31454 10.3125 4.6875 10.3125ZM20.625 21.0938C20.4068 21.0939 20.1915 21.0432 19.9963 20.9458C19.801 20.8484 19.6311 20.7069 19.5 20.5324C18.9761 19.8334 18.2966 19.266 17.5153 18.8751C16.734 18.4843 15.8724 18.2809 14.9988 18.2809C14.1252 18.2809 13.2637 18.4843 12.4824 18.8751C11.7011 19.266 11.0216 19.8334 10.4977 20.5324C10.2709 20.8229 9.93912 21.0127 9.57378 21.0611C9.20845 21.1095 8.83872 21.0125 8.54416 20.791C8.2496 20.5696 8.05374 20.2413 7.99873 19.8769C7.94372 19.5126 8.03395 19.1411 8.25 18.8426C8.99587 17.845 9.95309 17.0246 11.0531 16.4402C10.4209 15.6887 10.0164 14.7723 9.88733 13.7987C9.75822 12.8252 9.90982 11.835 10.3243 10.9447C10.7388 10.0544 11.3989 9.30092 12.227 8.77299C13.0551 8.24506 14.0168 7.9646 14.9988 7.9646C15.9809 7.9646 16.9426 8.24506 17.7707 8.77299C18.5988 9.30092 19.2589 10.0544 19.6734 10.9447C20.0878 11.835 20.2394 12.8252 20.1103 13.7987C19.9812 14.7723 19.5768 15.6887 18.9445 16.4402C20.0446 17.0246 21.0018 17.845 21.7477 18.8426C21.9046 19.0513 22.0002 19.2997 22.024 19.5598C22.0477 19.8198 21.9985 20.0814 21.882 20.3151C21.7654 20.5488 21.5861 20.7454 21.3641 20.883C21.1421 21.0205 20.8862 21.0935 20.625 21.0938ZM15 15.4688C15.4635 15.4688 15.9167 15.3313 16.3021 15.0738C16.6875 14.8162 16.9879 14.4502 17.1653 14.0219C17.3427 13.5936 17.3891 13.1224 17.2987 12.6678C17.2083 12.2131 16.9851 11.7955 16.6573 11.4677C16.3295 11.1399 15.9119 10.9167 15.4572 10.8263C15.0026 10.7359 14.5314 10.7823 14.1031 10.9597C13.6748 11.1371 13.3088 11.4375 13.0512 11.8229C12.7937 12.2083 12.6562 12.6615 12.6562 13.125C12.6562 13.7466 12.9032 14.3427 13.3427 14.7823C13.7823 15.2218 14.3784 15.4688 15 15.4688Z" fill="#4F46E5"/>
</svg>
