<svg width="21" height="20" viewBox="0 0 21 20" fill="none" xmlns="http://www.w3.org/2000/svg">
<path d="M12.7656 8.75H17.7656C18.097 8.74967 18.4148 8.61787 18.6491 8.38352C18.8835 8.14917 19.0153 7.83142 19.0156 7.5V2.5C19.0153 2.16858 18.8835 1.85083 18.6491 1.61648C18.4148 1.38213 18.097 1.25033 17.7656 1.25H12.7656C12.4342 1.25033 12.1165 1.38213 11.8821 1.61648C11.6478 1.85083 11.516 2.16858 11.5156 2.5H5.89062C5.55921 2.50033 5.24146 2.63213 5.00711 2.86648C4.77276 3.10083 4.64096 3.41858 4.64062 3.75V6.25H2.76562C2.43421 6.25033 2.11646 6.38213 1.88211 6.61648C1.64776 6.85083 1.51596 7.16858 1.51562 7.5V12.5C1.51596 12.8314 1.64776 13.1492 1.88211 13.3835C2.11646 13.6179 2.43421 13.7497 2.76562 13.75H4.01562V16.25C4.01596 16.5814 4.14776 16.8992 4.38211 17.1335C4.61646 17.3679 4.93421 17.4997 5.26562 17.5H11.5156C11.516 17.8314 11.6478 18.1492 11.8821 18.3835C12.1165 18.6179 12.4342 18.7497 12.7656 18.75H17.7656C18.097 18.7497 18.4148 18.6179 18.6491 18.3835C18.8835 18.1492 19.0153 17.8314 19.0156 17.5V12.5C19.0153 12.1686 18.8835 11.8508 18.6491 11.6165C18.4148 11.3821 18.097 11.2503 17.7656 11.25H12.7656C12.4342 11.2503 12.1165 11.3821 11.8821 11.6165C11.6478 11.8508 11.516 12.1686 11.5156 12.5V16.25H5.26562V13.75H7.76562C8.09704 13.7497 8.41479 13.6179 8.64914 13.3835C8.88349 13.1492 9.01529 12.8314 9.01562 12.5V7.5C9.01529 7.16858 8.88349 6.85083 8.64914 6.61648C8.41479 6.38213 8.09704 6.25033 7.76562 6.25H5.89062V3.75H11.5156V7.5C11.516 7.83142 11.6478 8.14917 11.8821 8.38352C12.1165 8.61787 12.4342 8.74967 12.7656 8.75ZM12.7656 17.5V15H17.7656V17.5H12.7656ZM17.7656 12.5V13.75H12.7656V12.5H17.7656ZM2.76562 12.5V10H7.76562V12.5H2.76562ZM7.76562 8.75H2.76562V7.5H7.76562V8.75ZM12.7656 7.5V5H17.7656V7.5H12.7656ZM17.7656 2.5V3.75H12.7656V2.5H17.7656Z" fill="white"/>
</svg>
