<svg width="20" height="20" viewBox="0 0 20 20" fill="none" xmlns="http://www.w3.org/2000/svg">
<path d="M17.8149 3.75V16.25C17.8149 16.6644 17.6503 17.0618 17.3573 17.3549C17.0642 17.6479 16.6668 17.8125 16.2524 17.8125H10.9399C10.6913 17.8125 10.4528 17.7137 10.277 17.5379C10.1012 17.3621 10.0024 17.1236 10.0024 16.875C10.0024 16.6264 10.1012 16.3879 10.277 16.2121C10.4528 16.0363 10.6913 15.9375 10.9399 15.9375H15.9399V4.0625H4.06491V10.9375C4.06491 11.1861 3.96614 11.4246 3.79032 11.6004C3.6145 11.7762 3.37605 11.875 3.12741 11.875C2.87877 11.875 2.64031 11.7762 2.46449 11.6004C2.28868 11.4246 2.18991 11.1861 2.18991 10.9375V3.75C2.18991 3.3356 2.35453 2.93817 2.64755 2.64515C2.94058 2.35212 3.33801 2.1875 3.75241 2.1875H16.2524C16.6668 2.1875 17.0642 2.35212 17.3573 2.64515C17.6503 2.93817 17.8149 3.3356 17.8149 3.75ZM10.0407 11.8367C9.95359 11.7493 9.8501 11.68 9.73614 11.6327C9.62219 11.5853 9.50001 11.561 9.37663 11.561C9.25324 11.561 9.13106 11.5853 9.01711 11.6327C8.90315 11.68 8.79966 11.7493 8.71256 11.8367L5.00241 15.5469L3.79069 14.3367C3.70348 14.2495 3.59995 14.1803 3.48601 14.1331C3.37207 14.0859 3.24995 14.0617 3.12663 14.0617C3.0033 14.0617 2.88118 14.0859 2.76724 14.1331C2.6533 14.1803 2.54977 14.2495 2.46256 14.3367C2.37536 14.4239 2.30618 14.5275 2.25899 14.6414C2.21179 14.7553 2.1875 14.8775 2.1875 15.0008C2.1875 15.1241 2.21179 15.2462 2.25899 15.3602C2.30618 15.4741 2.37536 15.5776 2.46256 15.6648L4.33756 17.5398C4.42466 17.6272 4.52815 17.6966 4.64211 17.7439C4.75606 17.7912 4.87824 17.8156 5.00163 17.8156C5.12501 17.8156 5.24719 17.7912 5.36114 17.7439C5.4751 17.6966 5.57859 17.6272 5.66569 17.5398L10.0407 13.1648C10.1281 13.0777 10.1974 12.9743 10.2448 12.8603C10.2921 12.7463 10.3164 12.6242 10.3164 12.5008C10.3164 12.3774 10.2921 12.2552 10.2448 12.1413C10.1974 12.0273 10.1281 11.9238 10.0407 11.8367Z" fill="white"/>
</svg>
