<svg width="20" height="20" viewBox="0 0 20 20" fill="none" xmlns="http://www.w3.org/2000/svg">
<path d="M5.59995 7.59551L2.71402 10.0002L5.59995 12.4049C5.69566 12.4833 5.7749 12.5799 5.83309 12.6891C5.89128 12.7984 5.92727 12.918 5.939 13.0412C5.95072 13.1644 5.93794 13.2887 5.90139 13.4069C5.86484 13.5251 5.80525 13.6349 5.72605 13.73C5.64685 13.8251 5.54961 13.9036 5.43994 13.9609C5.33027 14.0182 5.21033 14.0532 5.08706 14.064C4.96378 14.0747 4.83959 14.0609 4.72167 14.0234C4.60374 13.9859 4.4944 13.9255 4.39995 13.8455L0.649953 10.7205C0.544337 10.6325 0.459361 10.5224 0.401045 10.3979C0.342729 10.2734 0.3125 10.1377 0.3125 10.0002C0.3125 9.86274 0.342729 9.72696 0.401045 9.60248C0.459361 9.478 0.544337 9.36787 0.649953 9.27989L4.39995 6.15489C4.59126 5.99811 4.83677 5.92328 5.083 5.94671C5.32923 5.97014 5.55623 6.08993 5.71453 6.27998C5.87284 6.47003 5.94962 6.71493 5.92816 6.96134C5.9067 7.20775 5.78873 7.4357 5.59995 7.59551ZM19.35 9.27989L15.6 6.15489C15.5055 6.07493 15.3962 6.01446 15.2782 5.97697C15.1603 5.93948 15.0361 5.9257 14.9129 5.93644C14.7896 5.94718 14.6696 5.98222 14.56 6.03953C14.4503 6.09685 14.3531 6.17531 14.2739 6.27039C14.1947 6.36547 14.1351 6.47529 14.0985 6.59351C14.062 6.71173 14.0492 6.83602 14.0609 6.95921C14.0726 7.0824 14.1086 7.20205 14.1668 7.31126C14.225 7.42047 14.3042 7.51708 14.4 7.59551L17.2859 10.0002L14.4 12.4049C14.3042 12.4833 14.225 12.5799 14.1668 12.6891C14.1086 12.7984 14.0726 12.918 14.0609 13.0412C14.0492 13.1644 14.062 13.2887 14.0985 13.4069C14.1351 13.5251 14.1947 13.6349 14.2739 13.73C14.3531 13.8251 14.4503 13.9036 14.56 13.9609C14.6696 14.0182 14.7896 14.0532 14.9129 14.064C15.0361 14.0747 15.1603 14.0609 15.2782 14.0234C15.3962 13.9859 15.5055 13.9255 15.6 13.8455L19.35 10.7205C19.4556 10.6325 19.5405 10.5224 19.5989 10.3979C19.6572 10.2734 19.6874 10.1377 19.6874 10.0002C19.6874 9.86274 19.6572 9.72696 19.5989 9.60248C19.5405 9.478 19.4556 9.36787 19.35 9.27989ZM12.8203 2.24395C12.7045 2.20187 12.5817 2.18299 12.4586 2.18841C12.3356 2.19382 12.2149 2.22342 12.1033 2.27551C11.9917 2.3276 11.8915 2.40116 11.8083 2.49199C11.7252 2.58283 11.6608 2.68915 11.6187 2.80489L6.6187 16.5549C6.53395 16.7885 6.54543 17.0462 6.65061 17.2714C6.7558 17.4966 6.94608 17.6707 7.17964 17.7557C7.28218 17.7935 7.39065 17.8128 7.49995 17.8127C7.69244 17.8127 7.88026 17.7535 8.03793 17.6431C8.19559 17.5327 8.31544 17.3764 8.3812 17.1955L13.3812 3.44551C13.4233 3.32979 13.4422 3.20691 13.4368 3.08388C13.4313 2.96086 13.4017 2.84011 13.3496 2.72853C13.2976 2.61695 13.224 2.51673 13.1332 2.43358C13.0423 2.35043 12.936 2.286 12.8203 2.24395Z" fill="white"/>
</svg>
