<svg width="20" height="20" viewBox="0 0 20 20" fill="none" xmlns="http://www.w3.org/2000/svg">
<path d="M17.625 4.89432L10.75 1.13026C10.5202 1.00381 10.2623 0.9375 10 0.9375C9.73775 0.9375 9.47975 1.00381 9.25 1.13026L2.375 4.89354C2.129 5.02814 1.92375 5.22646 1.78079 5.4677C1.63784 5.70894 1.56244 5.98421 1.5625 6.26463V13.7349C1.56244 14.0154 1.63784 14.2906 1.78079 14.5319C1.92375 14.7731 2.129 14.9714 2.375 15.106L9.25 18.8693C9.47971 18.9959 9.73772 19.0623 10 19.0623C10.2623 19.0623 10.5203 18.9959 10.75 18.8693L17.625 15.1053C17.8709 14.9707 18.0761 14.7725 18.219 14.5314C18.362 14.2903 18.4374 14.0152 18.4375 13.7349V6.26463C18.4374 5.98435 18.362 5.70924 18.219 5.46815C18.0761 5.22706 17.8709 5.02886 17.625 4.89432ZM12.8125 11.8748V15.6029L10.9375 16.6295V10.5553L16.5625 7.47557V9.26619L13.3 11.0521C13.1524 11.1329 13.0293 11.2519 12.9435 11.3966C12.8577 11.5414 12.8125 11.7065 12.8125 11.8748ZM6.7 11.0521L3.4375 9.26619V7.47557L9.0625 10.5553V16.6295L7.1875 15.6029V11.8748C7.18754 11.7065 7.1423 11.5414 7.05652 11.3966C6.97075 11.2519 6.8476 11.1329 6.7 11.0521ZM6.49531 4.77557L9.55 6.44744C9.68786 6.52329 9.84265 6.56305 10 6.56305C10.1573 6.56305 10.3121 6.52329 10.45 6.44744L13.5047 4.77557L15.5469 5.89432L10 8.93104L4.45312 5.89432L6.49531 4.77557ZM10 2.85682L11.5523 3.70682L10 4.55682L8.44766 3.70682L10 2.85682ZM3.4375 11.406L5.3125 12.4326V14.5787L3.4375 13.5498V11.406ZM14.6875 14.5787V12.4303L16.5625 11.406V13.5521L14.6875 14.5787Z" fill="white"/>
</svg>
