<svg width="29" height="29" viewBox="0 0 29 29" fill="none" xmlns="http://www.w3.org/2000/svg">
<path d="M16.7806 25.026H12.2294V26.7327H16.7806V25.026ZM3.98017 16.7768V12.2255H2.27344V16.7768H3.98017ZM25.0298 16.2796V16.7768H26.7366V16.2796H25.0298ZM17.7944 6.09381L22.2991 10.1479L23.4403 8.87806L18.9368 4.824L17.7944 6.09381ZM26.7366 16.2796C26.7366 14.3578 26.7536 13.1403 26.2701 12.0526L24.7101 12.7478C25.0128 13.4282 25.0298 14.2076 25.0298 16.2796H26.7366ZM22.2991 10.1479C23.8385 11.5337 24.4075 12.0685 24.7101 12.7478L26.2701 12.0526C25.7854 10.9637 24.8694 10.1638 23.4403 8.87806L22.2991 10.1479ZM12.2635 3.97633C14.0635 3.97633 14.7428 3.98998 15.347 4.22209L15.9591 2.62915C14.9897 2.25594 13.9338 2.26959 12.2635 2.26959V3.97633ZM18.9368 4.82514C17.7011 3.71349 16.9286 3.00008 15.9591 2.62915L15.3481 4.22209C15.9535 4.45421 16.4632 4.89568 17.7944 6.09381L18.9368 4.82514ZM12.2294 25.026C10.0595 25.026 8.51894 25.0237 7.34812 24.8667C6.20461 24.7131 5.54467 24.4241 5.06337 23.9428L3.85728 25.1489C4.70837 26.0023 5.78817 26.3789 7.12169 26.5587C8.43019 26.735 10.1085 26.7327 12.2294 26.7327V25.026ZM2.27344 16.7768C2.27344 18.8977 2.27116 20.5749 2.44753 21.8845C2.6273 23.218 3.00506 24.2978 3.85615 25.15L5.06224 23.9439C4.58208 23.4615 4.29307 22.8016 4.13946 21.6569C3.98245 20.4884 3.98017 18.9466 3.98017 16.7768H2.27344ZM16.7806 26.7327C18.9015 26.7327 20.5787 26.735 21.8883 26.5587C23.2219 26.3789 24.3016 26.0011 25.1539 25.15L23.9478 23.9439C23.4653 24.4241 22.8054 24.7131 21.6608 24.8667C20.4922 25.0237 18.9505 25.026 16.7806 25.026V26.7327ZM25.0298 16.7768C25.0298 18.9466 25.0276 20.4884 24.8706 21.6581C24.7169 22.8016 24.4279 23.4615 23.9466 23.9428L25.1527 25.1489C26.0061 24.2978 26.3827 23.218 26.5625 21.8845C26.7389 20.576 26.7366 18.8977 26.7366 16.7768H25.0298ZM3.98017 12.2255C3.98017 10.0557 3.98245 8.51509 4.13946 7.34427C4.29307 6.20076 4.58208 5.54083 5.06337 5.05953L3.85728 3.85344C3.00392 4.70453 2.6273 5.78432 2.44753 7.11785C2.27116 8.42634 2.27344 10.1046 2.27344 12.2255H3.98017ZM12.2635 2.26959C10.1301 2.26959 8.44498 2.26732 7.13079 2.44368C5.79158 2.62346 4.70837 3.00121 3.85615 3.8523L5.06224 5.05839C5.54467 4.57823 6.20575 4.28923 7.35722 4.13562C8.53259 3.9786 10.0823 3.97633 12.2635 3.97633V2.26959Z" fill="white"/>
<path d="M15.6406 3.69238V6.53693C15.6406 9.21878 15.6406 10.5603 16.4735 11.3932C17.3064 12.226 18.6479 12.226 21.3297 12.226H25.881" stroke="white" stroke-width="1.36538"/>
<path d="M7.67969 19.6208L9.1964 21.3275L12.231 17.9141" stroke="white" stroke-width="1.36538" stroke-linecap="round" stroke-linejoin="round"/>
</svg>
