<svg width="182" height="39" viewBox="0 0 182 39" fill="none" xmlns="http://www.w3.org/2000/svg">
<g clip-path="url(#clip0_1100_111997)">
<path d="M2.90625 6.0358C2.90625 6.0358 8.74555 -0.139281 15.9929 0.568175C23.2402 1.27563 26.9713 6.45269 26.9713 6.45269" stroke="#EA5A00" stroke-width="2.06026" stroke-miterlimit="10" stroke-linecap="round"/>
<path d="M0.884471 18.7931C0.884471 18.7931 0.583657 10.6447 8.08375 5.83398" stroke="#EA5A00" stroke-width="2.06026" stroke-miterlimit="10" stroke-linecap="round"/>
<path d="M11.6641 4.56597C11.6641 4.56597 27.7714 2.292 29.2831 18.5231" stroke="#EA5A00" stroke-width="2.06026" stroke-miterlimit="10" stroke-linecap="round"/>
<path d="M1.70312 26.8417C1.70312 26.8417 4.18546 24.209 4.97415 16.5659C5.79064 8.67019 15.998 3.96056 23.0962 11.4899" stroke="#EA5A00" stroke-width="2.06026" stroke-miterlimit="10" stroke-linecap="round"/>
<path d="M4.0625 30.7911C5.4388 29.325 6.50486 27.5964 7.19679 25.7087C7.88873 23.821 8.19231 21.8131 8.08935 19.8053C7.73798 12.9708 12.7203 10.6185 16.0925 11.4902C19.4646 12.3619 21.5804 14.2846 21.8812 17.8219C22.182 21.3592 21.5299 28.6536 24.8514 33.3127" stroke="#EA5A00" stroke-width="2.06026" stroke-miterlimit="10" stroke-linecap="round"/>
<path d="M24.6016 15.1484C24.6016 15.1484 25.2057 17.5538 25.2057 22.319C25.2057 26.8417 26.9752 29.0702 26.9752 29.0702" stroke="#EA5A00" stroke-width="2.06026" stroke-miterlimit="10" stroke-linecap="round"/>
<path d="M5.17969 33.5741C5.17969 33.5741 10.7662 28.5208 10.7662 22.3179C10.7662 15.6527 15.0206 13.4015 17.01 15.4C19.8791 18.2855 17.6647 31.8029 11.6737 38.1801" stroke="#EA5A00" stroke-width="2.06026" stroke-miterlimit="10" stroke-linecap="round"/>
<path d="M14.9372 19.7539C14.9372 19.7539 15.9938 27.5511 9.14844 36.1568" stroke="#EA5A00" stroke-width="2.06026" stroke-miterlimit="10" stroke-linecap="round"/>
<path d="M21.4806 36.4095L19.8198 31.5508L16.0938 38.4864" stroke="#EA5A00" stroke-width="2.06026" stroke-miterlimit="10" stroke-linecap="round"/>
<path d="M65.779 12.19C64.6617 13.3902 63.6505 14.4842 63.5292 14.6055C63.3346 14.8025 63.4256 14.8329 64.376 14.8783L65.4327 14.9238L65.5085 19.1281C65.5843 22.8953 65.6147 23.4108 65.8852 24.0172C66.7901 26.0688 69.4241 26.8116 71.8787 25.6873L72.5738 25.3841V22.9863L71.7876 23.3779C71.2346 23.681 70.6075 23.8228 69.9777 23.7872C68.0743 23.7872 67.8493 23.1808 67.9226 18.2463L67.9681 14.9819L69.9777 14.9365L71.9697 14.891V12.6448L69.9777 12.5993L67.9681 12.5538L67.8923 11.2779L67.819 10.002L65.779 12.19Z" fill="white"/>
<path d="M138.324 10.6896C138.021 11.0559 137.01 12.1323 136.074 13.0898L134.398 14.8357L135.531 14.9116L136.663 14.9873L136.739 19.3155C136.83 24.2045 136.861 24.3687 138.003 25.296C138.908 26.0262 139.52 26.2233 140.809 26.1929C141.505 26.2235 142.198 26.0875 142.831 25.7963L143.691 25.4021V22.9892L142.9 23.3808C142.35 23.6822 141.728 23.824 141.102 23.7901C139.214 23.7901 139.034 23.2848 139.123 18.3553L139.184 14.909H143.079V12.6351L141.087 12.5896L139.08 12.5441V11.2808C139.08 10.5961 139.034 10.0352 138.989 10.0352C138.738 10.2209 138.514 10.4412 138.324 10.6896Z" fill="white"/>
<path d="M94.691 12.5277C93.9388 12.8194 93.2472 13.2477 92.6511 13.7911L92.1227 14.309L92.0772 13.4727L92.0317 12.6389H89.6328V25.9997H92.0469V16.156L92.6965 15.5925C93.9605 14.4707 95.1283 14.2433 96.2911 14.8346C97.2719 15.3399 97.4817 16.5653 97.4817 22.0001V25.9947H99.8984V16.2621L100.594 15.5925C102.027 14.1978 104.079 14.3292 104.835 15.8679C105.242 16.6866 105.318 17.6366 105.341 22.2275V25.9947H107.773L107.727 21.0147C107.682 16.2318 107.666 16.0196 107.32 15.1378C106.85 13.9376 105.702 12.7703 104.691 12.4949C103.174 12.0704 101.658 12.5732 100.209 13.9679C99.7543 14.4101 99.3625 14.6981 99.3321 14.6223C99.1687 14.3421 98.9871 14.0729 98.7886 13.8163C97.8457 12.5884 96.0029 12.0098 94.691 12.5277Z" fill="white"/>
<path d="M114.588 12.6177C112.023 13.497 110.632 15.8189 110.617 19.1869C110.617 22.2669 111.856 24.5914 114.09 25.6677C114.801 26.0038 115.162 26.0796 116.537 26.1099C118.378 26.1705 119.361 25.9583 120.779 25.1826L121.639 24.6975V23.4342C121.639 22.4614 121.593 22.2037 121.459 22.2795C121.325 22.3553 121.022 22.5322 120.734 22.7217C119.601 23.4039 118.757 23.6313 117.26 23.6313C115.541 23.6313 114.985 23.419 114.106 22.3856C113.501 21.7186 113.034 20.5639 113.034 19.8059V19.4573H121.79V18.7119C121.79 17.0115 121.125 15.0988 120.114 13.9442C118.891 12.5267 116.522 11.9481 114.588 12.6177ZM118.031 15.1443C118.681 15.5688 119.164 16.4076 119.315 17.3299L119.419 17.9539H113.034L113.125 17.5295C113.441 16.1929 114.452 15.023 115.496 14.7502C116.36 14.5576 117.264 14.6956 118.031 15.1367V15.1443Z" fill="white"/>
<path d="M122.391 12.6941C122.391 12.7244 122.664 13.3611 123.01 14.1039C123.356 14.8468 123.768 15.7437 123.93 16.1252C124.092 16.5068 124.61 17.5831 125.047 18.5382C125.485 19.4932 125.864 20.2841 125.864 20.3068C125.864 20.3295 126.134 20.946 126.468 21.6585C126.711 22.1418 126.912 22.6447 127.07 23.1619C127.07 23.3438 126.256 25.2868 125.381 27.2045C125.214 27.586 124.777 28.5714 124.428 29.4077C124.079 30.244 123.599 31.3204 123.387 31.7903C123.24 32.0975 123.109 32.4121 122.995 32.7328C122.995 32.7782 123.599 32.8237 124.322 32.8237H125.667L126.089 31.8661C126.316 31.3608 126.739 30.3779 127.027 29.7261C127.555 28.4804 127.613 28.3288 128.414 26.5526C128.667 25.9765 128.882 25.4889 128.882 25.4586C128.882 25.4283 129.094 24.9533 129.35 24.3671C129.855 23.2124 130.03 22.8334 130.614 21.512C130.826 21.0067 131.066 20.4634 131.142 20.2967C131.218 20.1299 131.443 19.6145 131.648 19.1572C132.419 17.4113 132.689 16.7897 132.886 16.3501C133.506 14.968 133.837 14.1949 133.913 13.9953C133.958 13.874 134.095 13.5102 134.228 13.1918L134.481 12.6309H131.822L131.354 13.6416C130.75 14.9933 130.371 15.8271 129.888 16.9818C129.678 17.5149 129.33 18.288 129.13 18.7277C128.93 19.1673 128.735 19.6701 128.677 19.8368L128.571 20.14L128.389 19.8368C128.298 19.6701 127.831 18.6822 127.363 17.6361C126.895 16.5901 126.412 15.4936 126.276 15.2055C126.139 14.9175 125.839 14.2201 125.581 13.6416L125.128 12.6309H123.768C123.308 12.6135 122.847 12.6346 122.391 12.6941Z" fill="white"/>
<path d="M158.583 6.80859H156.359L148.484 25.6294H151.164L153.618 20.0709H161.707L164.162 25.6294H167.016L158.583 6.80859ZM154.791 17.6731L157.587 10.6415L160.782 17.6731H154.791Z" fill="white"/>
<path d="M171.94 6.66406H169.172V25.7729H171.94V6.66406Z" fill="white"/>
<path d="M49.9534 6.17188C47.6186 6.17187 45.3363 6.86389 43.3949 8.16042C41.4536 9.45695 39.9405 11.2998 39.047 13.4558C38.1536 15.6119 37.9198 17.9843 38.3753 20.2732C38.8308 22.562 39.9551 24.6644 41.606 26.3146C43.257 27.9648 45.3605 29.0886 47.6504 29.5439C49.9403 29.9991 52.3139 29.7655 54.471 28.8724C56.6281 27.9793 58.4718 26.467 59.7689 24.5266C61.0661 22.5862 61.7584 20.3049 61.7584 17.9712C61.7584 14.8418 60.5147 11.8406 58.3008 9.62782C56.087 7.41501 53.0843 6.17188 49.9534 6.17188ZM51.9757 26.1828C50.3508 26.1828 48.7625 25.7012 47.4114 24.7989C46.0604 23.8966 45.0074 22.6141 44.3856 21.1136C43.7638 19.6132 43.6011 17.9621 43.9181 16.3692C44.2351 14.7763 45.0175 13.3132 46.1665 12.1648C47.3154 11.0164 48.7793 10.2343 50.3729 9.91746C51.9666 9.60062 53.6184 9.76323 55.1196 10.3847C56.6208 11.0063 57.9039 12.0588 58.8066 13.4091C59.7093 14.7595 60.1912 16.3471 60.1912 17.9712C60.1912 19.05 59.9785 20.1182 59.5653 21.1148C59.1521 22.1114 58.5465 23.0169 57.7831 23.7794C57.0197 24.542 56.1135 25.1468 55.1161 25.5591C54.1188 25.9715 53.0499 26.1834 51.9706 26.1828H51.9757Z" fill="white"/>
<path d="M46.0391 17.7082C46.0386 19.0356 46.4319 20.3333 47.1693 21.4372C47.9068 22.5411 48.9552 23.4016 50.1819 23.9099C51.4087 24.4182 52.7587 24.5515 54.0613 24.2928C55.3638 24.0342 56.5604 23.3952 57.4996 22.4568C58.4388 21.5184 59.0785 20.3227 59.3377 19.0208C59.597 17.719 59.4642 16.3696 58.9561 15.1432C58.448 13.9168 57.5875 12.8686 56.4833 12.1311C55.3792 11.3936 54.081 11 52.753 11C50.9728 11 49.2655 11.7067 48.0064 12.9646C46.7474 14.2226 46.0397 15.9288 46.0391 17.7082ZM46.9314 17.7082C46.9294 16.7838 47.2018 15.8796 47.7142 15.11C48.2265 14.3404 48.9558 13.74 49.8097 13.3849C50.6636 13.0297 51.6037 12.9358 52.511 13.1149C53.4183 13.294 54.2521 13.7382 54.9068 14.3911C55.5614 15.044 56.0076 15.8765 56.1888 16.783C56.3699 17.6895 56.278 18.6293 55.9245 19.4835C55.571 20.3378 54.972 21.068 54.2031 21.5818C53.4343 22.0956 52.5302 22.3698 51.6054 22.3698C50.3675 22.3698 49.1802 21.879 48.3039 21.0051C47.4277 20.1311 46.9341 18.9455 46.9314 17.7082Z" fill="white"/>
<path d="M74.1328 19.2674C74.1328 20.5946 74.5266 21.8921 75.2643 22.9956C76.0021 24.0992 77.0506 24.9593 78.2774 25.4673C79.5042 25.9752 80.8542 26.1081 82.1566 25.8491C83.4589 25.5902 84.6552 24.9511 85.5942 24.0126C86.5332 23.074 87.1726 21.8783 87.4317 20.5766C87.6907 19.2748 87.5578 17.9255 87.0496 16.6993C86.5415 15.4731 85.6809 14.425 84.5768 13.6876C83.4727 12.9502 82.1746 12.5566 80.8468 12.5566C79.0661 12.5566 77.3584 13.2637 76.0993 14.5222C74.8402 15.7807 74.1328 17.4876 74.1328 19.2674ZM75.0277 19.2674C75.0277 18.3433 75.3019 17.4399 75.8156 16.6716C76.3292 15.9033 77.0594 15.3045 77.9136 14.951C78.7678 14.5975 79.7077 14.5051 80.6144 14.6856C81.5211 14.866 82.354 15.3112 83.0075 15.9648C83.6611 16.6184 84.106 17.4511 84.2861 18.3575C84.4662 19.2639 84.3732 20.2033 84.0191 21.0569C83.6649 21.9105 83.0655 22.64 82.2965 23.153C81.5275 23.666 80.6236 23.9396 79.6991 23.9391C79.0854 23.9391 78.4778 23.8182 77.9108 23.5834C77.3439 23.3486 76.8288 23.0045 76.395 22.5706C75.9612 22.1368 75.6171 21.6217 75.3825 21.055C75.1479 20.4882 75.0273 19.8807 75.0277 19.2674Z" fill="white"/>
<path d="M75.0156 19.1678C75.0156 22.8743 77.8241 25.8785 81.2897 25.8785C84.7554 25.8785 87.5638 22.8768 87.5638 19.1678C87.5638 15.4587 84.7554 12.457 81.2897 12.457C77.8241 12.457 75.0156 15.4612 75.0156 19.1678ZM75.8498 19.1678C75.8498 16.5881 77.8064 14.4985 80.2179 14.4985C82.6295 14.4985 84.5835 16.5881 84.5835 19.1678C84.5835 21.7474 82.6295 23.8395 80.2179 23.8395C77.8064 23.8395 75.8498 21.7474 75.8498 19.1678Z" fill="white"/>
</g>
<defs>
<clipPath id="clip0_1100_111997">
<rect width="182" height="39" fill="white"/>
</clipPath>
</defs>
</svg>
