<svg width="16" height="16" viewBox="0 0 16 16" fill="none" xmlns="http://www.w3.org/2000/svg">
<path d="M3.555 1.99563C3.48471 1.91827 3.39903 1.85646 3.30346 1.81416C3.20788 1.77187 3.10452 1.75001 3 1.75C2.66848 1.75 2.35054 1.8817 2.11612 2.11612C1.8817 2.35054 1.75 2.66848 1.75 3V13C1.75 13.3315 1.8817 13.6495 2.11612 13.8839C2.35054 14.1183 2.66848 14.25 3 14.25H13C13.1453 14.25 13.2874 14.2078 13.4092 14.1285C13.5309 14.0492 13.627 13.9363 13.6858 13.8035C13.7446 13.6706 13.7635 13.5235 13.7403 13.3801C13.7171 13.2367 13.6527 13.1031 13.555 12.9956L3.555 1.99563ZM3.25 12.75V3.89L11.3044 12.75H3.25ZM14.25 3V10.3337C14.25 10.5327 14.171 10.7234 14.0303 10.8641C13.8897 11.0047 13.6989 11.0837 13.5 11.0837C13.3011 11.0837 13.1103 11.0047 12.9697 10.8641C12.829 10.7234 12.75 10.5327 12.75 10.3337V6.25H9.10563C8.90671 6.25 8.71595 6.17098 8.57529 6.03033C8.43464 5.88968 8.35563 5.69891 8.35563 5.5C8.35563 5.30109 8.43464 5.11032 8.57529 4.96967C8.71595 4.82902 8.90671 4.75 9.10563 4.75H12.75V3.25H11.75C11.75 3.44891 11.671 3.63968 11.5303 3.78033C11.3897 3.92098 11.1989 4 11 4C10.8011 4 10.6103 3.92098 10.4697 3.78033C10.329 3.63968 10.25 3.44891 10.25 3.25H6.37875C6.17984 3.25 5.98907 3.17098 5.84842 3.03033C5.70777 2.88968 5.62875 2.69891 5.62875 2.5C5.62875 2.30109 5.70777 2.11032 5.84842 1.96967C5.98907 1.82902 6.17984 1.75 6.37875 1.75H10.25V1.5C10.25 1.30109 10.329 1.11032 10.4697 0.96967C10.6103 0.829018 10.8011 0.75 11 0.75C11.1989 0.75 11.3897 0.829018 11.5303 0.96967C11.671 1.11032 11.75 1.30109 11.75 1.5V1.75H13C13.3315 1.75 13.6495 1.8817 13.8839 2.11612C14.1183 2.35054 14.25 2.66848 14.25 3Z" fill="white"/>
</svg>
