<svg width="16" height="16" viewBox="0 0 16 16" fill="none" xmlns="http://www.w3.org/2000/svg">
<path d="M9.25 9.5C9.25 9.74723 9.17669 9.9889 9.03934 10.1945C8.90199 10.4 8.70676 10.5602 8.47835 10.6548C8.24995 10.7495 7.99861 10.7742 7.75614 10.726C7.51366 10.6778 7.29093 10.5587 7.11612 10.3839C6.9413 10.2091 6.82225 9.98634 6.77402 9.74386C6.72579 9.50139 6.75054 9.25005 6.84515 9.02165C6.93976 8.79324 7.09998 8.59801 7.30554 8.46066C7.5111 8.32331 7.75277 8.25 8 8.25C8.33152 8.25 8.64946 8.3817 8.88388 8.61612C9.1183 8.85054 9.25 9.16848 9.25 9.5ZM14.25 3V13C14.25 13.3315 14.1183 13.6495 13.8839 13.8839C13.6495 14.1183 13.3315 14.25 13 14.25H3C2.66848 14.25 2.35054 14.1183 2.11612 13.8839C1.8817 13.6495 1.75 13.3315 1.75 13V3C1.75 2.66848 1.8817 2.35054 2.11612 2.11612C2.35054 1.8817 2.66848 1.75 3 1.75H4.25V1.5C4.25 1.30109 4.32902 1.11032 4.46967 0.96967C4.61032 0.829018 4.80109 0.75 5 0.75C5.19891 0.75 5.38968 0.829018 5.53033 0.96967C5.67098 1.11032 5.75 1.30109 5.75 1.5V1.75H10.25V1.5C10.25 1.30109 10.329 1.11032 10.4697 0.96967C10.6103 0.829018 10.8011 0.75 11 0.75C11.1989 0.75 11.3897 0.829018 11.5303 0.96967C11.671 1.11032 11.75 1.30109 11.75 1.5V1.75H13C13.3315 1.75 13.6495 1.8817 13.8839 2.11612C14.1183 2.35054 14.25 2.66848 14.25 3ZM3.25 3.25V4.75H12.75V3.25H11.75C11.75 3.44891 11.671 3.63968 11.5303 3.78033C11.3897 3.92098 11.1989 4 11 4C10.8011 4 10.6103 3.92098 10.4697 3.78033C10.329 3.63968 10.25 3.44891 10.25 3.25H5.75C5.75 3.44891 5.67098 3.63968 5.53033 3.78033C5.38968 3.92098 5.19891 4 5 4C4.80109 4 4.61032 3.92098 4.46967 3.78033C4.32902 3.63968 4.25 3.44891 4.25 3.25H3.25ZM12.75 12.75V6.25H3.25V12.75H12.75Z" fill="white"/>
</svg>
