<svg width="13" height="13" viewBox="0 0 13 13" fill="none" xmlns="http://www.w3.org/2000/svg">
<path d="M12.3556 4.61742L5.83529 11.1377C5.68293 11.29 5.47635 11.3755 5.26096 11.3755C5.04556 11.3755 4.83898 11.29 4.68662 11.1377L1.04967 7.48148C0.897565 7.32914 0.812134 7.12267 0.812134 6.9074C0.812134 6.69213 0.897565 6.48565 1.04967 6.33332L2.06529 5.31769C2.21757 5.16605 2.42371 5.08092 2.63861 5.08092C2.85351 5.08092 3.05966 5.16605 3.21193 5.31769L5.28127 7.32457L10.1949 2.4714C10.3472 2.31961 10.5534 2.23438 10.7684 2.23438C10.9835 2.23438 11.1897 2.31961 11.342 2.4714L12.3551 3.46367C12.4313 3.53917 12.4918 3.629 12.5331 3.728C12.5744 3.82699 12.5956 3.93318 12.5957 4.04044C12.5957 4.1477 12.5745 4.2539 12.5333 4.35293C12.4921 4.45196 12.4317 4.54185 12.3556 4.61742Z" fill="#4ADE80"/>
</svg>
