<svg width="16" height="15" viewBox="0 0 16 15" fill="none" xmlns="http://www.w3.org/2000/svg">
<path d="M14.4206 1.51524C14.2734 1.36792 14.0895 1.26252 13.8879 1.20989C13.6864 1.15726 13.4744 1.15931 13.2739 1.21582L13.2611 1.21992L2.01633 4.62891C1.78828 4.69505 1.5857 4.82892 1.43542 5.01277C1.28515 5.19663 1.19427 5.4218 1.17483 5.65845C1.15539 5.89511 1.2083 6.13209 1.32656 6.338C1.44481 6.54392 1.62283 6.70905 1.83704 6.81152L6.73664 9.19922L9.122 14.1006C9.21606 14.3006 9.36528 14.4696 9.55212 14.5878C9.73896 14.7059 9.95564 14.7682 10.1767 14.7674C10.2101 14.7674 10.2441 14.7674 10.2781 14.7633C10.5153 14.745 10.7413 14.6543 10.9253 14.5034C11.1094 14.3525 11.2426 14.1487 11.307 13.9195L14.7159 2.67481C14.7177 2.67063 14.719 2.66632 14.72 2.66192C14.7766 2.46142 14.7786 2.24949 14.726 2.04794C14.6733 1.84639 14.5679 1.66251 14.4206 1.51524ZM10.1298 12.9533L8.11594 8.81426L10.8113 6.12188C10.8767 6.05647 10.9285 5.97883 10.9639 5.89337C10.9993 5.80792 11.0176 5.71633 11.0176 5.62383C11.0176 5.53133 10.9993 5.43974 10.9639 5.35429C10.9285 5.26883 10.8767 5.19119 10.8113 5.12578C10.7458 5.06038 10.6682 5.0085 10.5827 4.9731C10.4973 4.9377 10.4057 4.91948 10.3132 4.91948C10.2207 4.91948 10.1291 4.9377 10.0437 4.9731C9.95821 5.0085 9.88056 5.06038 9.81516 5.12578L7.11985 7.82109L2.98254 5.80606L13.2406 2.69531L10.1298 12.9533Z" fill="#8E8E8F"/>
</svg>
