<svg width="13" height="13" viewBox="0 0 13 13" fill="none" xmlns="http://www.w3.org/2000/svg">
<path d="M6.5 1.01562C5.4153 1.01563 4.35495 1.33728 3.45305 1.93991C2.55115 2.54254 1.8482 3.39908 1.4331 4.40122C1.018 5.40336 0.909392 6.50608 1.12101 7.56995C1.33262 8.63381 1.85496 9.61103 2.62196 10.378C3.38897 11.145 4.36619 11.6674 5.43005 11.879C6.49392 12.0906 7.59664 11.982 8.59878 11.5669C9.60092 11.1518 10.4575 10.4489 11.0601 9.54696C11.6627 8.64505 11.9844 7.58471 11.9844 6.5C11.9828 5.04595 11.4044 3.65191 10.3763 2.62374C9.34809 1.59557 7.95405 1.01724 6.5 1.01562ZM6.5 10.7656C5.65634 10.7656 4.83163 10.5154 4.13015 10.0467C3.42867 9.57802 2.88193 8.91182 2.55908 8.13238C2.23622 7.35294 2.15175 6.49527 2.31634 5.66782C2.48093 4.84037 2.88719 4.08031 3.48375 3.48375C4.08031 2.88719 4.84037 2.48093 5.66782 2.31634C6.49527 2.15175 7.35294 2.23622 8.13239 2.55908C8.91183 2.88193 9.57803 3.42867 10.0467 4.13015C10.5155 4.83162 10.7656 5.65634 10.7656 6.5C10.7644 7.63094 10.3146 8.71522 9.51492 9.51492C8.71522 10.3146 7.63094 10.7644 6.5 10.7656ZM3.85938 5.48437C3.85938 5.32368 3.90703 5.16659 3.99631 5.03297C4.08559 4.89936 4.21248 4.79522 4.36095 4.73372C4.50941 4.67223 4.67278 4.65614 4.83039 4.68749C4.988 4.71884 5.13277 4.79622 5.2464 4.90985C5.36003 5.02348 5.43741 5.16825 5.46877 5.32586C5.50012 5.48347 5.48403 5.64684 5.42253 5.7953C5.36103 5.94377 5.25689 6.07066 5.12328 6.15994C4.98966 6.24922 4.83257 6.29687 4.67188 6.29687C4.45639 6.29687 4.24973 6.21127 4.09735 6.0589C3.94498 5.90653 3.85938 5.69986 3.85938 5.48437ZM9.14063 5.48437C9.14063 5.64507 9.09297 5.80216 9.0037 5.93578C8.91442 6.06939 8.78752 6.17353 8.63906 6.23503C8.49059 6.29652 8.32723 6.31261 8.16962 6.28126C8.01201 6.24991 7.86723 6.17253 7.7536 6.0589C7.63997 5.94527 7.56259 5.8005 7.53124 5.64289C7.49989 5.48528 7.51598 5.32191 7.57747 5.17344C7.63897 5.02498 7.74311 4.89808 7.87673 4.80881C8.01034 4.71953 8.16743 4.67187 8.32813 4.67187C8.54362 4.67187 8.75028 4.75748 8.90265 4.90985C9.05502 5.06222 9.14063 5.26889 9.14063 5.48437ZM8.97508 8.37891C9.06359 8.51029 9.09745 8.67098 9.0695 8.82691C9.04154 8.98284 8.95396 9.12175 8.82532 9.21421C8.69668 9.30666 8.53709 9.34538 8.38038 9.32217C8.22368 9.29895 8.08217 9.21562 7.98586 9.08984C7.81663 8.85374 7.59358 8.66137 7.33518 8.52867C7.07679 8.39596 6.79048 8.32674 6.5 8.32674C6.20952 8.32674 5.92322 8.39596 5.66482 8.52867C5.40642 8.66137 5.18337 8.85374 5.01414 9.08984C4.91783 9.21562 4.77633 9.29895 4.61962 9.32217C4.46291 9.34538 4.30333 9.30666 4.17469 9.21421C4.04604 9.12175 3.95846 8.98284 3.93051 8.82691C3.90255 8.67098 3.93642 8.51029 4.02492 8.37891C4.30704 7.98594 4.67867 7.6658 5.10907 7.44497C5.53946 7.22413 6.01626 7.10895 6.5 7.10895C6.98375 7.10895 7.46054 7.22413 7.89094 7.44497C8.32133 7.6658 8.69296 7.98594 8.97508 8.37891Z" fill="#EA580C"/>
</svg>
