<svg width="17" height="16" viewBox="0 0 17 16" fill="none" xmlns="http://www.w3.org/2000/svg">
<path d="M14.8931 7.17741L12.0806 9.60429L12.9375 13.2337C12.9848 13.4307 12.9726 13.6373 12.9025 13.8274C12.8324 14.0175 12.7076 14.1826 12.5437 14.3018C12.3798 14.4209 12.1843 14.4889 11.9819 14.497C11.7794 14.5051 11.5791 14.4531 11.4062 14.3474L8.24999 12.4049L5.09187 14.3474C4.91901 14.4525 4.71893 14.504 4.51683 14.4956C4.31472 14.4872 4.11963 14.4191 3.95612 14.3001C3.7926 14.181 3.66798 14.0162 3.59793 13.8264C3.52789 13.6367 3.51556 13.4304 3.56249 13.2337L4.42249 9.60429L1.60999 7.17741C1.45705 7.04523 1.34644 6.87092 1.29198 6.67626C1.23752 6.48159 1.24161 6.27519 1.30375 6.08283C1.36589 5.89048 1.48332 5.72069 1.64138 5.59468C1.79944 5.46867 1.99113 5.39201 2.19249 5.37429L5.87999 5.07679L7.30249 1.63429C7.37949 1.44667 7.51054 1.28619 7.67897 1.17325C7.84741 1.06031 8.04563 1 8.24843 1C8.45123 1 8.64945 1.06031 8.81788 1.17325C8.98632 1.28619 9.11737 1.44667 9.19437 1.63429L10.6162 5.07679L14.3037 5.37429C14.5055 5.39135 14.6977 5.46758 14.8564 5.59342C15.015 5.71926 15.133 5.88911 15.1955 6.0817C15.258 6.27429 15.2623 6.48105 15.2079 6.67607C15.1534 6.87109 15.0426 7.04571 14.8894 7.17804L14.8931 7.17741Z" fill="#EAB308"/>
</svg>
