<svg width="1151" height="21" viewBox="0 0 1151 21" fill="none" xmlns="http://www.w3.org/2000/svg">
<g filter="url(#filter0_d_912_39666)">
<path d="M13.3594 8.43805V12.1881C13.3594 12.3745 13.2853 12.5534 13.1534 12.6852C13.0216 12.8171 12.8427 12.8912 12.6562 12.8912H2.34375C2.15727 12.8912 1.97843 12.8171 1.84657 12.6852C1.7147 12.5534 1.64062 12.3745 1.64062 12.1881V8.43805C1.64062 8.25157 1.7147 8.07273 1.84657 7.94087C1.97843 7.80901 2.15727 7.73493 2.34375 7.73493C2.53023 7.73493 2.70907 7.80901 2.84093 7.94087C2.9728 8.07273 3.04688 8.25157 3.04688 8.43805V11.4849H11.9531V8.43805C11.9531 8.25157 12.0272 8.07273 12.1591 7.94087C12.2909 7.80901 12.4698 7.73493 12.6562 7.73493C12.8427 7.73493 13.0216 7.80901 13.1534 7.94087C13.2853 8.07273 13.3594 8.25157 13.3594 8.43805ZM5.65371 4.71677L6.79688 3.57477V8.43805C6.79688 8.62453 6.87095 8.80338 7.00282 8.93524C7.13468 9.0671 7.31352 9.14118 7.5 9.14118C7.68648 9.14118 7.86532 9.0671 7.99718 8.93524C8.12905 8.80338 8.20312 8.62453 8.20312 8.43805V3.57477L9.34629 4.71852C9.41169 4.78393 9.48934 4.83581 9.5748 4.87121C9.66025 4.9066 9.75184 4.92482 9.84434 4.92482C9.93683 4.92482 10.0284 4.9066 10.1139 4.87121C10.1993 4.83581 10.277 4.78393 10.3424 4.71852C10.4078 4.65312 10.4597 4.57547 10.4951 4.49002C10.5305 4.40456 10.5487 4.31297 10.5487 4.22048C10.5487 4.12798 10.5305 4.03639 10.4951 3.95093C10.4597 3.86548 10.4078 3.78783 10.3424 3.72243L7.99863 1.37868C7.93331 1.31313 7.85569 1.26112 7.77022 1.22563C7.68476 1.19014 7.59313 1.17188 7.50059 1.17188C7.40804 1.17188 7.31641 1.19014 7.23095 1.22563C7.14548 1.26112 7.06786 1.31313 7.00254 1.37868L4.65879 3.72243C4.59338 3.78783 4.5415 3.86548 4.50611 3.95093C4.47071 4.03639 4.45249 4.12798 4.45249 4.22048C4.45249 4.40728 4.5267 4.58643 4.65879 4.71852C4.79088 4.85061 4.97003 4.92482 5.15684 4.92482C5.34364 4.92482 5.52279 4.85061 5.65488 4.71852L5.65371 4.71677Z" fill="#667383"/>
</g>
<defs>
<filter id="filter0_d_912_39666" x="0" y="0" width="30019" height="23" filterUnits="userSpaceOnUse" color-interpolation-filters="sRGB">
<feFlood flood-opacity="0" result="BackgroundImageFix"/>
<feColorMatrix in="SourceAlpha" type="matrix" values="0 0 0 0 0 0 0 0 0 0 0 0 0 0 0 0 0 0 127 0" result="hardAlpha"/>
<feOffset dx="30000" dy="4"/>
<feGaussianBlur stdDeviation="2"/>
<feComposite in2="hardAlpha" operator="out"/>
<feColorMatrix type="matrix" values="0 0 0 0 0 0 0 0 0 0 0 0 0 0 0 0 0 0 0.25 0"/>
<feBlend mode="normal" in2="BackgroundImageFix" result="effect1_dropShadow_912_39666"/>
<feBlend mode="normal" in="SourceGraphic" in2="effect1_dropShadow_912_39666" result="shape"/>
</filter>
</defs>
</svg>
