<svg width="20" height="21" viewBox="0 0 20 21" fill="none" xmlns="http://www.w3.org/2000/svg">
<g clip-path="url(#clip0_896_52901)">
<path d="M20.0002 11.1267C20.0002 11.3753 19.9014 11.6138 19.7256 11.7896C19.5498 11.9654 19.3113 12.0642 19.0627 12.0642H18.4377V12.6892C18.4377 12.9378 18.3389 13.1763 18.1631 13.3521C17.9873 13.5279 17.7488 13.6267 17.5002 13.6267C17.2515 13.6267 17.0131 13.5279 16.8373 13.3521C16.6615 13.1763 16.5627 12.9378 16.5627 12.6892V12.0642H15.9377C15.689 12.0642 15.4506 11.9654 15.2748 11.7896C15.099 11.6138 15.0002 11.3753 15.0002 11.1267C15.0002 10.8781 15.099 10.6396 15.2748 10.4638C15.4506 10.288 15.689 10.1892 15.9377 10.1892H16.5627V9.56419C16.5627 9.31555 16.6615 9.0771 16.8373 8.90128C17.0131 8.72547 17.2515 8.62669 17.5002 8.62669C17.7488 8.62669 17.9873 8.72547 18.1631 8.90128C18.3389 9.0771 18.4377 9.31555 18.4377 9.56419V10.1892H19.0627C19.3113 10.1892 19.5498 10.288 19.7256 10.4638C19.9014 10.6396 20.0002 10.8781 20.0002 11.1267ZM15.7181 15.5236C15.8781 15.714 15.9559 15.9601 15.9343 16.2079C15.9128 16.4557 15.7937 16.6847 15.6033 16.8447C15.4129 17.0046 15.1667 17.0824 14.919 17.0608C14.6712 17.0393 14.4422 16.9202 14.2822 16.7298C13.2127 15.4564 11.3283 13.9392 8.43768 13.9392C6.18065 13.9392 4.10487 14.9298 2.59315 16.7298C2.43319 16.9202 2.20414 17.0393 1.95639 17.0608C1.70863 17.0824 1.46247 17.0046 1.27205 16.8447C1.08164 16.6847 0.962563 16.4557 0.941026 16.2079C0.919488 15.9601 0.997252 15.714 1.15721 15.5236C2.17575 14.2934 3.48243 13.334 4.96112 12.7306C4.04161 12.0077 3.37033 11.0161 3.04069 9.89387C2.71105 8.77163 2.73945 7.57454 3.12193 6.46919C3.50441 5.36384 4.22196 4.40521 5.17471 3.72671C6.12746 3.04821 7.26802 2.68359 8.43768 2.68359C9.60734 2.68359 10.7479 3.04821 11.7007 3.72671C12.6534 4.40521 13.3709 5.36384 13.7534 6.46919C14.1359 7.57454 14.1643 8.77163 13.8347 9.89387C13.505 11.0161 12.8337 12.0077 11.9142 12.7306C13.3931 13.3338 14.6998 14.2933 15.7181 15.5236ZM8.43768 12.0642C9.17936 12.0642 9.90438 11.8443 10.5211 11.4322C11.1378 11.0201 11.6184 10.4345 11.9022 9.74926C12.1861 9.06403 12.2603 8.31003 12.1156 7.5826C11.9709 6.85518 11.6138 6.18699 11.0893 5.66254C10.5649 5.1381 9.8967 4.78094 9.16927 4.63625C8.44184 4.49155 7.68784 4.56582 7.00262 4.84965C6.31739 5.13347 5.73172 5.61412 5.31967 6.2308C4.90761 6.84749 4.68768 7.57251 4.68768 8.31419C4.68871 9.30844 5.08413 10.2617 5.78717 10.9647C6.49021 11.6677 7.44344 12.0632 8.43768 12.0642Z" fill="white"/>
</g>
<defs>
<clipPath id="clip0_896_52901">
<rect width="20" height="20" fill="white" transform="translate(0 0.5)"/>
</clipPath>
</defs>
</svg>
