<svg width="41" height="42" viewBox="0 0 41 42" fill="none" xmlns="http://www.w3.org/2000/svg">
<path d="M20.0879 4.67773C16.8599 4.67773 13.7043 5.63496 11.0203 7.42837C8.33626 9.22178 6.24432 11.7708 5.00899 14.7531C3.77367 17.7355 3.45046 21.0172 4.08022 24.1832C4.70998 27.3492 6.26443 30.2574 8.54701 32.54C10.8296 34.8225 13.7378 36.377 16.9038 37.0067C20.0698 37.6365 23.3515 37.3133 26.3338 36.078C29.3161 34.8427 31.8652 32.7507 33.6586 30.0667C35.452 27.3827 36.4092 24.2271 36.4092 20.999C36.4047 16.6718 34.6836 12.523 31.6238 9.46318C28.5639 6.40333 24.4152 4.6823 20.0879 4.67773ZM26.3653 22.2545H16.8409L19.7207 25.1327C19.8373 25.2494 19.9299 25.3879 19.993 25.5403C20.0561 25.6927 20.0886 25.856 20.0886 26.021C20.0886 26.186 20.0561 26.3493 19.993 26.5017C19.9299 26.6541 19.8373 26.7926 19.7207 26.9092C19.604 27.0259 19.4656 27.1184 19.3132 27.1816C19.1607 27.2447 18.9974 27.2772 18.8324 27.2772C18.6675 27.2772 18.5041 27.2447 18.3517 27.1816C18.1993 27.1184 18.0608 27.0259 17.9442 26.9092L12.9222 21.8873C12.8055 21.7707 12.7129 21.6322 12.6497 21.4798C12.5865 21.3274 12.554 21.164 12.554 20.999C12.554 20.8341 12.5865 20.6707 12.6497 20.5183C12.7129 20.3659 12.8055 20.2274 12.9222 20.1108L17.9442 15.0888C18.1798 14.8533 18.4993 14.7209 18.8324 14.7209C19.1656 14.7209 19.4851 14.8533 19.7207 15.0888C19.9563 15.3244 20.0886 15.6439 20.0886 15.9771C20.0886 16.3103 19.9563 16.6298 19.7207 16.8654L16.8409 19.7436H26.3653C26.6983 19.7436 27.0177 19.8758 27.2531 20.1113C27.4886 20.3467 27.6208 20.6661 27.6208 20.999C27.6208 21.332 27.4886 21.6514 27.2531 21.8868C27.0177 22.1223 26.6983 22.2545 26.3653 22.2545Z" fill="#323341"/>
</svg>
