<svg width="16" height="16" viewBox="0 0 16 16" fill="none" xmlns="http://www.w3.org/2000/svg">
<path d="M13.0859 2.14062H11.9141V1.90625C11.9141 1.71977 11.84 1.54093 11.7081 1.40907C11.5763 1.2772 11.3974 1.20312 11.2109 1.20312C11.0245 1.20313 10.8456 1.2772 10.7138 1.40907C10.5819 1.54093 10.5078 1.71977 10.5078 1.90625V2.14062H6.28906V1.90625C6.28906 1.71977 6.21498 1.54093 6.08312 1.40907C5.95126 1.2772 5.77242 1.20312 5.58594 1.20312C5.39946 1.20313 5.22061 1.2772 5.08875 1.40907C4.95689 1.54093 4.88281 1.71977 4.88281 1.90625V2.14062H3.71094C3.40014 2.14062 3.10207 2.26409 2.8823 2.48386C2.66253 2.70363 2.53906 3.0017 2.53906 3.3125V12.6875C2.53906 12.9983 2.66253 13.2964 2.8823 13.5161C3.10207 13.7359 3.40014 13.8594 3.71094 13.8594H13.0859C13.3967 13.8594 13.6948 13.7359 13.9146 13.5161C14.1343 13.2964 14.2578 12.9983 14.2578 12.6875V3.3125C14.2578 3.0017 14.1343 2.70363 13.9146 2.48386C13.6948 2.26409 13.3967 2.14062 13.0859 2.14062ZM4.88281 3.54688C4.88281 3.73336 4.95689 3.9122 5.08875 4.04406C5.22061 4.17592 5.39946 4.25 5.58594 4.25C5.77242 4.25 5.95126 4.17592 6.08312 4.04406C6.21498 3.9122 6.28906 3.73336 6.28906 3.54688H10.5078C10.5078 3.73336 10.5819 3.9122 10.7138 4.04406C10.8456 4.17592 11.0245 4.25 11.2109 4.25C11.3974 4.25 11.5763 4.17592 11.7081 4.04406C11.84 3.9122 11.9141 3.73336 11.9141 3.54688H12.8516V4.95312H3.94531V3.54688H4.88281ZM3.94531 12.4531V6.35938H12.8516V12.4531H3.94531ZM9.33594 8C9.33594 8.18542 9.28095 8.36668 9.17794 8.52085C9.07493 8.67502 8.92851 8.79518 8.7572 8.86614C8.5859 8.93709 8.3974 8.95566 8.21554 8.91949C8.03368 8.88331 7.86664 8.79402 7.73553 8.66291C7.60441 8.5318 7.51512 8.36475 7.47895 8.1829C7.44278 8.00104 7.46134 7.81254 7.5323 7.64123C7.60326 7.46993 7.72342 7.32351 7.87759 7.2205C8.03176 7.11748 8.21302 7.0625 8.39844 7.0625C8.64708 7.0625 8.88553 7.16127 9.06135 7.33709C9.23717 7.5129 9.33594 7.75136 9.33594 8ZM12.1484 8C12.1484 8.18542 12.0935 8.36668 11.9904 8.52085C11.8874 8.67502 11.741 8.79518 11.5697 8.86614C11.3984 8.93709 11.2099 8.95566 11.028 8.91949C10.8462 8.88331 10.6791 8.79402 10.548 8.66291C10.4169 8.5318 10.3276 8.36475 10.2915 8.1829C10.2553 8.00104 10.2738 7.81254 10.3448 7.64123C10.4158 7.46993 10.5359 7.32351 10.6901 7.2205C10.8443 7.11748 11.0255 7.0625 11.2109 7.0625C11.4596 7.0625 11.698 7.16127 11.8738 7.33709C12.0497 7.5129 12.1484 7.75136 12.1484 8ZM6.52344 10.8125C6.52344 10.9979 6.46845 11.1792 6.36544 11.3333C6.26243 11.4875 6.11601 11.6077 5.9447 11.6786C5.7734 11.7496 5.5849 11.7682 5.40304 11.732C5.22118 11.6958 5.05414 11.6065 4.92303 11.4754C4.79191 11.3443 4.70262 11.1773 4.66645 10.9954C4.63028 10.8135 4.64884 10.625 4.7198 10.4537C4.79076 10.2824 4.91092 10.136 5.06509 10.033C5.21926 9.92998 5.40052 9.875 5.58594 9.875C5.83458 9.875 6.07303 9.97377 6.24885 10.1496C6.42467 10.3254 6.52344 10.5639 6.52344 10.8125ZM9.33594 10.8125C9.33594 10.9979 9.28095 11.1792 9.17794 11.3333C9.07493 11.4875 8.92851 11.6077 8.7572 11.6786C8.5859 11.7496 8.3974 11.7682 8.21554 11.732C8.03368 11.6958 7.86664 11.6065 7.73553 11.4754C7.60441 11.3443 7.51512 11.1773 7.47895 10.9954C7.44278 10.8135 7.46134 10.625 7.5323 10.4537C7.60326 10.2824 7.72342 10.136 7.87759 10.033C8.03176 9.92998 8.21302 9.875 8.39844 9.875C8.64708 9.875 8.88553 9.97377 9.06135 10.1496C9.23717 10.3254 9.33594 10.5639 9.33594 10.8125ZM12.1484 10.8125C12.1484 10.9979 12.0935 11.1792 11.9904 11.3333C11.8874 11.4875 11.741 11.6077 11.5697 11.6786C11.3984 11.7496 11.2099 11.7682 11.028 11.732C10.8462 11.6958 10.6791 11.6065 10.548 11.4754C10.4169 11.3443 10.3276 11.1773 10.2915 10.9954C10.2553 10.8135 10.2738 10.625 10.3448 10.4537C10.4158 10.2824 10.5359 10.136 10.6901 10.033C10.8443 9.92998 11.0255 9.875 11.2109 9.875C11.4596 9.875 11.698 9.97377 11.8738 10.1496C12.0497 10.3254 12.1484 10.5639 12.1484 10.8125Z" fill="#FB923C"/>
</svg>
