<svg width="67" height="67" viewBox="0 0 67 67" fill="none" xmlns="http://www.w3.org/2000/svg">
<g filter="url(#filter0_f_539_11124)">
<circle cx="33.1562" cy="33.9258" r="10" fill="#16A34A"/>
</g>
<circle cx="33.1562" cy="34.9258" r="9" fill="white"/>
<path d="M33 25.25C31.0716 25.25 29.1866 25.8218 27.5832 26.8932C25.9798 27.9645 24.7301 29.4873 23.9922 31.2688C23.2542 33.0504 23.0611 35.0108 23.4373 36.9021C23.8136 38.7934 24.7422 40.5307 26.1057 41.8943C27.4693 43.2579 29.2066 44.1865 31.0979 44.5627C32.9892 44.9389 34.9496 44.7458 36.7312 44.0078C38.5127 43.2699 40.0355 42.0202 41.1068 40.4168C42.1782 38.8134 42.75 36.9284 42.75 35C42.7473 32.415 41.7192 29.9366 39.8913 28.1087C38.0634 26.2808 35.585 25.2527 33 25.25ZM37.2806 33.2806L32.0306 38.5306C31.961 38.6004 31.8783 38.6557 31.7872 38.6934C31.6962 38.7312 31.5986 38.7506 31.5 38.7506C31.4014 38.7506 31.3038 38.7312 31.2128 38.6934C31.1218 38.6557 31.039 38.6004 30.9694 38.5306L28.7194 36.2806C28.5786 36.1399 28.4996 35.949 28.4996 35.75C28.4996 35.551 28.5786 35.3601 28.7194 35.2194C28.8601 35.0786 29.051 34.9996 29.25 34.9996C29.449 34.9996 29.6399 35.0786 29.7806 35.2194L31.5 36.9397L36.2194 32.2194C36.2891 32.1497 36.3718 32.0944 36.4628 32.0567C36.5539 32.019 36.6515 31.9996 36.75 31.9996C36.8486 31.9996 36.9461 32.019 37.0372 32.0567C37.1282 32.0944 37.2109 32.1497 37.2806 32.2194C37.3503 32.2891 37.4056 32.3718 37.4433 32.4628C37.481 32.5539 37.5004 32.6515 37.5004 32.75C37.5004 32.8485 37.481 32.9461 37.4433 33.0372C37.4056 33.1282 37.3503 33.2109 37.2806 33.2806Z" fill="#16A34A"/>
<defs>
<filter id="filter0_f_539_11124" x="0.15625" y="0.925781" width="66" height="66" filterUnits="userSpaceOnUse" color-interpolation-filters="sRGB">
<feFlood flood-opacity="0" result="BackgroundImageFix"/>
<feBlend mode="normal" in="SourceGraphic" in2="BackgroundImageFix" result="shape"/>
<feGaussianBlur stdDeviation="11.5" result="effect1_foregroundBlur_539_11124"/>
</filter>
</defs>
</svg>
