<svg width="16" height="16" viewBox="0 0 16 16" fill="none" xmlns="http://www.w3.org/2000/svg">
<path d="M8.44889 1.62891C7.18888 1.62891 5.95715 2.00255 4.90949 2.70257C3.86182 3.4026 3.04526 4.39758 2.56307 5.56169C2.08089 6.72579 1.95472 8.00674 2.20054 9.24255C2.44636 10.4784 3.05311 11.6135 3.94408 12.5045C4.83505 13.3955 5.97021 14.0022 7.20602 14.248C8.44183 14.4938 9.72277 14.3677 10.8869 13.8855C12.051 13.4033 13.046 12.5867 13.746 11.5391C14.446 10.4914 14.8197 9.25969 14.8197 7.99967C14.8178 6.31062 14.146 4.69127 12.9516 3.49693C11.7573 2.30259 10.138 1.63078 8.44889 1.62891ZM8.44889 12.9547C7.46888 12.9547 6.51087 12.6641 5.69602 12.1196C4.88117 11.5752 4.24607 10.8013 3.87103 9.89588C3.496 8.99047 3.39787 7.99417 3.58906 7.03299C3.78025 6.07181 4.25218 5.1889 4.94515 4.49593C5.63813 3.80295 6.52103 3.33103 7.48221 3.13984C8.4434 2.94865 9.43969 3.04678 10.3451 3.42181C11.2505 3.79685 12.0244 4.43195 12.5689 5.2468C13.1133 6.06165 13.4039 7.01966 13.4039 7.99967C13.4025 9.3134 12.88 10.5729 11.9511 11.5019C11.0221 12.4308 9.76262 12.9533 8.44889 12.9547ZM12.4601 7.99967C12.4601 8.18741 12.3855 8.36746 12.2528 8.50021C12.12 8.63296 11.94 8.70753 11.7523 8.70753H8.44889C8.26116 8.70753 8.08111 8.63296 7.94836 8.50021C7.81561 8.36746 7.74103 8.18741 7.74103 7.99967V4.69631C7.74103 4.50857 7.81561 4.32853 7.94836 4.19578C8.08111 4.06303 8.26116 3.98845 8.44889 3.98845C8.63663 3.98845 8.81668 4.06303 8.94943 4.19578C9.08218 4.32853 9.15676 4.50857 9.15676 4.69631V7.29181H11.7523C11.94 7.29181 12.12 7.36639 12.2528 7.49914C12.3855 7.63189 12.4601 7.81193 12.4601 7.99967Z" fill="white"/>
</svg>
