<svg width="22" height="22" viewBox="0 0 22 22" fill="none" xmlns="http://www.w3.org/2000/svg">
<path d="M18.5625 3.4375H3.4375C3.07283 3.4375 2.72309 3.58237 2.46523 3.84023C2.20737 4.09809 2.0625 4.44783 2.0625 4.8125V17.1875C2.0625 17.5522 2.20737 17.9019 2.46523 18.1598C2.72309 18.4176 3.07283 18.5625 3.4375 18.5625H18.5625C18.9272 18.5625 19.2769 18.4176 19.5348 18.1598C19.7926 17.9019 19.9375 17.5522 19.9375 17.1875V4.8125C19.9375 4.44783 19.7926 4.09809 19.5348 3.84023C19.2769 3.58237 18.9272 3.4375 18.5625 3.4375ZM7.975 12.5125C8.12087 12.6219 8.2173 12.7848 8.24309 12.9653C8.26888 13.1458 8.2219 13.3291 8.1125 13.475C8.0031 13.6209 7.84023 13.7173 7.65973 13.7431C7.47922 13.7689 7.29587 13.7219 7.15 13.6125L4.4 11.55C4.31462 11.486 4.24531 11.4029 4.19758 11.3075C4.14985 11.212 4.125 11.1067 4.125 11C4.125 10.8933 4.14985 10.788 4.19758 10.6925C4.24531 10.5971 4.31462 10.514 4.4 10.45L7.15 8.3875C7.29587 8.2781 7.47922 8.23112 7.65973 8.25691C7.84023 8.2827 8.0031 8.37913 8.1125 8.525C8.2219 8.67087 8.26888 8.85422 8.24309 9.03473C8.2173 9.21523 8.12087 9.3781 7.975 9.4875L5.95805 11L7.975 12.5125ZM13.0359 6.37656L10.2859 16.0016C10.2624 16.0899 10.2216 16.1727 10.1658 16.2451C10.11 16.3175 10.0403 16.378 9.96081 16.4231C9.88133 16.4682 9.79365 16.4971 9.70289 16.5079C9.61213 16.5188 9.52012 16.5114 9.43225 16.4863C9.34437 16.4611 9.26239 16.4187 9.1911 16.3615C9.11981 16.3043 9.06064 16.2335 9.01705 16.1531C8.97346 16.0728 8.94634 15.9846 8.93725 15.8936C8.92816 15.8027 8.93731 15.7108 8.96414 15.6234L11.7141 5.99844C11.767 5.82634 11.8853 5.68183 12.0435 5.59598C12.2017 5.51013 12.3874 5.48977 12.5604 5.53929C12.7335 5.58881 12.8803 5.70425 12.9692 5.86081C13.0581 6.01736 13.082 6.20255 13.0359 6.37656ZM17.6 11.55L14.85 13.6125C14.7041 13.7219 14.5208 13.7689 14.3403 13.7431C14.1598 13.7173 13.9969 13.6209 13.8875 13.475C13.7781 13.3291 13.7311 13.1458 13.7569 12.9653C13.7827 12.7848 13.8791 12.6219 14.025 12.5125L16.042 11L14.025 9.4875C13.9528 9.43333 13.8919 9.36546 13.8459 9.28778C13.7999 9.21009 13.7697 9.1241 13.7569 9.03473C13.7441 8.94535 13.7491 8.85433 13.7715 8.76688C13.7939 8.67942 13.8333 8.59723 13.8875 8.525C13.9417 8.45277 14.0095 8.39192 14.0872 8.34592C14.1649 8.29992 14.2509 8.26968 14.3403 8.25691C14.4296 8.24414 14.5207 8.2491 14.6081 8.27151C14.6956 8.29392 14.7778 8.33333 14.85 8.3875L17.6 10.45C17.6854 10.514 17.7547 10.5971 17.8024 10.6925C17.8502 10.788 17.875 10.8933 17.875 11C17.875 11.1067 17.8502 11.212 17.8024 11.3075C17.7547 11.4029 17.6854 11.486 17.6 11.55Z" fill="#61C1FC"/>
</svg>
