<svg width="16" height="16" viewBox="0 0 16 16" fill="none" xmlns="http://www.w3.org/2000/svg">
<path d="M14.1 3.91546L8.6 0.904206C8.4162 0.803046 8.2098 0.75 8 0.75C7.7902 0.75 7.5838 0.803046 7.4 0.904206L1.9 3.91483C1.7032 4.02251 1.539 4.18117 1.42464 4.37416C1.31027 4.56716 1.24995 4.78737 1.25 5.01171V10.988C1.24995 11.2123 1.31027 11.4325 1.42464 11.6255C1.539 11.8185 1.7032 11.9771 1.9 12.0848L7.4 15.0955C7.58377 15.1967 7.79018 15.2498 8 15.2498C8.20982 15.2498 8.41623 15.1967 8.6 15.0955L14.1 12.0842C14.2967 11.9766 14.4608 11.818 14.5752 11.6251C14.6896 11.4323 14.7499 11.2122 14.75 10.988V5.01171C14.7499 4.78748 14.6896 4.56739 14.5752 4.37452C14.4608 4.18165 14.2967 4.02309 14.1 3.91546ZM10.25 9.49983V12.4823L8.75 13.3036V8.44421L13.25 5.98046V7.41296L10.64 8.8417C10.5219 8.90631 10.4234 9.00151 10.3548 9.1173C10.2862 9.2331 10.25 9.36523 10.25 9.49983ZM5.36 8.8417L2.75 7.41296V5.98046L7.25 8.44421V13.3036L5.75 12.4823V9.49983C5.75003 9.36523 5.71384 9.2331 5.64522 9.1173C5.5766 9.00151 5.47808 8.90631 5.36 8.8417ZM5.19625 3.82046L7.64 5.15796C7.75029 5.21863 7.87412 5.25044 8 5.25044C8.12588 5.25044 8.24971 5.21863 8.36 5.15796L10.8038 3.82046L12.4375 4.71546L8 7.14483L3.5625 4.71546L5.19625 3.82046ZM8 2.28546L9.24187 2.96546L8 3.64546L6.75812 2.96546L8 2.28546ZM2.75 9.12483L4.25 9.94608V11.663L2.75 10.8398V9.12483ZM11.75 11.663V9.9442L13.25 9.12483V10.8417L11.75 11.663Z" fill="#B1AEF8"/>
</svg>
