<svg width="16" height="16" viewBox="0 0 16 16" fill="none" xmlns="http://www.w3.org/2000/svg">
<path d="M10.4694 5.53062C10.3285 5.38973 10.2493 5.19863 10.2493 4.99937C10.2493 4.80012 10.3285 4.60902 10.4694 4.46812C10.6103 4.32723 10.8014 4.24807 11.0006 4.24807C11.1999 4.24807 11.391 4.32723 11.5319 4.46812L11.75 4.6875V3C11.75 2.80109 11.829 2.61032 11.9697 2.46967C12.1103 2.32902 12.3011 2.25 12.5 2.25C12.6989 2.25 12.8897 2.32902 13.0303 2.46967C13.171 2.61032 13.25 2.80109 13.25 3V4.6875L13.4694 4.4675C13.5391 4.39774 13.622 4.34239 13.7131 4.30464C13.8043 4.26688 13.902 4.24745 14.0006 4.24745C14.0993 4.24745 14.197 4.26688 14.2881 4.30464C14.3793 4.34239 14.4621 4.39774 14.5319 4.4675C14.6016 4.53727 14.657 4.62009 14.6947 4.71124C14.7325 4.80239 14.7519 4.90009 14.7519 4.99875C14.7519 5.09741 14.7325 5.19511 14.6947 5.28626C14.657 5.37741 14.6016 5.46024 14.5319 5.53L13.0319 7.03C12.9622 7.09992 12.8794 7.1554 12.7882 7.19325C12.6971 7.23111 12.5993 7.25059 12.5006 7.25059C12.4019 7.25059 12.3042 7.23111 12.213 7.19325C12.1218 7.1554 12.0391 7.09992 11.9694 7.03L10.4694 5.53062ZM15.25 10V12.5C15.25 12.8315 15.1183 13.1495 14.8839 13.3839C14.6495 13.6183 14.3315 13.75 14 13.75H10.5C10.3964 13.75 10.294 13.7286 10.1991 13.6871C10.1042 13.6456 10.019 13.5848 9.94875 13.5087L4.17188 7.25H2C1.66848 7.25 1.35054 7.1183 1.11612 6.88388C0.881696 6.64946 0.75 6.33152 0.75 6V3.5C0.75 3.16848 0.881696 2.85054 1.11612 2.61612C1.35054 2.3817 1.66848 2.25 2 2.25H5.5C5.60356 2.24997 5.70601 2.2714 5.80088 2.31292C5.89575 2.35444 5.981 2.41516 6.05125 2.49125L11.8281 8.75H14C14.3315 8.75 14.6495 8.8817 14.8839 9.11612C15.1183 9.35054 15.25 9.66848 15.25 10ZM13.75 10.25H11.5C11.3964 10.25 11.294 10.2286 11.1991 10.1871C11.1042 10.1456 11.019 10.0848 10.9487 10.0087L5.17188 3.75H2.25V5.75H4.5C4.60356 5.74997 4.70601 5.7714 4.80088 5.81292C4.89575 5.85444 4.981 5.91516 5.05125 5.99125L10.8281 12.25H13.75V10.25Z" fill="#DEB681"/>
</svg>
