<svg width="16" height="16" viewBox="0 0 16 16" fill="none" xmlns="http://www.w3.org/2000/svg">
<path d="M5.82031 13.625C5.82031 13.8115 5.74623 13.9903 5.61437 14.1222C5.48251 14.254 5.30367 14.3281 5.11719 14.3281H4.17969C3.86889 14.3281 3.57082 14.2047 3.35105 13.9849C3.13128 13.7651 3.00781 13.4671 3.00781 13.1562V11.2812C3.00781 11.0948 3.08189 10.9159 3.21375 10.7841C3.34561 10.6522 3.52446 10.5781 3.71094 10.5781C3.89742 10.5781 4.07626 10.6522 4.20812 10.7841C4.33998 10.9159 4.41406 11.0948 4.41406 11.2812V12.9219H5.11719C5.30367 12.9219 5.48251 12.996 5.61437 13.1278C5.74623 13.2597 5.82031 13.4385 5.82031 13.625ZM13.7891 5.65625V8.46875C13.7891 8.65523 13.715 8.83407 13.5831 8.96593C13.4513 9.0978 13.2724 9.17188 13.0859 9.17188C12.8995 9.17188 12.7206 9.0978 12.5888 8.96593C12.4569 8.83407 12.3828 8.65523 12.3828 8.46875V6.59375H9.57031C9.38383 6.59375 9.20499 6.51967 9.07313 6.38781C8.94127 6.25595 8.86719 6.07711 8.86719 5.89062V3.07813H7.92969C7.74321 3.07813 7.56436 3.00405 7.4325 2.87218C7.30064 2.74032 7.22656 2.56148 7.22656 2.375C7.22656 2.18852 7.30064 2.00968 7.4325 1.87782C7.56436 1.74595 7.74321 1.67188 7.92969 1.67188H9.80469C9.89705 1.6718 9.98852 1.68993 10.0739 1.72522C10.1592 1.76051 10.2368 1.81227 10.3021 1.87754L13.5834 5.15879C13.6487 5.22414 13.7004 5.3017 13.7357 5.38706C13.771 5.47241 13.7891 5.56389 13.7891 5.65625ZM10.2734 5.1875H11.6211L10.2734 3.83984V5.1875ZM5.58594 1.67188H4.17969C3.86889 1.67188 3.57082 1.79534 3.35105 2.01511C3.13128 2.23488 3.00781 2.53295 3.00781 2.84375V4.25C3.00781 4.43648 3.08189 4.61532 3.21375 4.74718C3.34561 4.87905 3.52446 4.95313 3.71094 4.95313C3.89742 4.95313 4.07626 4.87905 4.20812 4.74718C4.33998 4.61532 4.41406 4.43648 4.41406 4.25V3.07813H5.58594C5.77242 3.07813 5.95126 3.00405 6.08312 2.87218C6.21498 2.74032 6.28906 2.56148 6.28906 2.375C6.28906 2.18852 6.21498 2.00968 6.08312 1.87782C5.95126 1.74595 5.77242 1.67188 5.58594 1.67188ZM13.0859 10.1094C12.8995 10.1094 12.7206 10.1835 12.5888 10.3153C12.4569 10.4472 12.3828 10.626 12.3828 10.8125V12.9219H12.1484C11.962 12.9219 11.7831 12.996 11.6513 13.1278C11.5194 13.2597 11.4453 13.4385 11.4453 13.625C11.4453 13.8115 11.5194 13.9903 11.6513 14.1222C11.7831 14.254 11.962 14.3281 12.1484 14.3281H12.6172C12.928 14.3281 13.2261 14.2047 13.4458 13.9849C13.6656 13.7651 13.7891 13.4671 13.7891 13.1562V10.8125C13.7891 10.626 13.715 10.4472 13.5831 10.3153C13.4513 10.1835 13.2724 10.1094 13.0859 10.1094ZM3.71094 9.64062C3.89742 9.64062 4.07626 9.56655 4.20812 9.43468C4.33998 9.30282 4.41406 9.12398 4.41406 8.9375V6.59375C4.41406 6.40727 4.33998 6.22843 4.20812 6.09657C4.07626 5.9647 3.89742 5.89062 3.71094 5.89062C3.52446 5.89062 3.34561 5.9647 3.21375 6.09657C3.08189 6.22843 3.00781 6.40727 3.00781 6.59375V8.9375C3.00781 9.12398 3.08189 9.30282 3.21375 9.43468C3.34561 9.56655 3.52446 9.64062 3.71094 9.64062ZM9.80469 12.9219H7.46094C7.27446 12.9219 7.09561 12.996 6.96375 13.1278C6.83189 13.2597 6.75781 13.4385 6.75781 13.625C6.75781 13.8115 6.83189 13.9903 6.96375 14.1222C7.09561 14.254 7.27446 14.3281 7.46094 14.3281H9.80469C9.99117 14.3281 10.17 14.254 10.3019 14.1222C10.4337 13.9903 10.5078 13.8115 10.5078 13.625C10.5078 13.4385 10.4337 13.2597 10.3019 13.1278C10.17 12.996 9.99117 12.9219 9.80469 12.9219Z" fill="#2DD4BF"/>
</svg>
