<svg width="16" height="16" viewBox="0 0 16 16" fill="none" xmlns="http://www.w3.org/2000/svg">
<path d="M11.2501 14.4997C11.2501 14.6986 11.1711 14.8894 11.0304 15.03C10.8898 15.1707 10.699 15.2497 10.5001 15.2497H5.50008C5.30117 15.2497 5.11041 15.1707 4.96975 15.03C4.8291 14.8894 4.75008 14.6986 4.75008 14.4997C4.75008 14.3008 4.8291 14.11 4.96975 13.9694C5.11041 13.8287 5.30117 13.7497 5.50008 13.7497H10.5001C10.699 13.7497 10.8898 13.8287 11.0304 13.9694C11.1711 14.11 11.2501 14.3008 11.2501 14.4997ZM13.7501 6.49971C13.7524 7.37108 13.5555 8.23145 13.1746 9.01514C12.7936 9.79882 12.2386 10.4851 11.552 11.0216C11.459 11.0924 11.3834 11.1836 11.3311 11.2881C11.2788 11.3927 11.2511 11.5078 11.2501 11.6247V11.7497C11.2501 12.0812 11.1184 12.3992 10.884 12.6336C10.6495 12.868 10.3316 12.9997 10.0001 12.9997H6.00008C5.66856 12.9997 5.35062 12.868 5.1162 12.6336C4.88178 12.3992 4.75008 12.0812 4.75008 11.7497V11.6247C4.74995 11.5097 4.72339 11.3964 4.67245 11.2933C4.62152 11.1902 4.54758 11.1003 4.45633 11.0303C3.77156 10.497 3.21708 9.81481 2.83485 9.03551C2.45262 8.25622 2.25266 7.40019 2.25008 6.53221C2.23321 3.41783 4.75008 0.824706 7.86196 0.749706C8.6286 0.731285 9.39119 0.866403 10.1048 1.14711C10.8185 1.42781 11.4688 1.84844 12.0174 2.38422C12.5661 2.92 13.002 3.56012 13.2996 4.2669C13.5971 4.97368 13.7503 5.73284 13.7501 6.49971ZM12.2501 6.49971C12.2503 5.9328 12.137 5.3716 11.917 4.84912C11.697 4.32665 11.3747 3.85347 10.9691 3.45745C10.5634 3.06142 10.0826 2.75055 9.55505 2.54313C9.02746 2.33572 8.4637 2.23595 7.89696 2.24971C5.59758 2.30471 3.73758 4.22158 3.75008 6.52346C3.75223 7.16498 3.90019 7.79761 4.1828 8.37354C4.4654 8.94946 4.87524 9.4536 5.38133 9.84783C5.6363 10.0446 5.84587 10.294 5.99578 10.5791C6.14569 10.8641 6.23243 11.1781 6.25008 11.4997H9.75633C9.77434 11.1775 9.86119 10.8629 10.0111 10.5771C10.1609 10.2913 10.3703 10.0409 10.6251 9.84283C11.1326 9.44611 11.5429 8.93871 11.8245 8.35933C12.1061 7.77995 12.2517 7.1439 12.2501 6.49971ZM10.9957 6.16721C10.9294 5.60602 10.7074 5.07455 10.355 4.6328C10.0026 4.19104 9.53375 3.8566 9.00133 3.66721C8.81524 3.6064 8.61274 3.62078 8.4371 3.70726C8.26146 3.79374 8.1266 3.94547 8.06132 4.13004C7.99604 4.31462 8.00552 4.5174 8.08774 4.69508C8.16996 4.87276 8.31839 5.01124 8.50133 5.08096C8.76889 5.17474 9.00486 5.34151 9.18258 5.56241C9.36029 5.78331 9.47265 6.04953 9.50696 6.33096C9.52884 6.52871 9.62838 6.70967 9.78368 6.83403C9.86058 6.89561 9.94886 6.94143 10.0435 6.9689C10.1381 6.99636 10.2372 7.00492 10.3351 6.99408C10.433 6.98325 10.5278 6.95323 10.6141 6.90575C10.7005 6.85827 10.7766 6.79426 10.8382 6.71736C10.8997 6.64046 10.9456 6.55218 10.973 6.45757C11.0005 6.36297 11.009 6.26387 10.9982 6.16596L10.9957 6.16721Z" fill="#7DE087"/>
</svg>
