<svg width="34" height="34" viewBox="0 0 34 34" fill="none" xmlns="http://www.w3.org/2000/svg">
<rect width="34" height="34" rx="6.18182" fill="url(#paint0_radial_727_841)"/>
<rect x="0.5" y="0.5" width="33" height="33" rx="5.68182" stroke="#FF6200" stroke-opacity="0.36"/>
<path d="M23.75 9H11.25C10.9185 9 10.6005 9.1317 10.3661 9.36612C10.1317 9.60054 10 9.91848 10 10.25V22.75C10 23.0815 10.1317 23.3995 10.3661 23.6339C10.6005 23.8683 10.9185 24 11.25 24H23.75C24.0815 24 24.3995 23.8683 24.6339 23.6339C24.8683 23.3995 25 23.0815 25 22.75V10.25C25 9.91848 24.8683 9.60054 24.6339 9.36612C24.3995 9.1317 24.0815 9 23.75 9ZM13.125 20.875H12.5C12.3342 20.875 12.1753 20.8092 12.0581 20.6919C11.9408 20.5747 11.875 20.4158 11.875 20.25C11.875 20.0842 11.9408 19.9253 12.0581 19.8081C12.1753 19.6908 12.3342 19.625 12.5 19.625H13.125C13.2908 19.625 13.4497 19.6908 13.5669 19.8081C13.6842 19.9253 13.75 20.0842 13.75 20.25C13.75 20.4158 13.6842 20.5747 13.5669 20.6919C13.4497 20.8092 13.2908 20.875 13.125 20.875ZM13.125 17.125H12.5C12.3342 17.125 12.1753 17.0592 12.0581 16.9419C11.9408 16.8247 11.875 16.6658 11.875 16.5C11.875 16.3342 11.9408 16.1753 12.0581 16.0581C12.1753 15.9408 12.3342 15.875 12.5 15.875H13.125C13.2908 15.875 13.4497 15.9408 13.5669 16.0581C13.6842 16.1753 13.75 16.3342 13.75 16.5C13.75 16.6658 13.6842 16.8247 13.5669 16.9419C13.4497 17.0592 13.2908 17.125 13.125 17.125ZM13.125 13.375H12.5C12.3342 13.375 12.1753 13.3092 12.0581 13.1919C11.9408 13.0747 11.875 12.9158 11.875 12.75C11.875 12.5842 11.9408 12.4253 12.0581 12.3081C12.1753 12.1908 12.3342 12.125 12.5 12.125H13.125C13.2908 12.125 13.4497 12.1908 13.5669 12.3081C13.6842 12.4253 13.75 12.5842 13.75 12.75C13.75 12.9158 13.6842 13.0747 13.5669 13.1919C13.4497 13.3092 13.2908 13.375 13.125 13.375ZM22.5 20.875H15.625C15.4592 20.875 15.3003 20.8092 15.1831 20.6919C15.0658 20.5747 15 20.4158 15 20.25C15 20.0842 15.0658 19.9253 15.1831 19.8081C15.3003 19.6908 15.4592 19.625 15.625 19.625H22.5C22.6658 19.625 22.8247 19.6908 22.9419 19.8081C23.0592 19.9253 23.125 20.0842 23.125 20.25C23.125 20.4158 23.0592 20.5747 22.9419 20.6919C22.8247 20.8092 22.6658 20.875 22.5 20.875ZM22.5 17.125H15.625C15.4592 17.125 15.3003 17.0592 15.1831 16.9419C15.0658 16.8247 15 16.6658 15 16.5C15 16.3342 15.0658 16.1753 15.1831 16.0581C15.3003 15.9408 15.4592 15.875 15.625 15.875H22.5C22.6658 15.875 22.8247 15.9408 22.9419 16.0581C23.0592 16.1753 23.125 16.3342 23.125 16.5C23.125 16.6658 23.0592 16.8247 22.9419 16.9419C22.8247 17.0592 22.6658 17.125 22.5 17.125ZM22.5 13.375H15.625C15.4592 13.375 15.3003 13.3092 15.1831 13.1919C15.0658 13.0747 15 12.9158 15 12.75C15 12.5842 15.0658 12.4253 15.1831 12.3081C15.3003 12.1908 15.4592 12.125 15.625 12.125H22.5C22.6658 12.125 22.8247 12.1908 22.9419 12.3081C23.0592 12.4253 23.125 12.5842 23.125 12.75C23.125 12.9158 23.0592 13.0747 22.9419 13.1919C22.8247 13.3092 22.6658 13.375 22.5 13.375Z" fill="#FA8B46"/>
<defs>
<radialGradient id="paint0_radial_727_841" cx="0" cy="0" r="1" gradientUnits="userSpaceOnUse" gradientTransform="translate(22 17) rotate(73.6105) scale(17.72)">
<stop stop-color="#FF6505" stop-opacity="0.38"/>
<stop offset="1" stop-color="#0F1014"/>
</radialGradient>
</defs>
</svg>
