<svg width="16" height="16" viewBox="0 0 16 16" fill="none" xmlns="http://www.w3.org/2000/svg">
<path d="M13.7475 2.34527C13.5904 2.23782 13.4095 2.17024 13.2204 2.1484C13.0313 2.12655 12.8398 2.15108 12.6623 2.21988C11.8555 2.53394 10.2248 3.06011 8.39844 3.06011C6.57207 3.06011 4.94141 2.53277 4.13457 2.21988C3.95703 2.15104 3.76539 2.12651 3.57624 2.14839C3.38708 2.17028 3.20611 2.23793 3.04898 2.34549C2.89185 2.45305 2.7633 2.59728 2.67445 2.7657C2.5856 2.93412 2.53913 3.12165 2.53906 3.31206V6.57984C2.53906 8.72671 3.11914 10.7546 4.17266 12.2898C5.28184 13.9064 6.78242 14.7964 8.39844 14.7964C10.0145 14.7964 11.515 13.9064 12.6242 12.291C13.6777 10.7535 14.2578 8.72788 14.2578 6.58101V3.31206C14.2577 3.12157 14.2112 2.93397 14.1223 2.76551C14.0334 2.59704 13.9047 2.4528 13.7475 2.34527ZM12.8516 6.58101C12.8516 8.44663 12.3588 10.1921 11.4646 11.4953C10.625 12.7169 9.53691 13.3902 8.39844 13.3902C7.25996 13.3902 6.17188 12.7169 5.33223 11.4953C4.43809 10.1921 3.94531 8.44663 3.94531 6.58101V3.65132C4.91738 3.99996 6.5627 4.46812 8.39844 4.46812C10.2342 4.46812 11.8795 3.99937 12.8516 3.65132V6.58101ZM10.5857 10.2654C10.7029 10.4104 10.7576 10.596 10.7379 10.7813C10.7183 10.9667 10.6258 11.1367 10.4809 11.2539C9.88966 11.7264 9.1553 11.9839 8.39844 11.9839C7.64157 11.9839 6.90722 11.7264 6.31602 11.2539C6.17233 11.1362 6.08101 10.9666 6.06197 10.7819C6.04294 10.5972 6.09774 10.4124 6.21441 10.268C6.33108 10.1235 6.50016 10.0311 6.68473 10.0108C6.86931 9.9906 7.0544 10.0442 7.19961 10.1599C7.54063 10.4305 7.96313 10.5777 8.39844 10.5777C8.83374 10.5777 9.25625 10.4305 9.59727 10.1599C9.74235 10.0429 9.92798 9.98824 10.1133 10.008C10.2987 10.0278 10.4686 10.1204 10.5857 10.2654ZM8.97793 8.18472C8.87718 8.02784 8.84286 7.83736 8.88253 7.65518C8.92219 7.473 9.0326 7.31403 9.18945 7.21324C9.52816 6.99627 9.91524 6.86638 10.3163 6.8351C10.7173 6.80382 11.1198 6.87212 11.4881 7.03394C11.6595 7.10744 11.7947 7.24603 11.8639 7.41921C11.9331 7.59238 11.9307 7.78597 11.8572 7.95738C11.7837 8.12878 11.6451 8.26397 11.472 8.3332C11.2988 8.40242 11.1052 8.40002 10.9338 8.32652C10.799 8.26865 10.6544 8.23722 10.5078 8.23394C10.3108 8.23811 10.1185 8.29409 9.95 8.39624C9.8723 8.44622 9.78551 8.4804 9.69459 8.49682C9.60367 8.51324 9.51041 8.51158 9.42013 8.49193C9.32985 8.47229 9.24433 8.43505 9.16846 8.38233C9.09258 8.32962 9.02784 8.26247 8.97793 8.18472ZM6.28906 8.23394C6.1424 8.23727 5.99775 8.26891 5.86309 8.3271C5.77821 8.3635 5.687 8.38282 5.59467 8.38397C5.50233 8.38511 5.41066 8.36806 5.32492 8.33378C5.15174 8.26456 5.01315 8.12937 4.93965 7.95796C4.86614 7.78656 4.86374 7.59297 4.93297 7.41979C5.0022 7.24661 5.13738 7.10803 5.30879 7.03453C5.6767 6.87194 6.07913 6.8029 6.48019 6.83357C6.88126 6.86424 7.26851 6.99366 7.60742 7.21031C7.6851 7.26032 7.75216 7.32515 7.80479 7.40108C7.85741 7.47702 7.89457 7.56257 7.91413 7.65286C7.93369 7.74316 7.93527 7.83642 7.91879 7.92732C7.90231 8.01822 7.86808 8.10499 7.81807 8.18267C7.76805 8.26035 7.70323 8.32741 7.62729 8.38004C7.55136 8.43266 7.4658 8.46982 7.37551 8.48938C7.28522 8.50894 7.19196 8.51052 7.10105 8.49404C7.01015 8.47756 6.92338 8.44333 6.8457 8.39331C6.67723 8.29256 6.48533 8.23762 6.28906 8.23394Z" fill="#818CF8"/>
</svg>
