<svg width="21" height="20" viewBox="0 0 21 20" fill="none" xmlns="http://www.w3.org/2000/svg">
<g clip-path="url(#clip0_539_11114)">
<path d="M18.8125 7.81641C18.5375 7.52969 18.2539 7.23359 18.1609 7.00938C18.0781 6.80938 18.0719 6.39766 18.0664 6.03516C18.0547 5.25391 18.0398 4.28203 17.3492 3.59219C16.6586 2.90234 15.6875 2.88906 14.9062 2.875C14.5437 2.86953 14.132 2.86328 13.932 2.78047C13.7078 2.6875 13.4117 2.40391 13.125 2.12891C12.5719 1.59844 11.8828 0.9375 10.9414 0.9375C10 0.9375 9.31094 1.59844 8.75781 2.12891C8.47109 2.40391 8.175 2.6875 7.95078 2.78047C7.75078 2.86328 7.33906 2.86953 6.97656 2.875C6.19531 2.89062 5.22344 2.90156 4.53516 3.59375C3.84687 4.28594 3.83203 5.25391 3.81641 6.03516C3.81094 6.39766 3.80469 6.80938 3.72187 7.00938C3.62891 7.23359 3.34531 7.52969 3.07031 7.81641C2.53984 8.36953 1.87891 9.0625 1.87891 10C1.87891 10.9375 2.53984 11.6305 3.07031 12.1875C3.34531 12.4742 3.62891 12.7703 3.72187 12.9945C3.80469 13.1945 3.81094 13.6062 3.81641 13.9688C3.82812 14.75 3.84297 15.7219 4.53359 16.4117C5.22422 17.1016 6.19531 17.1148 6.97656 17.1289C7.33906 17.1344 7.75078 17.1406 7.95078 17.2234C8.175 17.3164 8.47109 17.6 8.75781 17.875C9.31094 18.4016 10.0039 19.0625 10.9414 19.0625C11.8789 19.0625 12.5719 18.4016 13.125 17.8711C13.4117 17.5961 13.7078 17.3125 13.932 17.2195C14.132 17.1367 14.5437 17.1305 14.9062 17.125C15.6875 17.1133 16.6594 17.0984 17.3492 16.4078C18.0391 15.7172 18.0523 14.7461 18.0664 13.9648C18.0719 13.6023 18.0781 13.1906 18.1609 12.9906C18.2539 12.7664 18.5375 12.4703 18.8125 12.1836C19.343 11.6305 20.0039 10.9414 20.0039 10C20.0039 9.05859 19.343 8.36953 18.8125 7.81641ZM17.4594 10.8859C17.0828 11.2766 16.6562 11.7234 16.4289 12.2734C16.2086 12.8047 16.2 13.3797 16.1945 13.9367C16.1883 14.3555 16.1797 14.9297 16.0266 15.082C15.8734 15.2344 15.3 15.2437 14.8812 15.25C14.3242 15.2586 13.7492 15.2672 13.218 15.4844C12.6711 15.7117 12.2234 16.1383 11.8305 16.5148C11.5492 16.7844 11.1289 17.1875 10.9414 17.1875C10.7539 17.1875 10.3336 16.7844 10.0555 16.518C9.66484 16.1414 9.21797 15.7148 8.66797 15.4875C8.13672 15.2672 7.56172 15.2586 7.00469 15.2531C6.58594 15.2469 6.01172 15.2383 5.85938 15.0852C5.70703 14.932 5.69766 14.3586 5.69141 13.9398C5.68281 13.3828 5.67422 12.8078 5.45703 12.2766C5.22969 11.7297 4.80313 11.282 4.42656 10.8891C4.15703 10.6078 3.75391 10.1875 3.75391 10C3.75391 9.8125 4.15703 9.39219 4.42344 9.11406C4.8 8.72344 5.22656 8.27656 5.45391 7.72656C5.67422 7.19531 5.68281 6.62031 5.68828 6.06328C5.69766 5.64453 5.70703 5.07031 5.86328 4.92188C6.01953 4.77344 6.58984 4.76016 7.00859 4.75391C7.56563 4.74531 8.14062 4.73672 8.67188 4.51953C9.21875 4.29219 9.66641 3.86562 10.0594 3.48906C10.3336 3.21563 10.7539 2.8125 10.9414 2.8125C11.1289 2.8125 11.5492 3.21563 11.8273 3.48203C12.218 3.85859 12.6648 4.28516 13.2148 4.5125C13.7461 4.73281 14.3211 4.74141 14.8781 4.74687C15.2969 4.75312 15.8711 4.76172 16.0234 4.91484C16.1758 5.06797 16.1852 5.64141 16.1914 6.06016C16.2 6.61719 16.2086 7.19219 16.4258 7.72344C16.6531 8.27031 17.0797 8.71797 17.4563 9.11094C17.7227 9.38906 18.1258 9.80937 18.1258 9.99687C18.1258 10.1844 17.7258 10.6078 17.4594 10.8859ZM12.1914 14.0625C12.1914 14.3097 12.1181 14.5514 11.9807 14.757C11.8434 14.9625 11.6482 15.1227 11.4198 15.2174C11.1914 15.312 10.94 15.3367 10.6975 15.2885C10.4551 15.2403 10.2323 15.1212 10.0575 14.9464C9.88271 14.7716 9.76366 14.5488 9.71542 14.3064C9.66719 14.0639 9.69195 13.8126 9.78656 13.5841C9.88117 13.3557 10.0414 13.1605 10.2469 13.0232C10.4525 12.8858 10.6942 12.8125 10.9414 12.8125C11.2729 12.8125 11.5909 12.9442 11.8253 13.1786C12.0597 13.413 12.1914 13.731 12.1914 14.0625ZM14.3789 8.4375C14.3789 9.87266 13.3094 11.0844 11.8578 11.45C11.809 11.6764 11.678 11.8767 11.4902 12.0123C11.3025 12.1479 11.0711 12.2092 10.8408 12.1844C10.6106 12.1595 10.3976 12.0503 10.2431 11.8778C10.0886 11.7052 10.0033 11.4816 10.0039 11.25V10.625C10.0039 10.3764 10.1027 10.1379 10.2785 9.96209C10.4543 9.78627 10.6928 9.6875 10.9414 9.6875C11.8008 9.6875 12.5039 9.12656 12.5039 8.4375C12.5039 7.74844 11.8008 7.1875 10.9414 7.1875C10.082 7.1875 9.37891 7.74844 9.37891 8.4375V8.75C9.37891 8.99864 9.28013 9.2371 9.10432 9.41291C8.9285 9.58873 8.69005 9.6875 8.44141 9.6875C8.19277 9.6875 7.95431 9.58873 7.77849 9.41291C7.60268 9.2371 7.50391 8.99864 7.50391 8.75V8.4375C7.50391 6.71406 9.04609 5.3125 10.9414 5.3125C12.8367 5.3125 14.3789 6.71406 14.3789 8.4375Z" fill="#F97316"/>
</g>
<defs>
<clipPath id="clip0_539_11114">
<rect width="20" height="20" fill="white" transform="translate(0.941406)"/>
</clipPath>
</defs>
</svg>
