<svg width="12" height="12" viewBox="0 0 12 12" fill="none" xmlns="http://www.w3.org/2000/svg">
<path opacity="0.5" d="M6.27637 1.54102C6.37481 1.5407 6.47254 1.55998 6.56348 1.59766C6.65444 1.63538 6.73728 1.69086 6.80664 1.76075L11.4619 6.41602C11.5315 6.48557 11.5863 6.56833 11.624 6.65918C11.6617 6.75013 11.6816 6.84786 11.6816 6.94629C11.6816 7.0448 11.6617 7.1424 11.624 7.2334C11.5864 7.32431 11.5315 7.40697 11.4619 7.47657L7.49219 11.4463C7.4226 11.5159 7.33993 11.5707 7.24903 11.6084C7.15802 11.6461 7.06042 11.666 6.96192 11.666C6.86347 11.666 6.76576 11.6461 6.67481 11.6084C6.58395 11.5707 6.50119 11.5159 6.43164 11.4463L1.77637 6.79102C1.70649 6.72166 1.651 6.63881 1.61329 6.54786C1.57561 6.45691 1.55633 6.35918 1.55664 6.26075V1.91602C1.55667 1.81659 1.59669 1.72168 1.667 1.65137C1.73731 1.58107 1.83222 1.54104 1.93164 1.54102H6.27637ZM4.5 2.99903C3.67158 2.99903 3.00001 3.6706 3 4.49903C3 5.32745 3.67158 5.99903 4.5 5.99903C5.32843 5.99903 6 5.32745 6 4.49903C6 3.6706 5.32843 2.99903 4.5 2.99903Z" fill="#8C8C8C"/>
</svg>
