<svg width="17" height="17" viewBox="0 0 17 17" fill="none" xmlns="http://www.w3.org/2000/svg">
<path d="M8.5 0C6.81886 0 5.17547 0.498516 3.77766 1.43251C2.37984 2.3665 1.29037 3.69402 0.647028 5.24719C0.00368292 6.80036 -0.164645 8.50943 0.163329 10.1583C0.491303 11.8071 1.30085 13.3217 2.4896 14.5104C3.67834 15.6992 5.1929 16.5087 6.84173 16.8367C8.49057 17.1646 10.1996 16.9963 11.7528 16.353C13.306 15.7096 14.6335 14.6202 15.5675 13.2223C16.5015 11.8245 17 10.1811 17 8.5C16.9976 6.24639 16.1013 4.08576 14.5078 2.49222C12.9142 0.898677 10.7536 0.00237985 8.5 0ZM12.2318 7.00106L7.65491 11.578C7.59418 11.6388 7.52207 11.687 7.44269 11.7199C7.36332 11.7528 7.27824 11.7697 7.19231 11.7697C7.10638 11.7697 7.0213 11.7528 6.94193 11.7199C6.86255 11.687 6.79044 11.6388 6.72971 11.578L4.76818 9.61644C4.64549 9.49375 4.57656 9.32735 4.57656 9.15384C4.57656 8.98034 4.64549 8.81394 4.76818 8.69125C4.89086 8.56856 5.05726 8.49963 5.23077 8.49963C5.40428 8.49963 5.57068 8.56856 5.69337 8.69125L7.19231 10.191L11.3066 6.07586C11.3674 6.01511 11.4395 5.96693 11.5189 5.93405C11.5982 5.90117 11.6833 5.88425 11.7692 5.88425C11.8551 5.88425 11.9402 5.90117 12.0196 5.93405C12.099 5.96693 12.1711 6.01511 12.2318 6.07586C12.2926 6.13661 12.3408 6.20873 12.3736 6.28811C12.4065 6.36748 12.4234 6.45255 12.4234 6.53846C12.4234 6.62437 12.4065 6.70944 12.3736 6.78882C12.3408 6.86819 12.2926 6.94031 12.2318 7.00106Z" fill="#A78BFA"/>
</svg>
