<svg width="21" height="20" viewBox="0 0 21 20" fill="none" xmlns="http://www.w3.org/2000/svg">
<path d="M10.2334 3.4375C8.75004 3.4375 7.29999 3.87737 6.06663 4.70148C4.83326 5.52559 3.87196 6.69693 3.30431 8.06738C2.73665 9.43782 2.58812 10.9458 2.87751 12.4007C3.1669 13.8555 3.88121 15.1919 4.9301 16.2408C5.97899 17.2897 7.31537 18.004 8.77022 18.2934C10.2251 18.5828 11.7331 18.4343 13.1035 17.8666C14.474 17.2989 15.6453 16.3376 16.4694 15.1043C17.2935 13.8709 17.7334 12.4209 17.7334 10.9375C17.7311 8.94908 16.9402 7.04274 15.5342 5.63671C14.1282 4.23068 12.2218 3.43977 10.2334 3.4375ZM10.2334 16.5625C9.12088 16.5625 8.03335 16.2326 7.10832 15.6145C6.18329 14.9964 5.46232 14.1179 5.03658 13.0901C4.61084 12.0623 4.49944 10.9313 4.71648 9.84012C4.93353 8.74897 5.46926 7.7467 6.25593 6.96002C7.0426 6.17335 8.04488 5.63763 9.13602 5.42058C10.2272 5.20354 11.3582 5.31494 12.386 5.74068C13.4138 6.16642 14.2923 6.88739 14.9104 7.81242C15.5285 8.73744 15.8584 9.82498 15.8584 10.9375C15.8567 12.4288 15.2636 13.8586 14.2091 14.9131C13.1545 15.9677 11.7247 16.5608 10.2334 16.5625ZM13.0842 7.77422C13.1716 7.86132 13.2409 7.96481 13.2882 8.07876C13.3356 8.19272 13.3599 8.31489 13.3599 8.43828C13.3599 8.56167 13.3356 8.68384 13.2882 8.7978C13.2409 8.91175 13.1716 9.01525 13.0842 9.10234L10.8967 11.2898C10.7206 11.466 10.4817 11.5649 10.2326 11.5649C9.98355 11.5649 9.74468 11.466 9.56856 11.2898C9.39244 11.1137 9.29349 10.8749 9.29349 10.6258C9.29349 10.3767 9.39244 10.1378 9.56856 9.96172L11.7561 7.77422C11.8432 7.68682 11.9466 7.61747 12.0606 7.57015C12.1746 7.52284 12.2967 7.49848 12.4201 7.49848C12.5435 7.49848 12.6657 7.52284 12.7796 7.57015C12.8936 7.61747 12.9971 7.68682 13.0842 7.77422ZM7.4209 1.25C7.4209 1.00136 7.51967 0.762903 7.69549 0.587087C7.8713 0.411272 8.10976 0.3125 8.3584 0.3125H12.1084C12.357 0.3125 12.5955 0.411272 12.7713 0.587087C12.9471 0.762903 13.0459 1.00136 13.0459 1.25C13.0459 1.49864 12.9471 1.7371 12.7713 1.91291C12.5955 2.08873 12.357 2.1875 12.1084 2.1875H8.3584C8.10976 2.1875 7.8713 2.08873 7.69549 1.91291C7.51967 1.7371 7.4209 1.49864 7.4209 1.25Z" fill="#0D65EA"/>
</svg>
