<svg width="17" height="17" viewBox="0 0 17 17" fill="none" xmlns="http://www.w3.org/2000/svg">
<path d="M12.5698 6.51732V6.98323C12.5698 7.54244 12.7286 8.08908 13.0277 8.55433L13.761 9.6946C14.4301 10.7363 13.9192 12.1518 12.7551 12.4807C9.71332 13.3424 6.49203 13.3424 3.45026 12.4807C2.28616 12.1518 1.77526 10.7363 2.44433 9.6946L3.1776 8.55433C3.47777 8.08535 3.63696 7.54004 3.63622 6.98323V6.51732C3.63622 3.95883 5.63616 1.88477 8.10267 1.88477C10.5692 1.88477 12.5698 3.95883 12.5698 6.51732Z" fill="#5D6076"/>
<path d="M4.95435 12.834C5.17059 13.4985 5.59158 14.0775 6.15702 14.4882C6.72246 14.8988 7.40335 15.1199 8.10217 15.1199C8.80098 15.1199 9.48187 14.8988 10.0473 14.4882C10.6128 14.0775 11.0338 13.4985 11.25 12.834C9.16865 13.2244 7.03635 13.2244 4.95435 12.834Z" fill="#5D6076"/>
</svg>
