<svg width="18" height="18" viewBox="0 0 18 18" fill="none" xmlns="http://www.w3.org/2000/svg">
<path d="M10.1602 9.59717L4.53515 15.2222C4.45667 15.3007 4.36349 15.3629 4.26095 15.4054C4.1584 15.4479 4.04849 15.4697 3.9375 15.4697C3.8265 15.4697 3.7166 15.4479 3.61405 15.4054C3.5115 15.3629 3.41833 15.3007 3.33984 15.2222C3.26136 15.1437 3.1991 15.0505 3.15662 14.948C3.11415 14.8454 3.09229 14.7355 3.09229 14.6245C3.09229 14.5135 3.11415 14.4036 3.15662 14.3011C3.1991 14.1985 3.26136 14.1053 3.33984 14.0269L8.36789 9.00021L3.34125 3.97217C3.18274 3.81366 3.09369 3.59868 3.09369 3.37451C3.09369 3.15035 3.18274 2.93536 3.34125 2.77685C3.49976 2.61835 3.71474 2.5293 3.9389 2.5293C4.16307 2.5293 4.37805 2.61835 4.53656 2.77685L10.1616 8.40185C10.2401 8.48033 10.3024 8.57355 10.3449 8.67616C10.3874 8.77877 10.4092 8.88875 10.409 8.9998C10.4089 9.11085 10.3868 9.22078 10.3441 9.32329C10.3014 9.4258 10.2389 9.51887 10.1602 9.59717ZM15.7852 8.40185L10.1602 2.77685C10.0817 2.69837 9.98849 2.63611 9.88595 2.59364C9.7834 2.55116 9.67349 2.5293 9.5625 2.5293C9.4515 2.5293 9.3416 2.55116 9.23905 2.59364C9.1365 2.63611 9.04333 2.69837 8.96484 2.77685C8.88636 2.85534 8.8241 2.94852 8.78162 3.05106C8.73915 3.15361 8.71729 3.26352 8.71729 3.37451C8.71729 3.48551 8.73915 3.59541 8.78162 3.69796C8.8241 3.80051 8.88636 3.89368 8.96484 3.97217L13.9929 9.00021L8.96414 14.0283C8.80563 14.1868 8.71658 14.4018 8.71658 14.6259C8.71658 14.8501 8.80563 15.0651 8.96414 15.2236C9.12265 15.3821 9.33763 15.4711 9.5618 15.4711C9.78596 15.4711 10.0009 15.3821 10.1595 15.2236L15.7845 9.59857C15.8632 9.52023 15.9256 9.42712 15.9683 9.32459C16.0109 9.22206 16.0329 9.11211 16.033 9.00106C16.033 8.89001 16.0112 8.78004 15.9687 8.67746C15.9261 8.57487 15.8638 8.48169 15.7852 8.40326V8.40185Z" fill="black"/>
</svg>
