<svg width="25" height="25" viewBox="0 0 25 25" fill="none" xmlns="http://www.w3.org/2000/svg">
<path d="M12.5 13.25C12.5 13.4489 12.421 13.6397 12.2803 13.7803C12.1397 13.921 11.9489 14 11.75 14H7.25C7.05109 14 6.86032 13.921 6.71967 13.7803C6.57902 13.6397 6.5 13.4489 6.5 13.25C6.5 13.0511 6.57902 12.8603 6.71967 12.7197C6.86032 12.579 7.05109 12.5 7.25 12.5H11.75C11.9489 12.5 12.1397 12.579 12.2803 12.7197C12.421 12.8603 12.5 13.0511 12.5 13.25ZM11.75 9.5H7.25C7.05109 9.5 6.86032 9.57902 6.71967 9.71967C6.57902 9.86032 6.5 10.0511 6.5 10.25C6.5 10.4489 6.57902 10.6397 6.71967 10.7803C6.86032 10.921 7.05109 11 7.25 11H11.75C11.9489 11 12.1397 10.921 12.2803 10.7803C12.421 10.6397 12.5 10.4489 12.5 10.25C12.5 10.0511 12.421 9.86032 12.2803 9.71967C12.1397 9.57902 11.9489 9.5 11.75 9.5ZM22.25 15.6378V21.5C22.2512 21.6322 22.2174 21.7624 22.1521 21.8774C22.0867 21.9923 21.9921 22.088 21.8779 22.1546C21.7637 22.2212 21.6339 22.2565 21.5017 22.2567C21.3695 22.257 21.2395 22.2224 21.125 22.1562L18.875 20.8681L16.625 22.1562C16.5105 22.2224 16.3805 22.257 16.2483 22.2567C16.1161 22.2565 15.9863 22.2212 15.8721 22.1546C15.7579 22.088 15.6633 21.9923 15.5979 21.8774C15.5326 21.7624 15.4988 21.6322 15.5 21.5V19.25H4.25C3.85218 19.25 3.47064 19.092 3.18934 18.8107C2.90804 18.5294 2.75 18.1478 2.75 17.75V5.75C2.75 5.35218 2.90804 4.97064 3.18934 4.68934C3.47064 4.40804 3.85218 4.25 4.25 4.25H20.75C21.1478 4.25 21.5294 4.40804 21.8107 4.68934C22.092 4.97064 22.25 5.35218 22.25 5.75V8.61219C22.7241 9.0662 23.1014 9.61149 23.3592 10.2152C23.6169 10.8189 23.7498 11.4686 23.7498 12.125C23.7498 12.7814 23.6169 13.4311 23.3592 14.0348C23.1014 14.6385 22.7241 15.1838 22.25 15.6378ZM15.5 17.75V15.6378C14.6827 14.8496 14.1662 13.8008 14.0396 12.6724C13.9129 11.544 14.1842 10.4069 14.8065 9.45709C15.4287 8.50733 16.363 7.80458 17.4481 7.47011C18.5332 7.13563 19.701 7.19041 20.75 7.625V5.75H4.25V17.75H15.5ZM20.75 16.625C20.156 16.8732 19.5187 17.0009 18.875 17.0009C18.2313 17.0009 17.594 16.8732 17 16.625V20.2081L18.5 19.3494C18.6133 19.2846 18.7416 19.2505 18.8722 19.2505C19.0027 19.2505 19.131 19.2846 19.2444 19.3494L20.7444 20.2081L20.75 16.625ZM22.25 12.125C22.25 11.4575 22.0521 10.805 21.6812 10.25C21.3104 9.69493 20.7833 9.26235 20.1666 9.00691C19.5499 8.75146 18.8713 8.68462 18.2166 8.81485C17.5619 8.94507 16.9605 9.26651 16.4885 9.73851C16.0165 10.2105 15.6951 10.8119 15.5648 11.4666C15.4346 12.1213 15.5015 12.7999 15.7569 13.4166C16.0124 14.0333 16.4449 14.5604 17 14.9312C17.555 15.3021 18.2075 15.5 18.875 15.5C19.3182 15.5 19.7571 15.4127 20.1666 15.2431C20.576 15.0735 20.9481 14.8249 21.2615 14.5115C21.5749 14.1981 21.8235 13.826 21.9931 13.4166C22.1627 13.0071 22.25 12.5682 22.25 12.125Z" fill="white"/>
</svg>
