<svg width="25" height="25" viewBox="0 0 25 25" fill="none" xmlns="http://www.w3.org/2000/svg">
<path d="M7.75 4C7.00832 4 6.2833 4.21994 5.66661 4.63199C5.04993 5.04405 4.56928 5.62972 4.28545 6.31494C4.00162 7.00016 3.92736 7.75416 4.07206 8.48159C4.21675 9.20902 4.5739 9.8772 5.09835 10.4017C5.6228 10.9261 6.29098 11.2833 7.01841 11.4279C7.74584 11.5726 8.49984 11.4984 9.18506 11.2146C9.87029 10.9307 10.456 10.4501 10.868 9.83339C11.2801 9.21671 11.5 8.49168 11.5 7.75C11.5 6.75544 11.1049 5.80161 10.4017 5.09835C9.69839 4.39509 8.74456 4 7.75 4ZM7.75 10C7.30499 10 6.86998 9.86804 6.49997 9.62081C6.12996 9.37357 5.84157 9.02217 5.67127 8.61104C5.50098 8.19991 5.45642 7.74751 5.54323 7.31105C5.63005 6.87459 5.84434 6.47368 6.15901 6.15901C6.47368 5.84434 6.87459 5.63005 7.31105 5.54323C7.74751 5.45642 8.19991 5.50098 8.61104 5.67127C9.02217 5.84157 9.37357 6.12996 9.62081 6.49997C9.86804 6.86998 10 7.30499 10 7.75C10 8.34674 9.76295 8.91904 9.34099 9.34099C8.91904 9.76295 8.34674 10 7.75 10ZM16.75 11.5C17.4917 11.5 18.2167 11.2801 18.8334 10.868C19.4501 10.456 19.9307 9.87029 20.2146 9.18506C20.4984 8.49984 20.5726 7.74584 20.4279 7.01841C20.2833 6.29098 19.9261 5.6228 19.4017 5.09835C18.8772 4.5739 18.209 4.21675 17.4816 4.07206C16.7542 3.92736 16.0002 4.00162 15.3149 4.28545C14.6297 4.56928 14.044 5.04993 13.632 5.66661C13.2199 6.2833 13 7.00832 13 7.75C13 8.74456 13.3951 9.69839 14.0984 10.4017C14.8016 11.1049 15.7554 11.5 16.75 11.5ZM16.75 5.5C17.195 5.5 17.63 5.63196 18 5.8792C18.37 6.12643 18.6584 6.47783 18.8287 6.88896C18.999 7.3001 19.0436 7.7525 18.9568 8.18895C18.87 8.62541 18.6557 9.02632 18.341 9.34099C18.0263 9.65566 17.6254 9.86995 17.189 9.95677C16.7525 10.0436 16.3001 9.99903 15.889 9.82873C15.4778 9.65843 15.1264 9.37005 14.8792 9.00003C14.632 8.63002 14.5 8.19501 14.5 7.75C14.5 7.15326 14.7371 6.58097 15.159 6.15901C15.581 5.73705 16.1533 5.5 16.75 5.5ZM7.75 13C7.00832 13 6.2833 13.2199 5.66661 13.632C5.04993 14.044 4.56928 14.6297 4.28545 15.3149C4.00162 16.0002 3.92736 16.7542 4.07206 17.4816C4.21675 18.209 4.5739 18.8772 5.09835 19.4017C5.6228 19.9261 6.29098 20.2833 7.01841 20.4279C7.74584 20.5726 8.49984 20.4984 9.18506 20.2146C9.87029 19.9307 10.456 19.4501 10.868 18.8334C11.2801 18.2167 11.5 17.4917 11.5 16.75C11.5 15.7554 11.1049 14.8016 10.4017 14.0984C9.69839 13.3951 8.74456 13 7.75 13ZM7.75 19C7.30499 19 6.86998 18.868 6.49997 18.6208C6.12996 18.3736 5.84157 18.0222 5.67127 17.611C5.50098 17.1999 5.45642 16.7475 5.54323 16.311C5.63005 15.8746 5.84434 15.4737 6.15901 15.159C6.47368 14.8443 6.87459 14.6301 7.31105 14.5432C7.74751 14.4564 8.19991 14.501 8.61104 14.6713C9.02217 14.8416 9.37357 15.13 9.62081 15.5C9.86804 15.87 10 16.305 10 16.75C10 17.3467 9.76295 17.919 9.34099 18.341C8.91904 18.7629 8.34674 19 7.75 19ZM16.75 13C16.0083 13 15.2833 13.2199 14.6666 13.632C14.0499 14.044 13.5693 14.6297 13.2855 15.3149C13.0016 16.0002 12.9274 16.7542 13.0721 17.4816C13.2168 18.209 13.5739 18.8772 14.0984 19.4017C14.6228 19.9261 15.291 20.2833 16.0184 20.4279C16.7458 20.5726 17.4998 20.4984 18.1851 20.2146C18.8703 19.9307 19.456 19.4501 19.868 18.8334C20.2801 18.2167 20.5 17.4917 20.5 16.75C20.5 15.7554 20.1049 14.8016 19.4017 14.0984C18.6984 13.3951 17.7446 13 16.75 13ZM16.75 19C16.305 19 15.87 18.868 15.5 18.6208C15.13 18.3736 14.8416 18.0222 14.6713 17.611C14.501 17.1999 14.4564 16.7475 14.5432 16.311C14.6301 15.8746 14.8443 15.4737 15.159 15.159C15.4737 14.8443 15.8746 14.6301 16.311 14.5432C16.7475 14.4564 17.1999 14.501 17.611 14.6713C18.0222 14.8416 18.3736 15.13 18.6208 15.5C18.868 15.87 19 16.305 19 16.75C19 17.3467 18.7629 17.919 18.341 18.341C17.919 18.7629 17.3467 19 16.75 19Z" fill="white"/>
</svg>