<svg width="24" height="24" viewBox="0 0 24 24" fill="none" xmlns="http://www.w3.org/2000/svg">
<g clip-path="url(#clip0_667_9338)">
<path d="M10.7501 2.56736C11.1301 2.34794 11.5612 2.23242 12.0001 2.23242C12.4389 2.23242 12.87 2.34794 13.2501 2.56736L19.5441 6.20036C19.9241 6.41977 20.2397 6.73536 20.4591 7.11539C20.6785 7.49543 20.794 7.92653 20.7941 8.36536V15.6334C20.794 16.0722 20.6785 16.5033 20.4591 16.8833C20.2397 17.2634 19.9241 17.5789 19.5441 17.7984L13.2501 21.4324C12.87 21.6518 12.4389 21.7673 12.0001 21.7673C11.5612 21.7673 11.1301 21.6518 10.7501 21.4324L4.45605 17.7984C4.07602 17.5789 3.76043 17.2634 3.54101 16.8833C3.32159 16.5033 3.20607 16.0722 3.20605 15.6334V8.36636C3.20589 7.92736 3.32133 7.49605 3.54076 7.11583C3.76019 6.7356 4.07587 6.41986 4.45605 6.20036L10.7501 2.56736ZM12.0001 9.00036C11.2044 9.00036 10.4413 9.31643 9.87873 9.87904C9.31612 10.4416 9.00005 11.2047 9.00005 12.0004C9.00005 12.796 9.31612 13.5591 9.87873 14.1217C10.4413 14.6843 11.2044 15.0004 12.0001 15.0004C12.7957 15.0004 13.5588 14.6843 14.1214 14.1217C14.684 13.5591 15.0001 12.796 15.0001 12.0004C15.0001 11.2047 14.684 10.4416 14.1214 9.87904C13.5588 9.31643 12.7957 9.00036 12.0001 9.00036Z" fill="#5D6076"/>
</g>
<defs>
<clipPath id="clip0_667_9338">
<rect width="24" height="24" fill="white"/>
</clipPath>
</defs>
</svg>
