<svg width="24" height="24" viewBox="0 0 24 24" fill="none" xmlns="http://www.w3.org/2000/svg">
<path d="M11.5 1C6.25323 1 2 5.25323 2 10.5C2 15.7468 6.25323 20 11.5 20C16.7468 20 21 15.7468 21 10.5C21 5.25323 16.7468 1 11.5 1ZM12.368 15.9716H10.598V14.2754H12.368V15.9716ZM12.368 12.4635V13.0244H10.598V12.3341C10.598 10.249 12.9707 9.91826 12.9707 8.43646C12.9707 7.76125 12.3674 7.24357 11.5765 7.24357C10.7568 7.24357 10.0378 7.84753 10.0378 7.84753L9.0312 6.59516C9.0312 6.59516 10.0228 5.55848 11.734 5.55848C13.359 5.55848 14.8682 6.56509 14.8682 8.26194C14.8682 10.636 12.3667 10.9092 12.3667 12.4629L12.368 12.4635Z" fill="#5D6076"/>
</svg>
